<svg width="150" height="150" fill="none" xmlns="http://www.w3.org/2000/svg">
    <path d="M83.077 85.022c-6.653 0-13.434 1.045-19.769 2.98l.56-7.779c.32-.175.646-.364.983-.569l8.09 3.929c3.758 1.828 8.346.42 10.443-3.209l3.203-5.553c17.105-1.762 30.492-16.256 30.492-33.82C117.079 22.252 101.826 7 83.077 7c-10.885 0-20.585 5.148-26.813 13.13a7.994 7.994 0 0 0-1.035-.073h-6.67c-4.183 0-7.695 3.267-7.993 7.438l-.646 8.967c-.34.185-.67.376-.99.571l-8.083-3.928c-3.763-1.825-8.349-.42-10.442 3.202l-3.334 5.778c-2.096 3.625-1.027 8.302 2.442 10.65l7.448 5.041a21.53 21.53 0 0 0 0 1.13l-7.452 5.048c-3.462 2.346-4.534 7.02-2.442 10.638l3.338 5.787c2.094 3.622 6.681 5.027 10.442 3.204l8.084-3.928c.33.2.66.39.985.569l.647 8.968c.242 3.388 2.603 6.18 5.721 7.11-7.916 5.808-13.13 13.585-13.13 22.72 0 18.436 26.893 24.978 49.923 24.978 23.031 0 49.923-6.542 49.923-24.978 0-20.338-25.813-34-49.923-34Zm0-67.966c13.204 0 23.946 10.743 23.946 23.946 0 13.203-10.74 23.944-23.946 23.944-13.206 0-23.945-10.742-23.945-23.945 0-13.202 10.742-23.944 23.945-23.944ZM44.101 73.898a16.384 16.384 0 0 1-1.775-1.02 5.883 5.883 0 0 0-5.855-.41l-8.917 4.335a.484.484 0 0 1-.616-.193L23.6 70.823a.464.464 0 0 1 .137-.623l8.21-5.561a5.942 5.942 0 0 0 2.582-5.243c-.02-.342-.035-.698-.035-1.05 0-.352.015-.707.036-1.068a5.973 5.973 0 0 0-2.582-5.23l-8.207-5.558a.48.48 0 0 1-.137-.633l3.334-5.779a.48.48 0 0 1 .616-.19l8.914 4.334a5.92 5.92 0 0 0 5.844-.401c.584-.389 1.191-.74 1.82-1.051a5.948 5.948 0 0 0 3.241-4.844l.713-9.89a.467.467 0 0 1 .47-.437h3.277A33.805 33.805 0 0 0 49.076 41c0 17.022 12.573 31.16 28.92 33.62l-1.142 1.981a.48.48 0 0 1-.617.197l-8.929-4.337c-1.882-.907-4.122-.75-5.792.38-.595.394-1.214.75-1.853 1.067a5.955 5.955 0 0 0-3.251 4.855l-.712 9.888a.467.467 0 0 1-.471.437h-6.67a.467.467 0 0 1-.47-.44l-.715-9.91a5.954 5.954 0 0 0-3.275-4.843l.002.001Zm38.976 60.048c-15.412 0-39.867-4.051-39.867-14.922 0-12.532 19.002-23.945 39.867-23.945 20.866 0 39.867 11.413 39.867 23.945 0 10.87-24.453 14.922-39.867 14.922Z" fill="#000"/>
</svg>
