<svg width="2000" height="2000" version="1.1" xmlns="http://www.w3.org/2000/svg" desc="Created with imagetracer.js version 1.2.6" ><path fill="rgb(0,0,0)" stroke="rgb(0,0,0)" stroke-width="1" opacity="0" d="M 0 0 L 624 0.5 L 599.5 5 L 574.5 15 Q 550.2 28.2 533 48.5 Q 511.3 72.8 503 110.5 L 502 123.5 L 501 124.5 L 501 215 L 321.5 215 L 320.5 216 L 309.5 216 L 308.5 217 L 296.5 218 Q 236.3 232.3 203 273.5 Q 188.2 291.2 178 313.5 L 170 336.5 L 165 364.5 L 165 1723.5 L 166 1724.5 L 167 1738.5 L 172 1758.5 L 185 1788.5 Q 200 1815 222.5 1834 Q 242.6 1851.4 269.5 1862 L 292.5 1869 L 309.5 1872 L 321.5 1872 L 322.5 1873 L 1020.5 1873 L 1036.5 1870 L 1051.5 1863 L 1068 1848.5 Q 1076.9 1838.4 1081 1823.5 L 1083 1814.5 L 1083 1796.5 Q 1077.5 1766 1056.5 1751 Q 1043.8 1741.2 1024.5 1738 L 324.5 1738 Q 310.8 1734.8 304 1724.5 L 301 1718.5 L 299 1709.5 L 299 378.5 Q 301.2 377.3 300 372.5 L 304 363.5 L 312.5 355 L 324.5 350 L 501 350 L 501 440.5 L 502 441.5 L 504 459.5 Q 515.5 503 544.5 529 Q 561.4 545.1 584.5 555 L 609.5 563 L 614.5 563 L 621.5 565 L 634.5 565 L 635.5 566 L 1186.5 566 L 1187.5 565 L 1200.5 565 L 1217.5 562 L 1238.5 555 Q 1269.7 541.2 1290 516.5 Q 1303.3 500.8 1312 480.5 L 1320 453.5 L 1321 438.5 L 1322 437.5 L 1322 350 L 1498.5 350 Q 1511.5 353 1518 362.5 L 1523 373.5 L 1523 645.5 L 1526 661.5 L 1533 676.5 L 1548.5 694 Q 1558.4 702.1 1572.5 706 L 1581.5 708 L 1599.5 708 Q 1629.3 702.8 1644 682.5 L 1653 667.5 L 1658 648.5 L 1658 367.5 L 1657 366.5 L 1657 357.5 L 1654 341.5 L 1646 316.5 Q 1630.3 280.2 1602.5 256 Q 1571.2 226.8 1520.5 217 L 1501.5 216 L 1500.5 215 L 1322 215 L 1322 127.5 L 1317 99.5 Q 1304 58 1274.5 33 Q 1258.5 19 1237.5 10 L 1211.5 2 L 1198 0.5 L 2000 0 L 2000 1999.5 L 1999.5 2000 L 1666.5 2000 L 1666.5 1999 Q 1694.2 1993.2 1708 1973.5 Q 1717.8 1961.3 1721 1942.5 L 1721 1475.5 Q 1778.2 1421.2 1810 1341.5 L 1822 1305.5 L 1832 1257.5 L 1833 1241.5 L 1834 1240.5 L 1834 1228.5 L 1835 1227.5 L 1835 1180.5 L 1834 1179.5 L 1834 1167.5 L 1833 1166.5 L 1831 1143.5 L 1825 1113.5 L 1814 1076.5 L 1801 1044.5 Q 1767.9 974.6 1714.5 925 Q 1659.8 872.7 1581.5 844 L 1540.5 832 L 1500.5 825 L 1479.5 824 L 1478.5 823 L 1430.5 823 L 1429.5 824 L 1417.5 824 L 1416.5 825 L 1400.5 826 L 1372.5 831 Q 1332.9 839.9 1299.5 855 Q 1222.6 890.1 1170 949.5 Q 1123.1 1001.1 1096 1072.5 L 1085 1107.5 L 1078 1140.5 L 1076 1161.5 L 1075 1162.5 L 1075 1172.5 L 1074 1173.5 L 1073 1216.5 L 1074 1217.5 L 1074 1234.5 L 1075 1235.5 L 1076 1253.5 L 1082 1287.5 L 1091 1320.5 L 1106 1359.5 Q 1136.9 1427.1 1187 1475.5 L 1187 1938.5 L 1189 1949.5 L 1196 1966.5 Q 1202.3 1977.3 1211.5 1985 Q 1223.1 1995.9 1242 1999.5 L 0 2000 L 0 0 Z " /><path fill="rgb(0,0,0)" stroke="rgb(0,0,0)" stroke-width="1" opacity="0" d="M 639.5 134 L 1183.5 134 L 1187 136.5 L 1187 428.5 L 1184.5 431 L 638.5 431 L 636 430 L 636 136.5 L 637.5 135 L 639.5 134 Z " /><path fill="rgb(0,0,0)" stroke="rgb(0,0,0)" stroke-width="1" opacity="0" d="M 1448.5 957 L 1476.5 958 L 1477.5 959 L 1498.5 961 L 1523.5 967 L 1553.5 978 Q 1602.9 1000.6 1637 1038.5 Q 1668 1072.5 1686 1119.5 L 1697 1159.5 L 1699 1180.5 L 1700 1181.5 L 1701 1208.5 L 1700 1209.5 L 1699 1234.5 L 1695 1257.5 L 1688 1282.5 L 1677 1309.5 Q 1653.5 1357 1615.5 1390 Q 1584.4 1417.4 1542.5 1434 Q 1520.9 1442.4 1495.5 1447 L 1481.5 1448 L 1480.5 1449 L 1470.5 1449 L 1469.5 1450 L 1438.5 1450 L 1437.5 1449 L 1419.5 1448 L 1390.5 1442 Q 1366.2 1435.3 1345.5 1425 Q 1303.3 1403.7 1273 1370.5 Q 1240.3 1335.7 1222 1286.5 L 1216 1267.5 L 1210 1238.5 L 1209 1220.5 L 1208 1219.5 L 1208 1188.5 L 1209 1187.5 L 1209 1177.5 L 1210 1176.5 L 1210 1169.5 L 1213 1152.5 L 1220 1126.5 L 1229 1103.5 Q 1252.5 1052.5 1292.5 1018 Q 1324.2 989.7 1367.5 973 L 1388.5 966 L 1410.5 961 L 1431.5 959 L 1432.5 958 L 1447.5 958 L 1448.5 957 Z " /><path fill="rgb(0,0,0)" stroke="rgb(0,0,0)" stroke-width="1" opacity="0" d="M 1322.5 1561 L 1347.5 1570 L 1385.5 1579 L 1403.5 1581 L 1404.5 1582 L 1412.5 1582 L 1413.5 1583 L 1423.5 1583 L 1424.5 1584 L 1466.5 1585 L 1467.5 1584 L 1484.5 1584 L 1485.5 1583 L 1503.5 1582 L 1537.5 1576 L 1564.5 1569 L 1587 1561 L 1586.5 1811 L 1490.5 1748 L 1469.5 1740 Q 1464.7 1741.3 1463.5 1739 L 1444.5 1739 L 1428.5 1743 L 1416.5 1749 L 1322 1810 L 1322.5 1561 Z " /><path fill="rgb(0,0,0)" stroke="rgb(0,0,0)" stroke-width="1" opacity="0" d="M 1453.5 1886 L 1612.5 1989 Q 1622.9 1996.6 1638 1999.5 L 1270.5 2000 L 1270.5 1999 L 1280.5 1997 L 1294.5 1990 L 1453.5 1886 Z " /><path fill="rgb(255,165,0)" stroke="rgb(255,165,0)" stroke-width="1" opacity="1" d="M 624.5 0 L 1197.5 0 L 1223.5 5 Q 1240 10 1253.5 18 Q 1274 30 1289 47.5 Q 1302.1 62.9 1311 82.5 L 1320 112.5 L 1321 126.5 L 1322 127.5 L 1322 215 L 1500.5 215 L 1501.5 216 L 1520.5 217 Q 1551.5 222.5 1574.5 236 Q 1599.5 250.5 1618 271.5 Q 1635.2 290.8 1646 316.5 L 1652 333.5 L 1657 357.5 L 1657 366.5 L 1658 367.5 L 1658 648.5 L 1655 662.5 L 1649 675.5 L 1631.5 695 L 1609.5 706 L 1599.5 708 L 1581.5 708 Q 1552.7 702.8 1538 683.5 L 1527 664.5 L 1523 645.5 L 1523 373.5 Q 1519.7 361.3 1510.5 355 L 1498.5 350 L 1322 350 L 1322 437.5 L 1321 438.5 L 1321 446.5 L 1318 462.5 Q 1304.8 507.8 1272.5 534 Q 1255.8 548.3 1233.5 557 L 1207.5 564 L 1187.5 565 L 1186.5 566 L 635.5 566 L 634.5 565 L 621.5 565 L 620.5 564 L 609.5 563 L 584.5 555 Q 556.3 542.7 537 521.5 Q 513.8 497.2 504 459.5 L 502 441.5 L 501 440.5 L 501 350 L 324.5 350 Q 310.4 352.9 304 363.5 L 301 369.5 L 299 378.5 L 299 1709.5 Q 301.2 1710.7 300 1715.5 L 304 1724.5 L 312.5 1733 L 324.5 1738 L 1024.5 1738 Q 1055 1743.5 1070 1764.5 L 1081 1786.5 L 1083 1796.5 L 1083 1814.5 Q 1077.8 1843.3 1058.5 1858 Q 1049.2 1865.7 1036.5 1870 L 1020.5 1873 L 322.5 1873 L 321.5 1872 L 309.5 1872 L 292.5 1869 L 264.5 1860 Q 227.3 1843.7 203 1814.5 Q 186.5 1795 176 1769.5 L 168 1743.5 L 166 1732.5 L 166 1724.5 L 165 1723.5 L 165 364.5 L 166 363.5 L 167 349.5 L 172 329.5 L 185 299.5 Q 200 273 222.5 254 Q 240.7 238.2 264.5 228 L 284.5 221 L 309.5 216 L 320.5 216 L 321.5 215 L 501 215 L 501 124.5 L 506 98.5 Q 519.1 56.6 549.5 32 Q 565.9 17.9 587.5 9 L 606.5 3 L 623.5 1 L 624.5 0 Z M 640 134 L 638 135 L 636 137 L 636 430 L 639 431 L 1185 431 L 1187 429 L 1187 137 L 1184 134 L 640 134 Z " /><path fill="rgb(255,165,0)" stroke="rgb(255,165,0)" stroke-width="1" opacity="1" d="M 1430.5 823 L 1478.5 823 L 1479.5 824 L 1490.5 824 L 1491.5 825 L 1500.5 825 L 1501.5 826 L 1514.5 827 L 1552.5 835 L 1589.5 847 Q 1675.5 881 1733 943.5 Q 1785.3 998.2 1814 1076.5 L 1825 1113.5 L 1832 1150.5 L 1833 1166.5 L 1834 1167.5 L 1834 1179.5 L 1835 1180.5 L 1835 1227.5 L 1834 1228.5 L 1834 1240.5 L 1833 1241.5 L 1832 1257.5 L 1826 1289.5 L 1820 1312.5 L 1803 1358.5 Q 1771.9 1426.9 1721 1475.5 L 1721 1942.5 Q 1715.1 1972.1 1694.5 1987 Q 1682.9 1996.4 1665.5 2000 L 1638.5 2000 Q 1623.4 1996.6 1612.5 1989 L 1453.5 1886 L 1289.5 1993 L 1269.5 2000 L 1242.5 2000 Q 1217.1 1993.9 1203 1976.5 L 1192 1958.5 L 1187 1938.5 L 1187 1475.5 Q 1134.4 1424.6 1103 1352.5 L 1091 1320.5 L 1079 1272.5 L 1077 1254.5 L 1076 1253.5 L 1076 1245.5 L 1075 1244.5 L 1075 1235.5 L 1074 1234.5 L 1073 1191.5 L 1074 1190.5 L 1074 1173.5 L 1075 1172.5 L 1076 1154.5 L 1084 1111.5 Q 1093.4 1074.9 1108 1043.5 Q 1142.6 970.6 1199.5 920 Q 1245.2 878.2 1306.5 852 Q 1337 839 1372.5 831 L 1400.5 826 L 1416.5 825 L 1417.5 824 L 1429.5 824 L 1430.5 823 Z M 1449 957 L 1448 958 L 1433 958 L 1432 959 L 1411 961 L 1389 966 L 1368 973 Q 1324 990 1293 1018 Q 1253 1053 1229 1104 L 1220 1127 L 1213 1153 L 1210 1170 L 1210 1177 L 1209 1178 L 1209 1188 L 1208 1189 L 1208 1220 L 1209 1221 L 1210 1239 L 1216 1268 L 1222 1287 Q 1240 1336 1273 1371 Q 1303 1404 1346 1425 Q 1366 1435 1391 1442 L 1420 1448 L 1438 1449 L 1439 1450 L 1470 1450 L 1471 1449 L 1481 1449 L 1482 1448 L 1496 1447 Q 1521 1442 1543 1434 Q 1584 1417 1616 1390 Q 1653 1357 1677 1310 L 1688 1283 L 1695 1258 L 1699 1235 L 1700 1210 L 1701 1209 L 1700 1182 L 1699 1181 L 1697 1160 L 1686 1120 Q 1668 1072 1637 1039 Q 1603 1001 1554 978 L 1524 967 L 1499 961 L 1478 959 L 1477 958 L 1449 957 Z M 1323 1561 L 1322 1810 L 1417 1749 L 1429 1743 L 1445 1739 L 1464 1739 Q 1465 1741 1470 1740 L 1491 1748 L 1587 1811 L 1587 1561 L 1565 1569 L 1538 1576 L 1504 1582 L 1486 1583 L 1485 1584 L 1468 1584 L 1467 1585 L 1425 1584 L 1424 1583 L 1414 1583 L 1413 1582 L 1405 1582 L 1404 1581 L 1386 1579 L 1348 1570 L 1323 1561 Z " /></svg>