<svg width="28" height="28" viewBox="0 0 28 28" fill="none" xmlns="http://www.w3.org/2000/svg">
<path d="M2.33301 9.31936L3.83261 10.5333C4.35504 10.9562 4.96232 11.2587 5.61211 11.4196C6.2619 11.5806 6.93857 11.5962 7.59494 11.4654C8.2513 11.3345 8.87156 11.0603 9.41248 10.6619C9.95339 10.2636 10.4019 9.75058 10.7269 9.15875L13.833 3.5L16.9392 9.15875C17.2641 9.75067 17.7128 10.2637 18.2539 10.6621C18.7949 11.0605 19.4154 11.3346 20.0719 11.4654C20.7284 11.5961 21.4051 11.5804 22.055 11.4192C22.7049 11.258 23.3122 10.9553 23.8346 10.5321L25.333 9.31936L23.3159 19.5265C23.2278 19.972 23.0404 20.3912 22.768 20.7522C22.4956 21.1133 22.1453 21.4066 21.7439 21.6098C19.2876 22.8529 16.5792 23.5 13.833 23.5C11.0868 23.5 8.37838 22.8529 5.92216 21.6098C5.52072 21.4066 5.17044 21.1133 4.898 20.7522C4.62557 20.3912 4.43818 19.972 4.35011 19.5265L2.33301 9.31936Z" stroke="#001833" stroke-width="1.5" stroke-linecap="round" stroke-linejoin="round"/>
<path d="M9.2334 17.4666C12.2188 19.018 15.448 19.018 18.4334 17.4666" stroke="#001833" stroke-width="1.5" stroke-linecap="round" stroke-linejoin="round"/>
</svg>
