<svg width="28" height="28" viewBox="0 0 28 28" fill="none" xmlns="http://www.w3.org/2000/svg">
<path fill-rule="evenodd" clip-rule="evenodd" d="M24.5008 7.7861C24.5008 10.1528 22.5814 12.0722 20.2147 12.0722C17.848 12.0722 15.9297 10.1528 15.9297 7.7861C15.9297 5.4194 17.848 3.5 20.2147 3.5C22.5814 3.5 24.5008 5.4194 24.5008 7.7861Z" fill="#662E91"/>
<path fill-rule="evenodd" clip-rule="evenodd" d="M12.0711 7.7861C12.0711 10.1528 10.1528 12.0722 7.78505 12.0722C5.4194 12.0722 3.5 10.1528 3.5 7.7861C3.5 5.4194 5.4194 3.5 7.78505 3.5C10.1528 3.5 12.0711 5.4194 12.0711 7.7861Z" fill="#662E91"/>
<path fill-rule="evenodd" clip-rule="evenodd" d="M24.5008 20.1389C24.5008 22.5056 22.5814 24.4239 20.2147 24.4239C17.848 24.4239 15.9297 22.5056 15.9297 20.1389C15.9297 17.7722 17.848 15.8528 20.2147 15.8528C22.5814 15.8528 24.5008 17.7722 24.5008 20.1389Z" fill="#662E91"/>
<path fill-rule="evenodd" clip-rule="evenodd" d="M12.0711 20.1389C12.0711 22.5056 10.1528 24.4239 7.78505 24.4239C5.4194 24.4239 3.5 22.5056 3.5 20.1389C3.5 17.7722 5.4194 15.8528 7.78505 15.8528C10.1528 15.8528 12.0711 17.7722 12.0711 20.1389Z" fill="#662E91"/>
</svg>
