<svg id="Layer_1" data-name="Layer 1" xmlns="http://www.w3.org/2000/svg" viewBox="0 0 2000 2000"><defs><style>.cls-1{fill:#fff;}</style></defs><title>AdFreeWhite</title><path class="cls-1" d="M1746.43,732.13V484l-143.2,143.19v847.32c-100.06-79.89-205.14-149.13-305.94-201.46-83.46-43.32-164.69-75.76-242.84-97.07L677.38,1553.05c13.23,36.92,28.26,73.81,44.93,110.29H630.77c-4.51-13.31-9.81-29.55-15.49-48.19l-113.5,113.5c6.86,19.29,11.44,30.85,12.25,32.88a71.25,71.25,0,0,0,66.48,45H839.42a71.61,71.61,0,0,0,61.43-108.37c-.53-.9-50.36-85.14-91.51-202.35H928.4a71.59,71.59,0,0,0,68.08-93.39,791.34,791.34,0,0,1-25.24-99.21c335.83,70.81,650.18,376.06,653.39,379.2a71.6,71.6,0,0,0,121.81-51V1184.3c115.89-10.07,207.13-107.62,207.13-226.09S1862.33,742.2,1746.43,732.13Zm0,307.46V876.83a83.76,83.76,0,0,1,0,162.76Z" style="fill:#fff;" /><path class="cls-1" d="M1958.19,41.81a64.49,64.49,0,0,0-91.21,0L41.81,1867A64.5,64.5,0,0,0,133,1958.19L1958.19,133A64.49,64.49,0,0,0,1958.19,41.81Z" style="fill:#fff;" /><path class="cls-1" d="M407.23,1281.29c1.42,24.84,3.62,49.46,6.4,73.67l209.43-209.44H476.94c-103.28,0-187.31-84-187.31-187.31s84-187.31,187.31-187.31H767.82v229.87L911,857.57V767.36a840.4,840.4,0,0,0,108.25-18l258.84-258.84C1146.16,565.46,991,627.7,839.42,627.7H476.94C294.7,627.7,146.43,776,146.43,958.21a331,331,0,0,0,260.8,323.08Z" style="fill:#fff;" /></svg>