<svg id="Layer_1" data-name="Layer 1" xmlns="http://www.w3.org/2000/svg" viewBox="0 0 800 800"><title>AtBlack</title><path d="M400,0C179.45,0,0,179.44,0,400S179.45,800,400,800H551a33.45,33.45,0,0,0,0-66.89H400C216.33,733.11,66.89,583.68,66.89,400S216.33,66.89,400,66.89,733.11,216.32,733.11,400V502.42a54.87,54.87,0,0,1-109.74,0V415.73c.37-5.22.8-10.42.8-15.73,0-123.61-100.55-224.17-224.16-224.17S175.83,276.39,175.83,400,276.39,624.17,400,624.17c65.92,0,125.1-28.77,166.15-74.22A121.75,121.75,0,0,0,800,502.42V400C800,179.44,620.57,0,400,0Zm0,557.28c-86.74,0-157.29-70.55-157.29-157.28S313.27,242.72,400,242.72c84.94,0,154.2,67.74,157,152a32.56,32.56,0,0,0-.53,5.26v15.74C548.56,495.1,481.41,557.28,400,557.28Z"/></svg>