<svg id="Layer_1" data-name="Layer 1" xmlns="http://www.w3.org/2000/svg" viewBox="0 0 800 800"><defs><style>.cls-1{fill:#fff;}</style></defs><title>BackedUpWhite</title><path class="cls-1" d="M794.08,472.26,704,400.41a15.7,15.7,0,0,0-25.32,9.94l-17.2,113.93a15.71,15.71,0,0,0,21.27,17l25.36-10a155.22,155.22,0,0,1,3.43,32.59c0,85.25-69.35,154.6-154.6,154.6s-154.61-69.35-154.61-154.6,69.36-154.61,154.61-154.61a28.35,28.35,0,0,0,0-56.7c-116.52,0-211.31,94.79-211.31,211.31S440.42,775.2,556.94,775.2s211.31-94.79,211.31-211.31a210.84,210.84,0,0,0-6.84-53.51L790,499.16A15.7,15.7,0,0,0,794.08,472.26Z" style="fill:#fff;" /><path class="cls-1" d="M146.46,658.24c-28.38-7-52.1-15.28-68.59-24.07-16.81-9-20.58-15.33-21.16-16.52V453.06q26.55,13.21,65.42,23.58c52.55,14,118.3,23.08,189.48,26.42a251.88,251.88,0,0,1,22-55.89c-69.88-2.18-135.22-10.1-187.17-22.84-28.38-7-52.1-15.29-68.59-24.08-16.81-9-20.58-15.33-21.16-16.52V213.81Q83.26,227,122.13,237.39c67.49,18,156.74,27.87,251.3,27.87s183.82-9.9,251.31-27.87q38.85-10.35,65.42-23.58v137.8a255,255,0,0,1,56.71,47.8V145c0-39.72-41.09-70.79-122.13-92.37C557.25,34.69,468,24.8,373.43,24.8s-183.81,9.89-251.3,27.86C41.09,74.24,0,105.31,0,145V618.19C0,657.9,41.09,689,122.13,710.55c66.61,17.74,154.41,27.6,247.61,27.85A253.91,253.91,0,0,1,330.19,681C261.61,678.64,197.56,670.77,146.46,658.24ZM77.87,129.05c16.5-8.79,40.22-17.12,68.6-24.08,61.7-15.13,142.31-23.46,227-23.46s165.27,8.33,227,23.46c28.37,7,52.1,15.29,68.59,24.08,15,8,19.65,14,20.86,16-1.21,2-5.81,7.95-20.86,16-16.49,8.8-40.21,17.12-68.59,24.08-61.71,15.13-142.32,23.47-227,23.47s-165.26-8.34-227-23.47c-28.38-7-52.1-15.28-68.59-24.08C62.82,153,58.22,147,57,145,58.22,143,62.82,137.07,77.87,129.05Z" style="fill:#fff;" /></svg>