<?xml version="1.0" encoding="UTF-8"?>
<svg version="1.1" xmlns="http://www.w3.org/2000/svg" width="184" height="184">
<path d="M0 0 C0.98694855 -0.0071553 1.97389709 -0.01431061 2.99075317 -0.02168274 C4.0775235 -0.02437164 5.16429382 -0.02706055 6.28399658 -0.02983093 C7.4255722 -0.03640213 8.56714783 -0.04297333 9.74331665 -0.04974365 C13.5345465 -0.06951166 17.32573669 -0.08114705 21.11700439 -0.09111023 C22.4095237 -0.09518576 23.702043 -0.09926128 25.03372955 -0.10346031 C31.16865853 -0.12218159 37.30356755 -0.13674385 43.43851924 -0.14507228 C50.51680381 -0.15484018 57.59477528 -0.18114664 64.67294955 -0.22157317 C70.8057362 -0.25539601 76.93839143 -0.26721934 83.07126617 -0.27127647 C85.67878594 -0.27615385 88.28630208 -0.28780033 90.89376068 -0.30631447 C94.54232309 -0.33061051 98.19006587 -0.32975775 101.83868408 -0.32279968 C102.91735748 -0.33560974 103.99603088 -0.3484198 105.10739136 -0.36161804 C110.98698913 -0.32071871 114.80313953 -0.02822895 119.32012939 4.14717102 C121.97528072 7.61780341 122.69686759 10.10745724 122.70831299 14.44062805 C122.71776947 15.47164642 122.72722595 16.50266479 122.73696899 17.56492615 C122.72785995 19.21825455 122.72785995 19.21825455 122.71856689 20.90498352 C122.72287216 22.61499039 122.72287216 22.61499039 122.7272644 24.35954285 C122.72930311 26.76515704 122.72378683 29.17078789 122.71124268 31.57637024 C122.69515756 35.26570984 122.71111403 38.95395877 122.73028564 42.64326477 C122.72830376 44.98050678 122.72446122 47.31774811 122.71856689 49.65498352 C122.72463959 50.76125092 122.73071228 51.86751831 122.73696899 53.00730896 C122.72278427 54.54438004 122.72278427 54.54438004 122.70831299 56.11250305 C122.70592621 57.01453461 122.70353943 57.91656616 122.70108032 58.84593201 C122.32012939 61.14717102 122.32012939 61.14717102 121.01852417 62.96965027 C119.32012939 64.14717102 119.32012939 64.14717102 115.75762939 64.02217102 C112.32012939 63.14717102 112.32012939 63.14717102 110.32012939 60.14717102 C109.99012939 44.63717102 109.66012939 29.12717102 109.32012939 13.14717102 C73.02012939 13.14717102 36.72012939 13.14717102 -0.67987061 13.14717102 C-0.67987061 60.99717102 -0.67987061 108.84717102 -0.67987061 158.14717102 C32.48512939 158.64217102 32.48512939 158.64217102 66.32012939 159.14717102 C70.02012939 162.84717102 70.02012939 162.84717102 70.32012939 166.14717102 C69.32987847 168.81323121 68.89233409 169.86106867 66.32012939 171.14717102 C64.14164949 171.25963088 61.95969084 171.30654286 59.77838135 171.32417297 C59.1065834 171.33074417 58.43478546 171.33731537 57.74263 171.34408569 C55.51455576 171.36382901 53.28654907 171.3754858 51.05841064 171.38545227 C50.29670248 171.3895278 49.53499432 171.39360332 48.75020409 171.39780235 C44.71565395 171.41867123 40.68113787 171.43296726 36.64654541 171.44233704 C32.4881292 171.45338076 28.33025117 171.48775411 24.17202473 171.52750874 C20.96771789 171.55371944 17.76353813 171.56203297 14.55913353 171.56561852 C13.02699349 171.57047595 11.49485881 171.58206595 9.96282387 171.60065651 C-5.52375914 171.7768409 -5.52375914 171.7768409 -10.67987061 167.14717102 C-15.40267469 159.95228365 -15.24480703 153.25608966 -15.18157959 144.85591125 C-15.18536786 143.41782605 -15.19087208 141.97974451 -15.19795227 140.54167175 C-15.21185689 136.65527909 -15.20077319 132.76933161 -15.18424106 128.8829639 C-15.17033979 124.80632137 -15.1768563 120.72970336 -15.18037415 116.65304565 C-15.18307196 109.80962491 -15.16963661 102.96638 -15.14642334 96.1230011 C-15.11980562 88.2214875 -15.11807146 80.32026756 -15.1298117 72.41872448 C-15.14060582 64.80263111 -15.1343903 57.18664353 -15.12025642 49.57055855 C-15.11451185 46.33586679 -15.11456721 43.10125283 -15.11932182 39.86655998 C-15.12410839 36.05544304 -15.11392088 32.24464607 -15.09236717 28.43358994 C-15.08682231 27.03844723 -15.08631279 25.64327363 -15.09132004 24.24812889 C-15.13294297 10.98357073 -15.13294297 10.98357073 -11.67987061 5.14717102 C-7.75026438 1.50509696 -5.29306114 0.02628571 0 0 Z " fill="#000000" transform="translate(29.67987060546875,0.8528289794921875)"/>
<path d="M0 0 C6.875 0.875 6.875 0.875 8 2 C13.32673036 2.33856828 13.32673036 2.33856828 18 0 C21.5 0.0625 21.5 0.0625 25 1 C26.92171842 3.41764576 28 4.88467214 28 8 C29.13888672 8.03867188 29.13888672 8.03867188 30.30078125 8.078125 C31.29464844 8.13484375 32.28851563 8.1915625 33.3125 8.25 C34.29863281 8.29640625 35.28476563 8.3428125 36.30078125 8.390625 C39 9 39 9 40.84765625 10.859375 C42.37062065 13.68847498 42.13238682 15.82271621 42 19 C41.9751247 21.23966377 41.9751247 21.23966377 43 23 C44.98248715 23.71706982 46.98415349 24.38290413 49 25 C51 28 51 28 50.75 30.5 C50 33 50 33 48 36 C48.29704962 40.15869464 48.66938148 42.50407222 51 46 C51.0625 48.375 51.0625 48.375 50 51 C48.40234375 52.2578125 48.40234375 52.2578125 46.5 53.5 C43.55490899 55.35906264 43.55490899 55.35906264 42.125 58.5 C42.08375 59.325 42.0425 60.15 42 61 C41.6875 63.625 41.6875 63.625 41 66 C40.00432007 66.53947266 40.00432007 66.53947266 38.98852539 67.08984375 C36.5769986 69.0054073 36.5769986 69.0054073 36.50170898 72.96484375 C36.4806789 74.62226348 36.48013911 76.28002365 36.49609375 77.9375 C36.48667252 78.81398193 36.47725128 79.69046387 36.46754456 80.59350586 C36.43883883 83.39590788 36.43581867 86.19746261 36.4375 89 C36.43389731 91.80241373 36.42441923 94.60420993 36.39674377 97.40649414 C36.37990231 99.15039224 36.37712119 100.89449408 36.38975525 102.63842773 C36.33813127 108.5701626 36.33813127 108.5701626 34.64833069 110.71826172 C33 112 33 112 30.2578125 112.47265625 C25.93546279 111.84555276 23.3602042 109.95958863 19.875 107.4375 C15.80246397 104.22881972 15.80246397 104.22881972 10.96484375 102.96484375 C6.90079295 105.10594407 3.17262946 107.79315997 -0.61328125 110.3828125 C-4.68221078 112.32576155 -6.7075015 112.24435401 -11 111 C-13.60009244 107.09986133 -13.27888213 103.80392548 -13.2734375 99.28125 C-13.29372076 97.5273373 -13.31457143 95.77343109 -13.3359375 94.01953125 C-13.35857478 91.25433876 -13.37502237 88.48940212 -13.38085938 85.72412109 C-13.39035903 83.05519402 -13.4240981 80.38741985 -13.4609375 77.71875 C-13.45336929 76.47647644 -13.45336929 76.47647644 -13.44564819 75.20910645 C-13.4457968 72.6079865 -13.4457968 72.6079865 -14 69 C-15.87175237 67.04889644 -15.87175237 67.04889644 -18 66 C-18.50390625 63.84375 -18.50390625 63.84375 -18.5625 61.5 C-18.62852824 58.12302013 -18.62852824 58.12302013 -20.359375 55.3359375 C-21.75235141 54.20165671 -23.21424147 53.15285479 -24.6875 52.125 C-27 50 -27 50 -27.5 47.5625 C-27 45 -27 45 -25.4375 42.5 C-23.74711934 40.09917709 -23.74711934 40.09917709 -24.1875 37.375 C-24.96244996 34.7795194 -24.96244996 34.7795194 -27 32 C-27.0625 29.125 -27.0625 29.125 -26 26 C-24.40234375 24.81640625 -24.40234375 24.81640625 -22.5 23.6875 C-20.08426386 22.18011993 -19.15416851 21.58854869 -18.421875 18.79296875 C-18.22019126 16.39844311 -18.22019126 16.39844311 -18.265625 14.0859375 C-18 12 -18 12 -16.75390625 10.23828125 C-14.55983459 8.68923734 -13.34507482 8.76201067 -10.6875 8.8125 C-7.56616823 8.59829096 -6.37126792 8.35466651 -4.078125 6.1640625 C-2.60133086 4.15984188 -1.25003705 2.15202458 0 0 Z M-6.3046875 22.06640625 C-11.68805387 28.20642088 -12.65962903 33.74415578 -12.38671875 41.875 C-11.38811739 49.94450591 -7.03750309 54.48346505 -1.0625 59.6875 C4.28435909 63.0900467 9.81874987 63.77514069 16 63 C23.73333342 61.13170232 28.54811057 57.54180419 33 51 C36.547692 44.82014942 37.02058146 38.7286941 35.53125 31.828125 C33.37517464 25.20589355 29.29822663 20.0090279 23.1875 16.625 C12.53211193 11.95442193 2.03833671 13.94293531 -6.3046875 22.06640625 Z M4 77 C2.68 77 1.36 77 0 77 C0 82.61 0 88.22 0 94 C1.340625 93.154375 2.68125 92.30875 4.0625 91.4375 C7.36524612 89.61529524 8.82542071 89.00295897 12.6875 88.9375 C16.32051442 90.10280651 18.91807141 91.77814451 22 94 C22.66 94 23.32 94 24 94 C24 88.39 24 82.78 24 77 C21.69 76.67 19.38 76.34 17 76 C16.34 75.34 15.68 74.68 15 74 C10.2352154 73.47057949 7.96469772 74.49598039 4 77 Z " fill="#000000" transform="translate(122,72)"/>
<path d="M0 0 C0.85393341 -0.00525696 1.70786682 -0.01051392 2.587677 -0.01593018 C5.41410542 -0.0291483 8.23997197 -0.02038573 11.06640625 -0.01025391 C13.02791451 -0.01227412 14.98942205 -0.01518512 16.95092773 -0.01895142 C21.06338649 -0.02337723 25.17564987 -0.01693542 29.28808594 -0.00292969 C34.56442312 0.0141623 39.84030254 0.0043225 45.11662292 -0.01364708 C49.16747498 -0.02447796 53.21821818 -0.02104177 57.26907349 -0.0132637 C59.21477309 -0.01125977 61.16048252 -0.01372772 63.10617065 -0.02070236 C65.82365165 -0.02830538 68.54038715 -0.01672893 71.2578125 0 C72.06517853 -0.00607269 72.87254456 -0.01214539 73.70437622 -0.0184021 C79.11210969 0.04339805 79.11210969 0.04339805 81.63256836 1.72494507 C83.19007854 4.3249776 82.93695214 6.43094301 82.62890625 9.38818359 C80.62890625 12.38818359 80.62890625 12.38818359 77.62890625 13.38818359 C74.9576266 13.48957538 72.31236247 13.53502287 69.64086914 13.53344727 C68.42089989 13.53848518 68.42089989 13.53848518 67.17628479 13.54362488 C64.48469521 13.55313266 61.79316784 13.55507785 59.1015625 13.55615234 C57.2321317 13.55936484 55.36270114 13.56272891 53.49327087 13.5662384 C49.57338884 13.57222909 45.65352886 13.57407834 41.73364258 13.57348633 C36.70860859 13.57338466 31.68371576 13.58704172 26.65871525 13.60425854 C22.79743296 13.61537149 18.93618488 13.61740576 15.07488823 13.6168766 C13.2221166 13.6180576 11.36934412 13.62248605 9.51658821 13.63020897 C6.92640384 13.63999541 4.33652711 13.63713625 1.74633789 13.63110352 C0.97997009 13.63672302 0.21360229 13.64234253 -0.57598877 13.64813232 C-4.29673211 13.62608759 -7.27674438 13.59642065 -10.37109375 11.38818359 C-11.77044388 8.58948333 -11.6237478 6.48319567 -11.37109375 3.38818359 C-8.85568744 -0.8373432 -4.36516943 -0.0328331 0 0 Z " fill="#000000" transform="translate(48.37109375,28.61181640625)"/>
<path d="M0 0 C1.1280455 -0.00960754 2.256091 -0.01921509 3.4183197 -0.02911377 C5.24647972 -0.03548859 5.24647972 -0.03548859 7.11157227 -0.04199219 C8.9887368 -0.0505423 8.9887368 -0.0505423 10.90382385 -0.05926514 C13.5526188 -0.06871749 16.20130036 -0.07561342 18.85009766 -0.07910156 C22.24082668 -0.08458982 25.63115485 -0.10862992 29.02175808 -0.13707352 C32.25999911 -0.16019445 35.49826024 -0.16214876 38.73657227 -0.16699219 C40.56169594 -0.18551239 40.56169594 -0.18551239 42.4236908 -0.20440674 C43.55488846 -0.20140564 44.68608612 -0.19840454 45.8515625 -0.1953125 C46.84623032 -0.19895813 47.84089813 -0.20260376 48.8657074 -0.20635986 C51.91318014 0.22031502 53.26427825 1.07531852 55.49047852 3.16113281 C56.75233096 5.86510233 56.54949806 6.96591431 55.67797852 9.84863281 C54.49047852 12.16113281 54.49047852 12.16113281 52.49047852 13.16113281 C50.59695571 13.2675834 48.69969542 13.3099613 46.80322266 13.32226562 C45.01610619 13.33667694 45.01610619 13.33667694 43.19288635 13.35137939 C41.25384682 13.35775421 41.25384682 13.35775421 39.27563477 13.36425781 C37.94046526 13.37000914 36.60529579 13.37576688 35.27012634 13.38153076 C32.46995661 13.39203865 29.66981558 13.39788289 26.86962891 13.40136719 C23.28036479 13.40685583 19.69147929 13.43089204 16.10233402 13.45933914 C13.34426257 13.47795495 10.58628259 13.48317051 7.82815361 13.48470306 C5.86106355 13.48920533 3.89402242 13.50785559 1.92701721 13.52667236 C0.73245407 13.52367126 -0.46210907 13.52067017 -1.69287109 13.51757812 C-3.27267006 13.52304657 -3.27267006 13.52304657 -4.88438416 13.52862549 C-7.50952148 13.16113281 -7.50952148 13.16113281 -9.35353088 11.82635498 C-11.13614493 9.25847213 -10.82597722 7.19910787 -10.50952148 4.16113281 C-7.57866837 -0.23514686 -4.95595822 0.03404794 0 0 Z " fill="#000000" transform="translate(47.509521484375,55.8388671875)"/>
</svg>
