<svg id="Layer_1" data-name="Layer 1" xmlns="http://www.w3.org/2000/svg" viewBox="0 0 800 800"><title>ChangeName</title><path d="M400,392.68c-108.26,0-196.34-88.08-196.34-196.34S291.74,0,400,0,596.34,88.08,596.34,196.34,508.26,392.68,400,392.68Zm0-338.42c-78.35,0-142.09,63.73-142.09,142.08S321.65,338.43,400,338.43s142.09-63.74,142.09-142.09S478.35,54.26,400,54.26Z"/><path d="M400,800c-134.38,0-291.29-37.53-291.29-143.3C108.71,541,262.23,460.35,400,460.35S691.29,541,691.29,656.7C691.29,762.47,534.38,800,400,800Zm0-285.39c-119.62,0-237,70.38-237,142.09,0,64.87,145.39,89,237,89s237-24.17,237-89C637,585,519.62,514.61,400,514.61Z"/></svg>