<svg id="Layer_1" data-name="Layer 1" xmlns="http://www.w3.org/2000/svg" viewBox="0 0 800 800"><defs><style>.cls-1{fill:#fff;}</style></defs><title>ChangePasswordWhite</title><path class="cls-1" d="M542,3.25c-142.27,0-258,116.21-258,259.05a259.36,259.36,0,0,0,9.65,70L0,627.17V800H174.61L296.74,677.38l-43.41-45.26,36.29-36.44,44.75,43.91L464.15,509.28A256,256,0,0,0,542,521.36c142.26,0,258-116.21,258-259.06S684.26,3.25,542,3.25Zm0,455.29a193.59,193.59,0,0,1-92.35-23.33l-53.43,53.44-62.36,62.61-34.87-35-44.24,44.42-41.17,40.78.28.27-39.64,39.81,34.87,35-60.4,60.64H62.56v-84L320.23,394.48c.07.13.15.25.22.37l46.11-46.11a195.72,195.72,0,0,1-20-86.44c0-108.2,87.67-196.23,195.44-196.23s195.44,88,195.44,196.23S649.76,458.54,542,458.54Z" style="fill:#fff;" /><circle class="cls-1" cx="593.19" cy="210.8" r="69.15" style="fill:#fff;" /></svg>