<svg id="Layer_1" data-name="Layer 1" xmlns="http://www.w3.org/2000/svg" viewBox="0 0 2000 2000"><defs><style>.cls-1{fill:orange;}</style></defs><title>ClipboardOrange</title><path class="cls-1" d="M1015.75,1738.16H329.05A30.16,30.16,0,0,1,298.93,1708V379.31a30.15,30.15,0,0,1,30.12-30.12H501.4v78.3c0,75.66,61.56,137.22,137.23,137.22h545.48c75.66,0,137.22-61.56,137.22-137.22v-78.3h172.35a30.16,30.16,0,0,1,30.13,30.12V640.43a66.83,66.83,0,1,0,133.66,0V379.31c0-90.3-73.47-163.78-163.79-163.78H1321.33v-78.3C1321.33,61.57,1259.77,0,1184.11,0H638.63C563,0,501.4,61.57,501.4,137.23v78.3H329.05c-90.31,0-163.78,73.48-163.78,163.78V1708c0,90.32,73.47,163.79,163.78,163.79h686.7a66.83,66.83,0,0,0,0-133.66ZM635.06,137.23a3.57,3.57,0,0,1,3.57-3.57h545.48a3.56,3.56,0,0,1,3.56,3.57V427.49a3.56,3.56,0,0,1-3.56,3.56H638.63a3.56,3.56,0,0,1-3.57-3.56Z" style="fill:orange;" /><path class="cls-1" d="M1834.73,1203.42c0-209.79-170.68-380.48-380.46-380.48S1073.8,993.63,1073.8,1203.42c0,106,43.65,202,113.87,271.11v456.83a68.63,68.63,0,0,0,106,57.57l160.59-104.26,160.79,104.4a68.65,68.65,0,0,0,105.8-57.71V1474.53C1791.08,1405.46,1834.73,1309.46,1834.73,1203.42ZM1454.27,956.6c136.09,0,246.8,110.72,246.8,246.82s-110.71,246.8-246.8,246.8-246.81-110.72-246.81-246.8S1318.17,956.6,1454.27,956.6Zm132.93,855-94.07-61.08a71.34,71.34,0,0,0-77.67,0l-94.13,61.11V1559.87a380,380,0,0,0,265.87,0Z" style="fill:orange;" /></svg>