<svg id="Layer_1" data-name="Layer 1" xmlns="http://www.w3.org/2000/svg" viewBox="0 0 2000 2000"><defs><style>.cls-1{fill:#3598db;}</style></defs><title>ClockBlue</title><path class="cls-1" d="M1000,0C448.6,0,0,448.6,0,1000S448.6,2000,1000,2000s1000-448.6,1000-1000S1551.4,0,1000,0Zm0,1855c-471.45,0-855-383.55-855-855s383.55-855,855-855,855,383.56,855,855S1471.45,1855,1000,1855Z" style="fill:#3598db;" /><path class="cls-1" d="M1366.32,1152.48,1072.5,960.75V449a72.5,72.5,0,1,0-145,0V999a74.28,74.28,0,0,0,33.72,62.26l325.86,212.64a72.49,72.49,0,1,0,79.24-121.42Z" style="fill:#3598db;" /></svg>