<svg id="Layer_1" data-name="Layer 1" xmlns="http://www.w3.org/2000/svg" viewBox="0 0 2000 2000"><title>Contact</title><path d="M1638.82,617.78A81.68,81.68,0,0,0,1523,629.11c-122.73,150.61-373.26,389.54-523,389.54-149.38,0-400.09-238.95-523-389.54a81.69,81.69,0,0,0-115.82-11.33C326.1,647,321.08,699.37,350,734.82c37.55,46.07,374.77,450.12,650,450.12s612.48-404.05,650-450.12C1678.91,699.37,1673.89,647,1638.82,617.78Z"/><path d="M1785,232.28C1554-15.89,1056.74,0,1000,0,944.47,0,446-15.9,215,232.28-13.76,478,0,946.78,0,1000c-.41,54.42-13.76,522,215,767.72C411.88,1979.25,802.89,2000,948.62,2000H1000c56,.4,554,15.91,785-232.27,228.74-245.72,215-714,215-767.72S2013.75,478,1785,232.28ZM1665.16,1653.79c-155.42,167-528.64,179-660.79,179l-4.37,0h-4.31c-129.82,0-505.4-12-660.86-179-189.33-203.4-169.24-645.11-169-649.47v-8.55c-.21-4.44-20.3-446.15,169-649.54,155.43-167,530.8-181.38,660.8-180.21l4.37.06,4.37-.06c130.31,1.28,504.82,12.65,660.79,180.21,188.68,202.7,169.48,642,169.48,649.47l.07,4.31-.07,4.3C1834.64,1126.31,1822.85,1484.37,1665.16,1653.79Z"/></svg>