<svg id="Layer_1" data-name="Layer 1" xmlns="http://www.w3.org/2000/svg" viewBox="0 0 2000 2000"><title>Crown</title><path d="M1950.22,611.33a81.34,81.34,0,0,0-93.8,22c-26.73,31.16-97.71,114-289.26,118.6-1.72,0-3.43.06-5.15.06-205.06,0-388.43-296-483.68-551.37A82.9,82.9,0,0,0,1000,146.29h0a82.91,82.91,0,0,0-78.31,54.38C825.62,458.14,640.25,756.73,432.83,752c-191.52-4.63-262.53-87.44-289.25-118.6A81.6,81.6,0,0,0,.36,694c22.7,243.41,93.85,825.83,263.91,976.69,193.82,171.93,680.09,182.35,734.9,183h1.65c54.81-.63,541.09-11,734.91-183,170.06-150.87,241.21-733.29,263.92-976.74A81.33,81.33,0,0,0,1950.22,611.33ZM1639,1561.64c-129.67,115-504.38,144.52-639,146.23-134.55-1.64-509-31-638.91-146.23-86.83-77-158.53-399.79-198.91-727.81C224.1,867,310.49,894.9,429.3,897.78,709.39,905,902.48,596.51,1000,389.67c96.45,204.59,286,508.26,561.59,508.22,3,0,6.07,0,9.1-.11,118.82-2.88,205.21-30.79,267.16-63.95C1797.47,1161.85,1725.77,1484.61,1639,1561.64Z"/><path d="M1343.62,1227.08c-102.76,102.77-584.48,102.77-687.24,0A72.92,72.92,0,1,0,553.26,1330.2c111.22,111.22,370.06,119.86,446.74,119.86s335.52-8.64,446.75-119.86a72.92,72.92,0,1,0-103.13-103.12Z"/></svg>