<?xml version="1.0" encoding="UTF-8"?>
<!DOCTYPE svg PUBLIC "-//W3C//DTD SVG 1.1//EN" "http://www.w3.org/Graphics/SVG/1.1/DTD/svg11.dtd">
<svg xmlns="http://www.w3.org/2000/svg" version="1.1" width="512px" height="512px" style="shape-rendering:geometricPrecision; text-rendering:geometricPrecision; image-rendering:optimizeQuality; fill-rule:evenodd; clip-rule:evenodd" xmlns:xlink="http://www.w3.org/1999/xlink">
<g><path style="opacity:0.998" fill="#00723a" d="M 156.5,-0.5 C 218.167,-0.5 279.833,-0.5 341.5,-0.5C 341.333,46.5012 341.5,93.5012 342,140.5C 343.859,146.36 347.693,150.193 353.5,152C 400.499,152.5 447.499,152.667 494.5,152.5C 495.167,201.666 495.5,250.999 495.5,300.5C 495.644,353.186 495.144,405.853 494,458.5C 486.989,486.677 469.489,504.344 441.5,511.5C 346.5,511.5 251.5,511.5 156.5,511.5C 126.162,503.9 108.329,484.566 103,453.5C 102.5,427.502 102.333,401.502 102.5,375.5C 197.501,375.667 292.501,375.5 387.5,375C 392,373.167 395.167,370 397,365.5C 397.667,319.5 397.667,273.5 397,227.5C 395.073,222.572 391.573,219.406 386.5,218C 291.834,217.5 197.167,217.333 102.5,217.5C 102.333,164.166 102.5,110.832 103,57.5C 108.329,26.4336 126.162,7.10028 156.5,-0.5 Z"/></g>
<g><path style="opacity:1" fill="#005c2f" d="M 341.5,-0.5 C 341.833,-0.5 342.167,-0.5 342.5,-0.5C 393.167,50.5 443.833,101.5 494.5,152.5C 447.499,152.667 400.499,152.5 353.5,152C 347.693,150.193 343.859,146.36 342,140.5C 341.5,93.5012 341.333,46.5012 341.5,-0.5 Z"/></g>
<g><path style="opacity:1" fill="#015c2f" d="M 102.5,217.5 C 197.167,217.333 291.834,217.5 386.5,218C 391.573,219.406 395.073,222.572 397,227.5C 397.667,273.5 397.667,319.5 397,365.5C 395.167,370 392,373.167 387.5,375C 292.501,375.5 197.501,375.667 102.5,375.5C 76.8312,375.667 51.1645,375.5 25.5,375C 19.5129,372.538 16.3463,368.038 16,361.5C 15.3333,317.833 15.3333,274.167 16,230.5C 16.6413,224.373 19.8079,220.206 25.5,218C 51.1645,217.5 76.8312,217.333 102.5,217.5 Z"/></g>
<g><path style="opacity:1" fill="#fbfdfc" d="M 111.5,244.5 C 132.744,241.365 147.244,249.698 155,269.5C 155.667,273.833 155.667,278.167 155,282.5C 153.471,285.516 150.971,286.849 147.5,286.5C 144.675,286.881 142.509,285.881 141,283.5C 140.245,267.072 131.745,259.572 115.5,261C 109.608,263.892 105.441,268.392 103,274.5C 102.333,288.5 102.333,302.5 103,316.5C 108.527,332.565 118.694,336.399 133.5,328C 138.026,323.092 140.193,317.259 140,310.5C 142.955,306.723 146.788,305.557 151.5,307C 153.333,307.5 154.5,308.667 155,310.5C 156.387,330.226 147.554,342.726 128.5,348C 107.283,350.645 93.4496,341.812 87,321.5C 86.3333,304.5 86.3333,287.5 87,270.5C 90.9515,257.719 99.1182,249.052 111.5,244.5 Z"/></g>
<g><path style="opacity:1" fill="#fbfcfc" d="M 195.5,243.5 C 206.113,242.616 216.446,243.782 226.5,247C 236.738,252.976 240.905,261.809 239,273.5C 234.748,279.653 230.081,279.986 225,274.5C 224,271.167 223,267.833 222,264.5C 220.681,262.513 218.848,261.346 216.5,261C 209.833,260.333 203.167,260.333 196.5,261C 185.298,267.102 183.631,275.102 191.5,285C 194.363,286.399 197.363,287.399 200.5,288C 217.775,285.718 230.275,292.218 238,307.5C 242.995,327.684 235.829,341.184 216.5,348C 207.167,348.667 197.833,348.667 188.5,348C 173.348,341.712 168.348,331.045 173.5,316C 177.714,313.731 181.547,314.231 185,317.5C 185.144,323.959 187.977,328.793 193.5,332C 200.914,332.89 208.247,332.557 215.5,331C 221.85,327.292 224.35,321.792 223,314.5C 221.167,310 218,306.833 213.5,305C 199.816,306.374 187.649,302.874 177,294.5C 166.509,277.47 168.676,262.304 183.5,249C 187.49,246.858 191.49,245.025 195.5,243.5 Z"/></g>
<g><path style="opacity:1" fill="#fbfcfb" d="M 256.5,244.5 C 262.489,243.065 266.655,245.065 269,250.5C 276,271.5 283,292.5 290,313.5C 297.534,291.897 304.868,270.23 312,248.5C 317,243.167 322,243.167 327,248.5C 327.667,250.833 327.667,253.167 327,255.5C 317,285.5 307,315.5 297,345.5C 294.005,348.265 290.505,349.098 286.5,348C 284.185,346.891 282.685,345.057 282,342.5C 272.128,313.218 262.462,283.885 253,254.5C 252.333,252.5 252.333,250.5 253,248.5C 254.376,247.295 255.542,245.962 256.5,244.5 Z"/></g>
</svg>
