<svg id="Layer_1" data-name="Layer 1" xmlns="http://www.w3.org/2000/svg" viewBox="0 0 2000 2000"><defs><style>.cls-1{fill:#fff;}</style></defs><title>DeleteAccountWhite</title><path class="cls-1" d="M1756.46,407.42H1512.35v-179C1512.35,102.46,1409.89,0,1283.94,0H712.52C586.59,0,484.13,102.46,484.13,228.4v179H243.54a89.07,89.07,0,1,0,0,178.13h35.72a265.4,265.4,0,0,0-15.59,89.06v1058.2c0,147.32,119.87,267.19,267.2,267.19h938.26c147.33,0,267.2-119.87,267.2-267.19V674.61a265.4,265.4,0,0,0-15.59-89.06h35.72a89.07,89.07,0,1,0,0-178.13ZM712.52,178.13h571.42a50.34,50.34,0,0,1,50.28,50.27v179h-672v-179A50.32,50.32,0,0,1,712.52,178.13ZM1558.2,674.61v1058.2a89.16,89.16,0,0,1-89.07,89.06H530.87a89.16,89.16,0,0,1-89.07-89.06V674.61a89.16,89.16,0,0,1,89.07-89.06h24.74a89.23,89.23,0,0,0,35.17,0H1405.7a89.23,89.23,0,0,0,35.17,0h28.26A89.16,89.16,0,0,1,1558.2,674.61Z" style="fill:#fff;" /><path class="cls-1" d="M779.53,807.76a89.07,89.07,0,0,0-89.06,89.06v620.82a89.07,89.07,0,0,0,178.13,0V896.82A89.07,89.07,0,0,0,779.53,807.76Z" style="fill:#fff;" /><path class="cls-1" d="M1216.93,807.76a89.07,89.07,0,0,0-89.07,89.06v620.82a89.07,89.07,0,0,0,178.13,0V896.82A89.07,89.07,0,0,0,1216.93,807.76Z" style="fill:#fff;" /></svg>