<svg id="Layer_1" data-name="Layer 1" xmlns="http://www.w3.org/2000/svg" viewBox="0 0 2000 2000"><title>DictionaryOff</title><path d="M1844.85,1998.58c84.78,0,153.75-77.48,153.75-172.72v-1425c0-95.23-69-172.71-153.75-172.71H1663.59V178.79c0-59-26-113.91-69.48-146.91C1549.87-1.66,1494-7.88,1444.71,15.25l-402,189.32c-10.93,5.09-21.7,12.1-33,21.46l-9.7,8-9.69-8c-11.24-9.31-22-16.27-32.75-21.3L555.21,15.21C506-7.93,450.16-1.69,405.86,31.9c-43.5,33-69.47,87.91-69.47,146.89V228.1H155.12C70.36,228.1,1.4,305.58,1.4,400.81V1825.86c0,95.24,69,172.72,153.72,172.72H759.41c66.51,0,132.07-25,184.62-70.46l1.3-1.1A319.73,319.73,0,0,0,988,1881.63l12-15.41,12,15.41a318.51,318.51,0,0,0,42.94,45.62l.8.67.09.08c52.69,45.56,118.25,70.58,184.76,70.58ZM155.12,1862.15c-20.15,0-37.17-16.62-37.17-36.29v-1425c0-19.67,17-36.28,37.17-36.28H336.39V1575.24c0,71.46,38,135.67,96.88,163.56L695,1862.15Zm782.71-142.88-.61,2.1A206.24,206.24,0,0,1,896,1797.51l-7.54,8.74-411.66-194a41.34,41.34,0,0,1-23.82-37V178.79a39.86,39.86,0,0,1,16.22-32.41,42,42,0,0,1,25-8.6,41.51,41.51,0,0,1,17.66,4L914.44,331.42A41.06,41.06,0,0,1,937.83,368Zm725.76-144V364.53h181.26c20.16,0,37.2,16.61,37.2,36.28V1825.86c0,19.67-17,36.29-37.2,36.29H1305l261.93-123.45C1625.63,1710.87,1663.59,1646.7,1663.59,1575.24ZM1104,1797.51a206.54,206.54,0,0,1-41.25-76.12l-.61-2.1V368a40.76,40.76,0,0,1,23.72-36.7L1488,141.87a40.87,40.87,0,0,1,42.81,4.52,39.84,39.84,0,0,1,16.19,32.4V1575.24a41.16,41.16,0,0,1-23.67,37l-411.78,194.08Z"/></svg>