<svg id="Layer_1" data-name="Layer 1" xmlns="http://www.w3.org/2000/svg" viewBox="0 0 2000 2000"><defs><style>.cls-1{fill:#fff;}</style></defs><title>DictionaryOnWhite</title><path class="cls-1" d="M1846.72,228.5H1665.14V179.11c0-59.1-26-114.11-69.6-147.17-44.32-33.6-100.27-39.83-149.67-16.66l-402.7,189.66c-11,5.09-21.75,12.11-33.07,21.49l-9.72,8-9.71-8c-11.26-9.32-22-16.3-32.8-21.34L554.8,15.24C505.48-7.94,449.55-1.7,405.18,32,361.6,65,335.58,120,335.58,179.11V228.5H154c-84.91,0-154,77.62-154,173V1829.1c0,95.41,69.08,173,154,173H759.36c66.62,0,132.3-25.07,184.94-70.58l1.3-1.11A321.19,321.19,0,0,0,988.36,1885l12-15.44,12,15.44a320.06,320.06,0,0,0,43,45.66l.86.72.08.07c52.78,45.64,118.46,70.71,185.09,70.71h605.33c84.93,0,154-77.62,154-173V401.52C2000.74,306.12,1931.65,228.5,1846.72,228.5ZM154,1865.46c-20.18,0-37.23-16.65-37.23-36.36V401.52c0-19.7,17-36.34,37.23-36.34H335.58V1578c0,71.6,38.09,135.91,97.05,163.86l262.23,123.57Zm784.1-143.14-.61,2.1a206.53,206.53,0,0,1-41.33,76.28l-7.56,8.76L476.2,1615.12A41.41,41.41,0,0,1,452.34,1578V179.11a39.92,39.92,0,0,1,16.25-32.47A42.1,42.1,0,0,1,493.68,138a41.59,41.59,0,0,1,17.69,4L914.66,332a41.12,41.12,0,0,1,23.43,36.6Zm174.06,87.16-7.56-8.78a206.76,206.76,0,0,1-41.32-76.26l-.62-2.1V368.61a40.84,40.84,0,0,1,23.76-36.76l402.86-189.74a41,41,0,0,1,42.89,4.54,39.93,39.93,0,0,1,16.22,32.46V1578a41.24,41.24,0,0,1-23.71,37ZM1884,1829.1c0,19.71-17.06,36.36-37.26,36.36H1305.89l262.39-123.67c58.83-27.88,96.86-92.17,96.86-163.76V365.18h181.58c20.2,0,37.26,16.64,37.26,36.34Z" style="fill:#fff;" /><path class="cls-1" d="M842.3,765.66,608.55,648.32a67.33,67.33,0,1,0-60.41,120.34L781.88,886A67.33,67.33,0,0,0,842.3,765.66Z" style="fill:#fff;" /><path class="cls-1" d="M842.3,1178.88,608.55,1061.53a67,67,0,0,0-30.14-7.19,67.67,67.67,0,0,0-21.25,3.45,67.34,67.34,0,0,0-9,124.09l233.74,117.34a67.33,67.33,0,0,0,60.42-120.34Z" style="fill:#fff;" /><path class="cls-1" d="M1443.94,644.58a67,67,0,0,0-51.4,3.74L1158.79,765.66A67.33,67.33,0,0,0,1219.21,886L1453,768.66a67.33,67.33,0,0,0-9-124.08Z" style="fill:#fff;" /><path class="cls-1" d="M1443.94,1057.79a67.78,67.78,0,0,0-21.26-3.45,67,67,0,0,0-30.14,7.19l-233.75,117.35a67.33,67.33,0,1,0,60.42,120.34L1453,1181.88a67.34,67.34,0,0,0-9-124.09Z" style="fill:#fff;" /></svg>