<?xml version="1.0" encoding="UTF-8"?>
<!DOCTYPE svg PUBLIC "-//W3C//DTD SVG 1.1//EN" "http://www.w3.org/Graphics/SVG/1.1/DTD/svg11.dtd">
<svg xmlns="http://www.w3.org/2000/svg" version="1.1" width="512px" height="512px" style="shape-rendering:geometricPrecision; text-rendering:geometricPrecision; image-rendering:optimizeQuality; fill-rule:evenodd; clip-rule:evenodd" xmlns:xlink="http://www.w3.org/1999/xlink">
<g><path style="opacity:0.997" fill="#4db2f1" d="M 102.5,-0.5 C 168.833,-0.5 235.167,-0.5 301.5,-0.5C 301.172,48.5422 301.505,97.5422 302.5,146.5C 361.332,147.831 419.999,147.831 478.5,146.5C 479.5,258.001 480,369.668 480,481.5C 477.732,496.926 469.232,506.926 454.5,511.5C 337.167,511.5 219.833,511.5 102.5,511.5C 90.2862,507.788 82.1196,499.788 78,487.5C 76.5581,466.545 76.0581,445.545 76.5,424.5C 179.501,424.667 282.501,424.5 385.5,424C 391.026,422.474 394.526,418.974 396,413.5C 396.667,361.167 396.667,308.833 396,256.5C 394.141,251.974 390.974,248.808 386.5,247C 282.999,246.833 179.666,246.333 76.5,245.5C 76.3333,173.166 76.5,100.833 77,28.5C 79.7259,13.6154 88.2259,3.94875 102.5,-0.5 Z"/></g>
<g><path style="opacity:1" fill="#0077cc" d="M 301.5,-0.5 C 302.167,-0.5 302.833,-0.5 303.5,-0.5C 361.516,48.8465 419.849,97.8465 478.5,146.5C 419.999,147.831 361.332,147.831 302.5,146.5C 301.505,97.5422 301.172,48.5422 301.5,-0.5 Z"/></g>
<g><path style="opacity:0.999" fill="#0377cc" d="M 76.5,245.5 C 179.666,246.333 282.999,246.833 386.5,247C 390.974,248.808 394.141,251.974 396,256.5C 396.667,308.833 396.667,361.167 396,413.5C 394.526,418.974 391.026,422.474 385.5,424C 282.501,424.5 179.501,424.667 76.5,424.5C 64.4954,424.667 52.4954,424.5 40.5,424C 34.6625,421.833 31.4958,417.666 31,411.5C 30.3333,360.5 30.3333,309.5 31,258.5C 31.6361,251.868 35.1361,247.702 41.5,246C 53.1619,245.5 64.8286,245.333 76.5,245.5 Z"/></g>
<g><path style="opacity:1" fill="#fcfdfe" d="M 158.5,297.5 C 196.882,294.921 212.715,312.587 206,350.5C 199.839,367.347 187.672,375.347 169.5,374.5C 143.266,374.432 130.266,361.266 130.5,335C 130.604,315.42 139.937,302.92 158.5,297.5 Z"/></g>
<g><path style="opacity:1" fill="#fcfdfe" d="M 244.5,297.5 C 254.766,296.678 264.766,297.844 274.5,301C 281.743,305.303 286.743,311.47 289.5,319.5C 283.469,321.55 277.303,323.217 271,324.5C 268.74,322.193 266.573,319.693 264.5,317C 248.226,312.238 240.226,318.571 240.5,336C 239.602,345.199 242.935,352.199 250.5,357C 261.404,358.929 267.737,354.429 269.5,343.5C 276.459,345.323 283.459,346.99 290.5,348.5C 284.342,369.429 270.342,377.929 248.5,374C 230.598,371.097 220.431,360.597 218,342.5C 214.724,320.021 223.557,305.021 244.5,297.5 Z"/></g>
<g><path style="opacity:1" fill="#fcfdfe" d="M 52.5,298.5 C 68.2024,298.138 83.8691,298.638 99.5,300C 114.81,306.771 121.81,318.604 120.5,335.5C 122.058,357.427 112.058,369.927 90.5,373C 77.8377,373.5 65.1711,373.667 52.5,373.5C 52.5,348.5 52.5,323.5 52.5,298.5 Z"/></g>
<g><path style="opacity:1" fill="#fcfdfe" d="M 296.5,299.5 C 305.009,298.179 313.675,298.179 322.5,299.5C 326.867,306.705 331.033,314.038 335,321.5C 339.42,314.329 343.586,306.996 347.5,299.5C 355.833,298.167 364.167,298.167 372.5,299.5C 364.953,311.211 357.62,323.044 350.5,335C 358.425,347.927 366.758,360.594 375.5,373C 366.833,373.667 358.167,373.667 349.5,373C 344.663,365.341 339.663,357.841 334.5,350.5C 329.439,357.566 324.772,364.899 320.5,372.5C 311.853,373.665 303.186,373.832 294.5,373C 302.709,360.081 311.042,347.248 319.5,334.5C 312.167,322.522 304.5,310.856 296.5,299.5 Z"/></g>
<g><path style="opacity:1" fill="#0c78cc" d="M 165.5,314.5 C 174.898,313.671 181.065,317.671 184,326.5C 185.355,335.486 184.355,344.153 181,352.5C 175.28,357.661 168.78,358.828 161.5,356C 157.433,353.252 154.933,349.419 154,344.5C 153.333,338.5 153.333,332.5 154,326.5C 156.045,320.624 159.878,316.624 165.5,314.5 Z"/></g>
<g><path style="opacity:1" fill="#0778cc" d="M 75.5,315.5 C 90.8522,313.523 98.1855,320.19 97.5,335.5C 99.2973,352.036 91.964,359.036 75.5,356.5C 75.5,342.833 75.5,329.167 75.5,315.5 Z"/></g>
</svg>
