<svg id="Layer_1" data-name="Layer 1" xmlns="http://www.w3.org/2000/svg" viewBox="0 0 2000 2000"><title>Download</title><path d="M935.71,1684.42c.17.18.36.32.53.49s.36.42.55.62h0c1.16,1.16,2.43,2.23,3.66,3.33.78.7,1.53,1.45,2.33,2.12,1.44,1.2,3,2.3,4.51,3.41.85.62,1.66,1.31,2.53,1.89.16.11.34.2.51.31.33.22.66.4,1,.61,1.9,1.23,3.81,2.44,5.81,3.52,1.13.61,2.3,1.11,3.46,1.67,1.47.71,2.91,1.47,4.42,2.1l.7.28c.28.11.57.19.85.3.55.22,1.14.4,1.7.61,1.66.62,3.29,1.27,5,1.79,1,.31,2.08.52,3.11.8,1.77.47,3.53,1,5.35,1.33l.42.09.5.07c1,.18,1.93.28,2.89.43,1.6.24,3.18.54,4.8.7,2.81.28,5.64.42,8.46.43l.31,0h0a89.71,89.71,0,0,0,15.57-1.46c.35-.07.71-.07,1.06-.14l.42-.09a87.46,87.46,0,0,0,14.33-4.18c.47-.18.94-.3,1.4-.48.24-.09.46-.19.69-.29a87.15,87.15,0,0,0,13-6.74c.48-.3,1-.56,1.46-.87.25-.17.52-.32.78-.49a88.74,88.74,0,0,0,11.78-9.46c.21-.2.46-.33.67-.53s.18-.23.29-.34c.27-.26.56-.49.83-.75l646.1-646.1A88.12,88.12,0,0,0,1582.91,914.8l-495.69,495.68V88.12a88.12,88.12,0,0,0-176.24,0v1317L438.66,915.9a88.12,88.12,0,1,0-126.78,122.41Z"/><path d="M1655.36,1822.54H344.64a88.73,88.73,0,0,0,0,177.46H1655.36a88.73,88.73,0,0,0,0-177.46Z"/></svg>