<svg id="Layer_1" data-name="Layer 1" xmlns="http://www.w3.org/2000/svg" viewBox="0 0 2000 2000"><title>Downloadable</title><path d="M1205.63,1149.15l-150.2,131.31v-715c0-36.63-30.21-66.44-67.36-66.44s-67.36,29.81-67.36,66.44v715L770.5,1149.15c-27.79-24.27-70.45-21.74-95.08,5.65a65.79,65.79,0,0,0,5.72,93.79l262.22,229.25c.4.34.77.63,1.09.86.76.64,1.59,1.3,2.55,2,.74.57,1.58,1.21,2.52,1.85s2,1.33,3,1.91l.37.24-.09-.06c.36.24.73.48,1.07.67s1,.55,1.44.81c1.23.69,2.39,1.23,3.41,1.72l.67.32c.65.32,1.31.64,2,.92s1.31.53,2,.78l.5.19c.5.19,1,.36,1.56.56l.49.18.19.07c.52.2,1,.39,1.6.56,1.9.59,3.87,1.11,5.88,1.55l.72.17c.45.09.89.16,1.34.23h0c.44.08.87.14,1.3.2l.18,0a69.22,69.22,0,0,0,10,.92h1.94a70,70,0,0,0,9.93-.92l.18,0,1.21-.19.13,0c.45-.07.9-.14,1.35-.23l.22-.05.44-.1c2-.44,4-1,5.94-1.57.53-.16,1.07-.36,1.6-.56l.61-.22c.55-.19,1.09-.39,1.62-.59l.46-.17c.69-.25,1.37-.51,2-.79s1.33-.61,2-.93l.81-.39c1-.47,2.08-1,3.27-1.64l1.39-.79c.37-.21.73-.44,1.14-.71l0,0,.28-.17c.84-.52,1.86-1.15,2.89-1.86s1.89-1.37,2.56-1.88c.92-.69,1.75-1.36,2.54-2l.11-.08,6.06-3.34v-1.89L1295,1248.59a65.87,65.87,0,0,0,5.72-93.79C1276.09,1127.4,1233.43,1124.87,1205.63,1149.15Z"/><path d="M1774.86,279.51,1520.61,28.76V26.71l-5.3-3.17-.59-.58a79.7,79.7,0,0,0-56-23H331.46C259.74,0,201.4,57.54,201.4,128.27V1871.73c0,70.73,58.34,128.27,130.06,128.27H1668.54c71.72,0,130.06-57.54,130.06-128.27V336.27A79.71,79.71,0,0,0,1774.86,279.51Zm-320.16-98,141.15,144H1454.7ZM1663.88,1836a31.17,31.17,0,0,1-31.17,31.16H367.29A31.17,31.17,0,0,1,336.12,1836V164a31.17,31.17,0,0,1,31.17-31.16h963.33v268.9a54.9,54.9,0,0,0,54.91,54.91h278.35Z"/></svg>