<svg id="Layer_1" data-name="Layer 1" xmlns="http://www.w3.org/2000/svg" viewBox="0 0 2000 2000"><title>EyeClosed</title><path d="M1711,502.45,1603.73,609.74c148.42,130.56,237.72,286,237.72,390.17,0,210-363.75,629.77-841.45,629.77-123.39,0-239.23-28-343.13-73.08L543.55,1669.92c136.59,68,291.93,110.69,456.45,110.69,547.76,0,992.39-472.42,992.39-780.7C1992.39,848.59,1885.09,657.54,1711,502.45Z"/><path d="M289,1497.48l107.3-107.29c-148.43-130.55-237.72-286.14-237.72-390.28C158.55,790,522.3,370.26,1000,370.26c123.39,0,239.23,28.05,343.12,73.2L1456.45,330c-136.6-68-291.93-110.68-456.45-110.68C452.23,219.33,7.61,691.62,7.61,999.91,7.61,1151.22,114.9,1342.27,289,1497.48Z"/><path d="M895.1,1211.72,1211.81,895,1322,784.83l223-223L1652.91,453.9,1856.79,250A75.51,75.51,0,1,0,1750,143.23L143.33,1749.92A75.46,75.46,0,1,0,250,1856.7l224.26-224.26L784.8,1321.9Z"/><path d="M1203.26,1012.09c-6,102.67-88.5,185.13-191.17,191.17L876.36,1339A359.29,359.29,0,0,0,1000,1360.82c199,0,360.82-161.86,360.82-360.82A359.29,359.29,0,0,0,1339,876.36Z"/><path d="M796.75,987.75c6.12-102.55,88.45-184.88,191-191L1123.53,661A359.16,359.16,0,0,0,1000,639.18C801,639.18,639.18,801,639.18,1000A359.16,359.16,0,0,0,661,1123.53Z"/></svg>