<svg id="Layer_1" data-name="Layer 1" xmlns="http://www.w3.org/2000/svg" viewBox="0 0 2000 2000"><title>EyeOpen</title><path d="M1000,213.35C448,213.35,0,689.36,0,1000s448,786.65,1000,786.65,1000-476,1000-786.65S1552,213.35,1000,213.35Zm0,1421.21c-481.34,0-847.91-422.92-847.91-634.56S518.66,365.44,1000,365.44,1847.91,788.36,1847.91,1000,1481.34,1634.56,1000,1634.56Z"/><path d="M1000,639.18C801,639.18,639.18,801,639.18,1000S801,1360.82,1000,1360.82,1360.82,1199,1360.82,1000,1199,639.18,1000,639.18Z"/></svg>