<?xml version="1.0" encoding="UTF-8"?>
<svg version="1.1" xmlns="http://www.w3.org/2000/svg" width="800" height="800">
<path d="M0 0 C1.52836235 -0.00855011 1.52836235 -0.00855011 3.08760071 -0.01727295 C5.238159 -0.02666766 7.38873132 -0.03323476 9.53930664 -0.03710938 C12.74718171 -0.04671451 15.95438683 -0.07774991 19.16210938 -0.109375 C59.06211445 -0.31384273 98.4099806 9.43067454 134.11328125 27.203125 C134.83193359 27.55697266 135.55058594 27.91082031 136.29101562 28.27539062 C149.44110777 34.8086335 161.76217515 42.66789998 173.9921875 50.76953125 C198.8470584 67.04548376 226.01796885 76.88007408 255.11328125 82.203125 C255.82274902 82.33589844 256.5322168 82.46867187 257.26318359 82.60546875 C328.61346608 95.28996341 405.52723414 63.5337855 463.00439453 23.50756836 C467.76851276 20.13716705 472.4748278 16.70416561 477.10546875 13.15234375 C488.44174263 4.50584181 499.44006872 -0.98963614 514.11328125 0.203125 C525.33400963 1.87397117 535.46869917 6.77788043 542.49784148 15.91549528 C550.05037621 26.61066525 549.8249898 36.79000288 549.74819946 49.38241577 C549.75396527 51.44092676 549.76190946 53.4994326 549.77183568 55.55792773 C549.79266923 61.19750313 549.78240942 66.83665436 549.76690459 72.4762311 C549.7555807 78.56498846 549.77305909 84.65367345 549.7868042 90.74241638 C549.80774687 101.97546535 549.80594008 113.20837885 549.79224686 124.44142498 C549.77965687 134.82076285 549.77639123 145.20005135 549.78236008 155.57939529 C549.78293297 156.61311172 549.78293297 156.61311172 549.78351743 157.66771131 C549.78507419 160.46536746 549.7866662 163.26302358 549.78831625 166.06067968 C549.80360403 192.29396984 549.78975603 218.52717421 549.76283176 244.76045112 C549.7391098 268.05063318 549.74122325 291.34067852 549.76513672 314.63085938 C549.79193077 340.81389545 549.80251445 366.99685574 549.7870754 393.17990363 C549.78547189 395.97301013 549.78390768 398.76611664 549.78236008 401.55922318 C549.78196469 402.24692726 549.7815693 402.93463135 549.78116194 403.64317495 C549.77548266 414.01283302 549.78211094 424.38243618 549.79475784 434.75208664 C549.80907325 446.5484306 549.80495989 458.34464411 549.77835412 470.14097808 C549.76523014 476.15779982 549.7600397 482.17434445 549.77659988 488.19116402 C549.79154156 493.7033921 549.78324111 499.21508722 549.75671212 504.72726722 C549.75114504 506.71705701 549.75392755 508.70689218 549.76609106 510.69665258 C549.86475146 528.18272392 546.65562914 540.969841 534.265625 554.171875 C522.00628406 565.67567007 507.2481881 575.15422138 493.11328125 584.203125 C492.36449707 584.68571777 491.61571289 585.16831055 490.84423828 585.66552734 C430.32205477 624.50008513 360.1114143 651.39042357 287.48828125 651.453125 C286.41779541 651.45413712 286.41779541 651.45413712 285.32568359 651.45516968 C254.71600337 651.40975094 225.00483751 646.25569054 196.11328125 636.203125 C194.78785927 635.76142202 193.46234657 635.31999111 192.13671875 634.87890625 C169.91757877 627.09051297 148.97962355 615.73650791 129.60986328 602.43969727 C103.03535955 584.2750736 71.36794343 571.74109145 39.11328125 569.203125 C38.30697266 569.13754395 37.50066406 569.07196289 36.66992188 569.00439453 C-38.08039492 563.29544176 -109.7500677 597.86769139 -167.56640625 642.55859375 C-168.05605362 642.97896912 -168.54570099 643.39934448 -169.05018616 643.8324585 C-170.88671875 645.203125 -170.88671875 645.203125 -173.57176208 646.46099854 C-177.19547332 648.53607297 -179.88618078 650.53061146 -181.88671875 654.203125 C-183.92548947 662.46204972 -183.33451955 671.30922481 -183.20398116 679.75101972 C-183.16311689 683.14635021 -183.18488768 686.54129113 -183.19978333 689.93675232 C-183.21853861 696.35445095 -183.18162996 702.77055194 -183.12431079 709.18797296 C-183.061752 716.49886919 -183.06186854 723.80935419 -183.06703603 731.12046731 C-183.07626483 746.14859247 -183.00748075 761.17543952 -182.88671875 776.203125 C-183.54671875 776.203125 -184.20671875 776.203125 -184.88671875 776.203125 C-184.92796875 777.0075 -184.96921875 777.811875 -185.01171875 778.640625 C-186.84350327 786.09860484 -191.49080742 791.41654129 -197.56640625 795.9140625 C-203.89601698 799.4305129 -209.60554308 800.73757161 -216.82421875 800.640625 C-217.61618652 800.63305176 -218.4081543 800.62547852 -219.22412109 800.61767578 C-225.20413892 800.44886011 -229.83711604 799.56252805 -234.88671875 796.203125 C-235.92505859 795.584375 -235.92505859 795.584375 -236.984375 794.953125 C-244.3394544 790.11389519 -248.64135913 782.61252898 -250.88671875 774.203125 C-251.17808747 770.58407948 -251.15856144 766.97623617 -251.14398766 763.34706688 C-251.14749373 762.24629608 -251.1509998 761.14552527 -251.15461212 760.01139778 C-251.16395614 756.30282665 -251.15899499 752.59441153 -251.15414429 748.88583374 C-251.15787904 746.20808221 -251.16239989 743.53034244 -251.16787493 740.85259497 C-251.17818509 735.02017944 -251.18101696 729.18779712 -251.17896271 723.35537338 C-251.17591533 714.68212427 -251.18423092 706.00891196 -251.19471196 697.33567 C-251.21406673 680.94370402 -251.21968075 664.55175053 -251.22082607 648.15977447 C-251.22174479 635.50078726 -251.22585954 622.84180497 -251.23222733 610.18281937 C-251.23402239 606.54028531 -251.23580202 602.89775126 -251.23757708 599.25521719 C-251.23801918 598.34969298 -251.23846127 597.44416876 -251.23891677 596.51120442 C-251.25122764 571.03535488 -251.25911765 545.55950705 -251.25823021 520.0836544 C-251.25819905 519.12289395 -251.25816789 518.1621335 -251.25813579 517.1722591 C-251.25796958 512.30262257 -251.25777149 507.43298605 -251.25756638 502.56334953 C-251.25752649 501.59620715 -251.2574866 500.62906478 -251.2574455 499.63261506 C-251.25736462 497.6768161 -251.25728103 495.72101713 -251.25719471 493.76521817 C-251.25596935 463.33971618 -251.27097875 432.91425877 -251.29833984 402.48876953 C-251.32906134 368.31237008 -251.34627227 334.13599992 -251.3444134 299.95958579 C-251.34426414 296.3151656 -251.34416672 292.67074541 -251.34410477 289.02632523 C-251.34408146 288.12896549 -251.34405815 287.23160576 -251.34403413 286.3070533 C-251.34397259 271.86570839 -251.35674485 257.42440218 -251.3739693 242.98306877 C-251.39092363 228.4679278 -251.39290121 213.95284345 -251.37975065 199.43769805 C-251.3723599 190.81515792 -251.37602313 182.19278977 -251.39563533 173.57026786 C-251.40763475 167.80761981 -251.40504472 162.04509633 -251.39069434 156.282454 C-251.38293083 153.00092838 -251.38359701 149.71980128 -251.39760904 146.43828671 C-251.41173032 142.8966299 -251.40114221 139.35585694 -251.38449669 135.81422997 C-251.39443305 134.80464468 -251.40436941 133.79505939 -251.41460687 132.75488061 C-251.29394419 120.59985833 -247.18279212 109.45332715 -238.48876953 100.81396484 C-218.99361146 82.49657467 -195.07465035 67.37946211 -171.88671875 54.203125 C-171.11376465 53.76323242 -170.34081055 53.32333984 -169.54443359 52.87011719 C-118.50325188 24.02290273 -59.52651877 0.26684291 0 0 Z M-182.88671875 143.203125 C-182.98486853 145.45483691 -183.01042967 147.70970542 -183.00976658 149.96355534 C-183.01092042 150.682268 -183.01207427 151.40098066 -183.01326308 152.14147249 C-183.01593661 154.58034522 -183.01140158 157.0191536 -183.00697327 159.45802307 C-183.00740882 161.21192644 -183.00828343 162.96582975 -183.00956243 164.7197327 C-183.01181055 169.56315045 -183.00778181 174.4065463 -183.00278437 179.24996126 C-182.99848457 184.46403466 -182.99992596 189.67810672 -183.00068665 194.8921814 C-183.00121218 203.93383135 -182.99806231 212.97547412 -182.99244881 222.01712227 C-182.98433779 235.08998988 -182.981719 248.16285399 -182.98046082 261.23572385 C-182.97826967 282.44320264 -182.97160789 303.65067759 -182.9621582 324.8581543 C-182.95298571 345.46492493 -182.94590408 366.07169453 -182.94165039 386.6784668 C-182.94138767 387.94767719 -182.94112494 389.21688759 -182.94085426 390.52455891 C-182.93954927 396.89151855 -182.93828555 403.2584782 -182.93704236 409.62543786 C-182.92666779 462.48466956 -182.90904777 515.34389709 -182.88671875 568.203125 C-179.9004775 567.03122671 -177.15560525 565.88178735 -174.4609375 564.13671875 C-173.83807861 563.738479 -173.21521973 563.34023926 -172.57348633 562.92993164 C-171.91372803 562.50446045 -171.25396973 562.07898926 -170.57421875 561.640625 C-162.50057534 556.52438724 -154.27846642 551.77551568 -145.88671875 547.203125 C-144.73357178 546.56721436 -144.73357178 546.56721436 -143.55712891 545.91845703 C-107.26679824 525.97735383 -67.72785334 512.04962403 -26.88671875 505.203125 C-25.90815918 505.03796387 -24.92959961 504.87280273 -23.92138672 504.70263672 C4.85630493 500.08847193 36.42082615 499.97339569 65.11328125 505.203125 C66.18078613 505.39648438 67.24829102 505.58984375 68.34814453 505.7890625 C105.32268815 512.74695542 139.57220905 527.4709321 170.63208008 548.57226562 C201.87747379 569.65107259 239.83308056 584.05412347 277.79296875 584.44140625 C278.99598129 584.45609703 278.99598129 584.45609703 280.22329712 584.47108459 C299.2181154 584.65499697 317.44875403 584.1310734 336.11328125 580.203125 C337.11633301 579.99413574 338.11938477 579.78514648 339.15283203 579.56982422 C386.46959523 569.37981311 432.51455081 546.99643861 470.97720438 517.72483498 C473.11328125 516.203125 473.11328125 516.203125 475.42774051 514.97611898 C478.24472254 513.29395408 480.0831085 511.79788397 482.11328125 509.203125 C483.46785337 503.65904437 483.29120508 498.2084625 483.1955719 492.53041077 C483.19949775 490.80431461 483.20738016 489.07822369 483.21887439 487.35216135 C483.23899513 482.61283237 483.20301005 477.87533456 483.15787184 473.13623893 C483.11900885 468.02452234 483.13215774 462.91290918 483.13899231 457.80108643 C483.14371177 448.94591358 483.1154725 440.09133751 483.06485176 431.23631477 C482.99171089 418.43354218 482.96826911 405.63105818 482.95695984 392.8280993 C482.93726167 372.05637852 482.87736604 351.28497581 482.79223633 330.51342773 C482.70962634 310.33570955 482.64591998 290.15807776 482.60766602 269.98022461 C482.6053015 268.73648652 482.60293699 267.49274843 482.60050083 266.2113213 C482.5887555 259.97185857 482.57738213 253.73239523 482.5661937 247.49293149 C482.47289164 195.72944282 482.31437197 143.96629942 482.11328125 92.203125 C480.52838033 92.99010402 478.94411242 93.77835793 477.36010742 94.56713867 C476.47779953 95.00595871 475.59549164 95.44477875 474.68644714 95.89689636 C471.20354015 97.66494127 467.81364298 99.57356102 464.42578125 101.515625 C463.0252744 102.30693687 461.62422083 103.09728182 460.22265625 103.88671875 C458.25727278 104.99418948 456.29197365 106.10169309 454.33007812 107.21533203 C418.08596772 127.67806601 377.05708175 141.2796444 336.11328125 148.203125 C334.74840576 148.44869141 334.74840576 148.44869141 333.35595703 148.69921875 C318.13260407 151.35678515 302.89865016 151.51306715 287.48828125 151.578125 C286.50438416 151.58607086 285.52048706 151.59401672 284.5067749 151.60220337 C265.92950538 151.71736533 247.56193046 150.06868782 229.42578125 145.890625 C228.4826709 145.67752686 227.53956055 145.46442871 226.56787109 145.24487305 C192.24470278 137.29292654 160.28915615 123.01622085 131.01953125 103.484375 C47.0439201 47.54754986 -52.10862153 60.81386458 -182.88671875 143.203125 Z " fill="#040707" transform="translate(250.88671875,-0.203125)"/>
<path d="M0 0 C0 0.66 0 1.32 0 2 C0.969375 2.12375 1.93875 2.2475 2.9375 2.375 C3.948125 2.58125 4.95875 2.7875 6 3 C6.495 3.99 6.495 3.99 7 5 C9.01669827 6.13350534 9.01669827 6.13350534 11 7 C11 7.66 11 8.32 11 9 C11.99 9.33 12.98 9.66 14 10 C16.1875 11.9375 16.1875 11.9375 18 14 C18 14.66 18 15.32 18 16 C19.32 16.66 20.64 17.32 22 18 C22 18.66 22 19.32 22 20 C23.485 20.495 23.485 20.495 25 21 C27.1875 22.9375 27.1875 22.9375 29 25 C29 25.66 29 26.32 29 27 C30.485 27.495 30.485 27.495 32 28 C34.1875 29.9375 34.1875 29.9375 36 32 C36 32.66 36 33.32 36 34 C37.32 34.66 38.64 35.32 40 36 C40 36.66 40 37.32 40 38 C41.485 38.495 41.485 38.495 43 39 C45.1875 40.9375 45.1875 40.9375 47 43 C47 43.66 47 44.32 47 45 C48.485 45.495 48.485 45.495 50 46 C51.23287207 47.52486808 52.46449841 49.05084678 53.6796875 50.58984375 C55.00778149 52.20801381 55.00778149 52.20801381 57.5 53 C60.47492986 54.18997195 61.8121335 55.92687188 63.75 58.421875 C65.64142652 60.80980098 67.82115991 62.87563091 70 65 C72.5702781 67.5702781 75.11393024 70.12504538 77.5625 72.8125 C79.95030433 75.44527316 79.95030433 75.44527316 84 75 C85.57294097 73.65547843 85.57294097 73.65547843 86.875 71.8125 C88.80126423 69.40103067 90.65658003 67.31086877 93.0625 65.375 C95.91793914 63.06634708 98.43858616 60.62709112 101 58 C103.51090797 55.48909203 106.02076025 52.9797461 108.5625 50.5 C111.01152508 48.08253252 111.01152508 48.08253252 112.9375 45.5 C115 43 115 43 117.9375 40.5625 C121.0731044 38.09360369 121.0731044 38.09360369 123.5 35 C126.09298044 31.88842347 128.86232872 29.54935791 132 27 C133.6857124 25.35259924 135.3563186 23.68933922 137 22 C137.66 21.34 138.32 20.68 139 20 C139.99 20 140.98 20 142 20 C142.66 18.68 143.32 17.36 144 16 C144.66 16 145.32 16 146 16 C146.33 15.01 146.66 14.02 147 13 C148.9375 10.8125 148.9375 10.8125 151 9 C151.66 9 152.32 9 153 9 C153.33 8.01 153.66 7.02 154 6 C156.0625 5.3125 156.0625 5.3125 158 5 C158 4.34 158 3.68 158 3 C159.32 2.67 160.64 2.34 162 2 C162 1.34 162 0.68 162 0 C176.74503088 -3.98258069 191.33414846 -4.83110404 206 0 C206 0.66 206 1.32 206 2 C206.94875 2.103125 207.8975 2.20625 208.875 2.3125 C212 3 212 3 214 6 C214.99 6.33 215.98 6.66 217 7 C217 7.66 217 8.32 217 9 C217.99 9.33 218.98 9.66 220 10 C220 10.66 220 11.32 220 12 C220.66 12 221.32 12 222 12 C222.433125 12.9590625 222.433125 12.9590625 222.875 13.9375 C223.82823451 16.15206079 223.82823451 16.15206079 226 17 C226.33333333 19 226.66666667 21 227 23 C227.66 23.33 228.32 23.66 229 24 C233.66569274 35.80145811 232.77790619 48.84666042 230 61 C229.34 61 228.68 61 228 61 C228.33 61.99 228.66 62.98 229 64 C228.34 64 227.68 64 227 64 C226.938125 64.9075 226.87625 65.815 226.8125 66.75 C225.80065065 70.79739742 224.29303913 71.59045917 221 74 C219.86649466 76.01669827 219.86649466 76.01669827 219 78 C216.96827868 80.38506416 216.06968154 80.97677282 213 82 C211.78011089 83.45067894 210.56429516 84.9053935 209.38671875 86.390625 C207.21302808 88.91333079 204.5540445 90.87162959 202 93 C200.7625 94.485 200.7625 94.485 199.5 96 C196.90701956 99.11157653 194.13767128 101.45064209 191 104 C189.31288577 105.6459651 187.6454378 107.31237149 186 109 C185.175 109.804375 184.35 110.60875 183.5 111.4375 C180.94454137 113.97522953 180.94454137 113.97522953 178.6875 116.875 C176.07773826 120.0775152 173.05019467 122.66402201 169.91796875 125.34375 C166.49363934 128.30080839 163.46855158 131.42047567 160.625 134.9375 C157.80242724 138.40935467 154.46228649 141.18626862 151 144 C153.34169735 146.9438481 155.41972258 149.54188625 158.375 151.875 C161.4097218 154.33167955 163.77345711 157.09012816 166.30859375 160.046875 C169.26170898 163.45693877 172.36068463 166.48576807 175.875 169.3125 C179.0775152 171.92226174 181.66402201 174.94980533 184.34375 178.08203125 C187.40241092 181.62401831 190.67160061 184.76116965 194.3125 187.6875 C195.199375 188.450625 196.08625 189.21375 197 190 C197 190.66 197 191.32 197 192 C198.11375 192.3403125 198.11375 192.3403125 199.25 192.6875 C202.58492105 194.27916686 203.74845847 196.08624037 206 199 C207.14667838 200.02285865 208.31502443 201.02176485 209.5 202 C212.42315596 204.42665389 214.63287541 207.02200454 217 210 C218.04599218 210.89466844 219.10946444 211.76921348 220.1875 212.625 C223 215 223 215 224 218 C224.66 218.33 225.32 218.66 226 219 C226.33333333 221 226.66666667 223 227 225 C227.66 225.33 228.32 225.66 229 226 C228.67 226.66 228.34 227.32 228 228 C228.66 228 229.32 228 230 228 C232.65466715 239.61416877 234.54896277 254.90207445 229 266 C228.34 266 227.68 266 227 266 C226.67 267.65 226.34 269.3 226 271 C225.34 271 224.68 271 224 271 C223.95875 271.556875 223.9175 272.11375 223.875 272.6875 C222.77571114 275.59276341 220.97100101 276.8945674 218.5546875 278.76171875 C216.81265271 280.08988161 216.81265271 280.08988161 214.8125 282.3125 C213 284 213 284 210 284 C209.67 284.99 209.34 285.98 209 287 C208.01 287 207.02 287 206 287 C206 287.66 206 288.32 206 289 C191.34316476 292.44866712 178.7077875 293.10449884 164 289 C164 288.34 164 287.68 164 287 C163.030625 286.87625 162.06125 286.7525 161.0625 286.625 C159.5465625 286.315625 159.5465625 286.315625 158 286 C157.67 285.34 157.34 284.68 157 284 C154.98330173 282.86649466 154.98330173 282.86649466 153 282 C153 281.34 153 280.68 153 280 C152.01 279.67 151.02 279.34 150 279 C147.8125 277.0625 147.8125 277.0625 146 275 C146 274.34 146 273.68 146 273 C144.68 272.34 143.36 271.68 142 271 C142 270.34 142 269.68 142 269 C141.01 268.67 140.02 268.34 139 268 C136.8125 266.0625 136.8125 266.0625 135 264 C135 263.34 135 262.68 135 262 C134.01 261.67 133.02 261.34 132 261 C129.8125 259.0625 129.8125 259.0625 128 257 C128 256.34 128 255.68 128 255 C126.6696875 254.690625 126.6696875 254.690625 125.3125 254.375 C121.88258803 252.95126296 120.43459329 251.49996785 118.21484375 248.578125 C116.35938476 246.16781814 114.17501678 244.12064136 112 242 C109.48909203 239.48909203 106.9797461 236.97923975 104.5 234.4375 C102.08253252 231.98847492 102.08253252 231.98847492 99.5 230.0625 C97 228 97 228 94.5625 225.0625 C92.66240359 222.79165307 91.12741634 221.18249459 88.875 219.375 C86.4341313 217.35863021 84.7400964 215.6101446 83 213 C80.79852582 213.98686774 79.15372082 214.84627918 77.4375 216.5625 C76 218 76 218 73 219 C71.41441619 220.63502936 71.41441619 220.63502936 69.9375 222.5625 C68.40234375 224.50390625 68.40234375 224.50390625 67 226 C66.34 226 65.68 226 65 226 C64.67 226.99 64.34 227.98 64 229 C62.0625 231.1875 62.0625 231.1875 60 233 C59.34 233 58.68 233 58 233 C57.67 233.99 57.34 234.98 57 236 C55.01739574 237.68732277 53.0167658 239.35366057 51 241 C50.34 241.99 49.68 242.98 49 244 C48.34 244 47.68 244 47 244 C46.67 244.99 46.34 245.98 46 247 C44.0625 249.1875 44.0625 249.1875 42 251 C41.34 251 40.68 251 40 251 C39.34 252.32 38.68 253.64 38 255 C37.34 255 36.68 255 36 255 C35.67 255.99 35.34 256.98 35 258 C33.0625 260.1875 33.0625 260.1875 31 262 C30.34 262 29.68 262 29 262 C28.67 262.99 28.34 263.98 28 265 C26.0625 267.1875 26.0625 267.1875 24 269 C23.34 269 22.68 269 22 269 C21.34 270.32 20.68 271.64 20 273 C19.34 273 18.68 273 18 273 C17.67 273.99 17.34 274.98 17 276 C15.125 278.1875 15.125 278.1875 13 280 C12.01 280 11.02 280 10 280 C10 280.66 10 281.32 10 282 C7 284 7 284 4 284 C3.67 284.99 3.34 285.98 3 287 C2.01 287 1.02 287 0 287 C0 287.66 0 288.32 0 289 C-14.2089154 292.26106255 -27.83262117 293.72245961 -42 289 C-42 288.34 -42 287.68 -42 287 C-42.969375 286.87625 -43.93875 286.7525 -44.9375 286.625 C-46.4534375 286.315625 -46.4534375 286.315625 -48 286 C-48.33 285.34 -48.66 284.68 -49 284 C-51.01669827 282.86649466 -51.01669827 282.86649466 -53 282 C-53 281.34 -53 280.68 -53 280 C-53.99 279.67 -54.98 279.34 -56 279 C-58.1875 277.125 -58.1875 277.125 -60 275 C-60 274.01 -60 273.02 -60 272 C-60.99 271.67 -61.98 271.34 -63 271 C-63 270.01 -63 269.02 -63 268 C-63.66 268 -64.32 268 -65 268 C-67.92365401 260.72567039 -68.30215784 253.61223128 -68.3125 245.875 C-68.31765625 244.9454248 -68.3228125 244.01584961 -68.328125 243.05810547 C-68.23957575 234.14151192 -67.02057305 225.56548421 -62 218 C-59.5625 215.875 -59.5625 215.875 -57 214 C-56.195625 213.030625 -55.39125 212.06125 -54.5625 211.0625 C-51.94572291 207.93513226 -49.12563033 205.60469194 -46 203 C-45.175 202.01 -44.35 201.02 -43.5 200 C-40.9107857 196.89294284 -38.10063514 194.58386262 -35 192 C-34.175 191.01 -33.35 190.02 -32.5 189 C-29.9107857 185.89294284 -27.10063514 183.58386262 -24 181 C-22.2543051 179.05753602 -20.64333993 177.03255202 -19 175 C-16.8125 172.625 -16.8125 172.625 -15 171 C-14.34 171 -13.68 171 -13 171 C-12.67 170.01 -12.34 169.02 -12 168 C-10.55339196 166.78353415 -9.10241797 165.57134094 -7.6171875 164.40234375 C-5.96450315 162.96921892 -4.70966546 161.47843322 -3.375 159.75 C-0.35071942 156.24820144 -0.35071942 156.24820144 3 156 C3 155.34 3 154.68 3 154 C4.45411808 152.77721889 5.91211309 151.55842418 7.3984375 150.375 C9.59201358 148.49173468 11.28110803 146.31389304 13 144 C12.55269531 143.63648438 12.10539062 143.27296875 11.64453125 142.8984375 C7.59559892 139.53152149 4.30633984 136.08942033 1 132 C-0.6459651 130.31288577 -2.31237149 128.6454378 -4 127 C-4.804375 126.175 -5.60875 125.35 -6.4375 124.5 C-8.3540553 122.63018995 -10.23236882 120.97758153 -12.3125 119.3125 C-13.199375 118.549375 -14.08625 117.78625 -15 117 C-15 116.34 -15 115.68 -15 115 C-15.7425 114.773125 -16.485 114.54625 -17.25 114.3125 C-20.58492105 112.72083314 -21.74845847 110.91375963 -24 108 C-25.14667838 106.97714135 -26.31502443 105.97823515 -27.5 105 C-30.42315596 102.57334611 -32.63287541 99.97799546 -35 97 C-35.969375 96.195625 -36.93875 95.39125 -37.9375 94.5625 C-41.06486774 91.94572291 -43.39530806 89.12563033 -46 86 C-46.99 85.175 -47.98 84.35 -49 83.5 C-52.16887337 80.85927219 -54.42237862 78.20461037 -57 75 C-57.8971875 74.13375 -57.8971875 74.13375 -58.8125 73.25 C-60 72 -60 72 -60 70 C-60.66 70 -61.32 70 -62 70 C-67.47751354 61.41856212 -68.36829208 53.1832654 -68.3125 43.125 C-68.31121094 42.16062012 -68.30992187 41.19624023 -68.30859375 40.20263672 C-68.21752884 33.46497187 -67.53533332 27.30815077 -65 21 C-64.34 21 -63.68 21 -63 21 C-62.67 19.68 -62.34 18.36 -62 17 C-61.34 17 -60.68 17 -60 17 C-59.9175 16.4225 -59.835 15.845 -59.75 15.25 C-58.78202213 12.3460664 -57.31305716 10.96259396 -55 9 C-54.34 9 -53.68 9 -53 9 C-52.67 8.01 -52.34 7.02 -52 6 C-49.9375 5.3125 -49.9375 5.3125 -48 5 C-48 4.34 -48 3.68 -48 3 C-46.68 2.67 -45.36 2.34 -44 2 C-44 1.34 -44 0.68 -44 0 C-29.25496912 -3.98258069 -14.66585154 -4.83110404 0 0 Z " fill="#FEE800" transform="translate(343,193)"/>
</svg>
