<svg id="Layer_1" data-name="Layer 1" xmlns="http://www.w3.org/2000/svg" viewBox="0 0 2000 2000"><title>FolderClosed</title><path d="M0,1561c0,76.85,62.52,139.37,139.36,139.37H1860.64c76.84,0,139.36-62.52,139.36-139.37V523.62c0-84.75-69-153.7-153.7-153.7H975.51l-10.74-10.68a204.56,204.56,0,0,0-144.32-59.58H139.36C62.52,299.66,0,362.18,0,439ZM1846.3,437.16a86.56,86.56,0,0,1,86.46,86.46V639.45l-46-23A202.41,202.41,0,0,0,1795.4,595h-537a136.52,136.52,0,0,1-96.9-40L1043.07,437.16ZM67.24,439a72.21,72.21,0,0,1,72.12-72.13H820.45a136.52,136.52,0,0,1,96.9,40l196.73,195.79a204.66,204.66,0,0,0,144.33,59.57h537c75.74,0,137.36,61.62,137.36,137.37V1561a72.21,72.21,0,0,1-72.12,72.13H139.36A72.21,72.21,0,0,1,67.24,1561Z"/></svg>