<svg id="Layer_1" data-name="Layer 1" xmlns="http://www.w3.org/2000/svg" viewBox="0 0 2000 2000"><title>FolderOpen</title><path d="M1991.71,897.67a99.59,99.59,0,0,0-91.34-139.28H1734.79L1606,629.56a167.26,167.26,0,0,0-119-49.3h-444a98,98,0,0,1-69.72-28.87L807.81,386a167.23,167.23,0,0,0-119-49.32H179c-98.71,0-179,80.31-179,179V1564.91l.37,5.47a99.43,99.43,0,0,0,99.29,92.9h1494a99.54,99.54,0,0,0,91.34-59.9ZM69.75,515.75A109.4,109.4,0,0,1,179,406.47H688.76a98,98,0,0,1,69.73,28.88L923.84,600.71a167.27,167.27,0,0,0,119,49.3h444a98,98,0,0,1,69.71,28.86l79.53,79.52H406.38A99.57,99.57,0,0,0,315,818.28L69.75,1382.67ZM1628.27,1558.9a57.55,57.55,0,0,1-52.81,34.63H142A57.57,57.57,0,0,1,89.15,1513L371.76,862.77a57.55,57.55,0,0,1,52.8-34.63H1858.08a57.57,57.57,0,0,1,52.81,80.52h0Z"/></svg>