<?xml version="1.0" encoding="UTF-8"?>
<!DOCTYPE svg PUBLIC "-//W3C//DTD SVG 1.1//EN" "http://www.w3.org/Graphics/SVG/1.1/DTD/svg11.dtd">
<svg xmlns="http://www.w3.org/2000/svg" version="1.1" width="150px" height="150px" style="shape-rendering:geometricPrecision; text-rendering:geometricPrecision; image-rendering:optimizeQuality; fill-rule:evenodd; clip-rule:evenodd" xmlns:xlink="http://www.w3.org/1999/xlink">
<g><path style="opacity:0.98" fill="#13c004" d="M -0.5,93.5 C -0.5,92.8333 -0.5,92.1667 -0.5,91.5C 3.91646,88.194 8.08312,84.5273 12,80.5C 15.0201,75.1127 18.5201,70.1127 22.5,65.5C 33.4945,74.828 43.8278,84.828 53.5,95.5C 69.7465,69.0094 88.4132,44.3427 109.5,21.5C 111.027,21.573 112.027,20.9063 112.5,19.5C 117.271,15.2309 121.938,10.7309 126.5,6C 128.044,4.81288 129.711,4.47954 131.5,5C 134.358,17.2645 139.692,28.2645 147.5,38C 136.833,46.6667 126.167,55.3333 115.5,64C 105.636,73.5295 96.1363,83.3629 87,93.5C 80.0187,106.465 73.3521,119.465 67,132.5C 62.7871,134.235 58.6205,135.735 54.5,137C 42.7712,124.602 30.4378,112.935 17.5,102C 11.8718,98.3523 5.87176,95.5189 -0.5,93.5 Z"/></g>
<g><path style="opacity:0.082" fill="#a5e79e" d="M 112.5,19.5 C 112.027,20.9063 111.027,21.573 109.5,21.5C 109.973,20.0937 110.973,19.427 112.5,19.5 Z"/></g>
</svg>
