<svg id="Layer_1" data-name="Layer 1" xmlns="http://www.w3.org/2000/svg" viewBox="0 0 2000 2000">
  <defs>
    <style>.cls-1{fill:#000;}</style>
  </defs>
  <title>infoboxblack</title>
  <path class="cls-1" d="M1000,0C447.72,0,0,447.72,0,1000S447.72,2000,1000,2000s1000-447.72,1000-1000S1552.28,0,1000,0Zm0,1821.34c-453.61,0-821.34-367.73-821.34-821.34S546.39,178.66,1000,178.66,1821.34,546.39,1821.34,1000,1453.61,1821.34,1000,1821.34Z"/>
  <path class="cls-1" d="M1260.52,1447.29q-13.9-5.19-17.34-5.19c-4.66,0-9.26,2.33-13.87,6.94a260.54,260.54,0,0,0-29.47,34.66,263.34,263.34,0,0,1-29.47,34.68q-13.9,17.4-26,31.2a229.26,229.26,0,0,1-29.47,27.74q-31.22,24.32-55.48,12.15T1042.07,1560q20.81-114.42,45.08-228.84t52-228.86Q1153,1036.46,1166.9,974t31.21-124.84c0-16.14-6.94-24.26-20.81-24.26L941.52,818c-6.94,0-12.74,3.46-17.34,10.4Q906.78,870,887.77,915t-36.41,93.62q-20.8,65.92-43.34,138.7T768.14,1293q-7,27.78-17.33,71.07t-17.34,90.16q-7,46.8-12.14,88.43t1.74,65.88Q733.46,1664,789,1691.76a383,383,0,0,0,67.61,22.53,320,320,0,0,0,74.55,8.67q55.42,0,90.16-8.67a250.37,250.37,0,0,0,62.41-24.28,280,280,0,0,0,53.74-39.87q26-24.21,57.22-55.48l36.41-36.41q19-19,36.4-39.87c4.61-4.61,6.94-9.22,6.94-13.88v-24.26C1274.39,1461.77,1269.73,1450.77,1260.52,1447.29Z"/>
  <path class="cls-1" d="M1239.71,318.66q-20.81-24.24-53.74-33a280.69,280.69,0,0,0-71.08-8.67,208.57,208.57,0,0,0-79.75,15.61A197.82,197.82,0,0,0,969.25,336q-45.11,48.6-45.07,116.17T965.79,568.3q52,62.43,135.23,62.42,38.1,0,72.81-19.07t59-46.81q38.12-45,46.81-121.36T1239.71,318.66Z"/>
</svg>
