<svg id="Layer_1" data-name="Layer 1" xmlns="http://www.w3.org/2000/svg" viewBox="0 0 2000 2000"><defs><style>.cls-1{fill:#fff;}</style></defs><title>LegalWhite</title><path class="cls-1" d="M1000,916.86c-45.44,0-82.28,37.23-82.28,83.14v382.67c0,45.91,36.84,83.14,82.28,83.14s82.28-37.23,82.28-83.14V1000C1082.28,954.09,1045.44,916.86,1000,916.86Z" style="fill:#fff;" /><path class="cls-1" d="M1000,541.92c-45.44,0-82.28,37.23-82.28,83.14V627c0,45.91,36.84,83.14,82.28,83.14s82.28-37.23,82.28-83.14v-1.93C1082.28,579.15,1045.44,541.92,1000,541.92Z" style="fill:#fff;" /><path class="cls-1" d="M1785.07,232.23C1554-15.94,1056.8-.06,1000.06-.06,944.52-.06,446-16,215,232.23-13.7,478,.05,946.73.05,1000c-.41,54.43-13.75,522,215,767.72C411.94,1979.2,803,1999.94,948.67,1999.94h51.39c56,.41,554,15.92,785-232.27,228.73-245.72,215-714,215-767.72S2013.8,478,1785.07,232.23Zm-119.86,1421.5c-155.42,167-528.63,179-660.79,179l-4.36,0h-4.32c-129.81,0-505.4-12-660.86-179-189.32-203.39-169.24-645.11-169-649.46l0-4.32,0-4.24c-.22-4.43-20.3-446.15,169-649.54C490.32,179.19,865.69,164.79,995.69,166l4.37.06,4.36-.06c130.31,1.29,504.82,12.65,660.79,180.21,188.69,202.7,169.48,642,169.48,649.48l.07,4.3-.07,4.3C1834.69,1126.25,1822.91,1484.32,1665.21,1653.73Z" style="fill:#fff;" /></svg>