<svg id="Layer_1" data-name="Layer 1" xmlns="http://www.w3.org/2000/svg" viewBox="0 0 2000 2000"><defs><style>.cls-1{fill:#fff;}</style></defs><title>LinkToLocalWhite</title><path class="cls-1" d="M1801.85,368.56h-800l-21.3-21.29a210,210,0,0,0-149.51-61.93H198.15C88.89,285.34,0,374.22,0,483.48v1033c0,109.26,88.89,198.15,198.15,198.15h1603.7c109.26,0,198.15-88.89,198.15-198.15V566.71C2000,457.44,1911.11,368.56,1801.85,368.56Zm64.73,478.87v669.08a64.81,64.81,0,0,1-64.73,64.73H198.15a64.81,64.81,0,0,1-64.73-64.73v-1033a64.8,64.8,0,0,1,64.73-64.72H831.07a77.46,77.46,0,0,1,55.16,22.85l208.49,208.47A210,210,0,0,0,1244.23,712h544.33a78.1,78.1,0,0,1,78,78Zm0-253.74a210.05,210.05,0,0,0-78-15.09H1244.23a77.51,77.51,0,0,1-55.17-22.86L1135.31,502h666.54a64.81,64.81,0,0,1,64.73,64.73Z" style="fill:#fff;" /><path class="cls-1" d="M349.05,1001.29c75.83,0,135.35-61.61,135.35-139.62,0-78.41-59.52-140.42-135.35-140.42s-135.36,62-135.36,140.42C213.69,939.68,273.22,1001.29,349.05,1001.29Zm0-219.63c41.33,0,72.8,34,72.8,80,0,45.61-31.47,79.21-72.8,79.21s-72.8-33.6-72.8-79.21C276.25,815.67,307.72,781.66,349.05,781.66Z" style="fill:#fff;" /><path class="cls-1" d="M580.33,978.09c14.4,14.8,34.12,23.2,59.14,23.2,50.43,0,92.89-42.8,92.89-106.41,0-63.21-42.46-106.42-92.89-106.42-25,0-44.74,8.4-59.14,23.21V794.46H519.66V1091.3h60.67ZM627,842.87c26.54,0,45.88,21.2,45.88,52,0,31.2-19.34,52-45.88,52-24.64,0-46.63-20.8-46.63-52C580.33,864.07,602.32,842.87,627,842.87Z" style="fill:#fff;" /><path class="cls-1" d="M851.79,1001.29c43.6,0,78.11-20.4,94.41-62.81l-53.84-11.6c-10.24,19.6-26.54,23.2-40.57,23.2-20.47,0-36-14.8-40.94-38.8H950.37v-16.4c-1.14-65.61-44.36-106.42-98.2-106.42-55.35,0-100.85,43.21-100.85,106.42C751.32,958.49,796.82,1001.29,851.79,1001.29Zm.38-160.82c17.44,0,32.61,10,38.3,31.6H812C817.67,851.67,835.11,840.47,852.17,840.47Z" style="fill:#fff;" /><path class="cls-1" d="M1114.54,885.68V995.29h60.29V872.07c0-50.4-29.58-83.61-73.94-83.61-23.89,0-44,9.2-58.39,25.21V794.46H981.84V995.29h60.66V902.08c0-38.81,15.55-56,39.43-56C1101.27,846.07,1114.54,862.07,1114.54,885.68Z" style="fill:#fff;" /><polygon class="cls-1" points="284.97 1150.64 222.41 1150.64 222.41 1418.68 410.09 1418.68 410.09 1361.08 284.97 1361.08 284.97 1150.64" style="fill:#fff;" /><path class="cls-1" d="M537.86,1212.65c-57.63,0-105.41,42.41-105.41,105.62,0,63.61,47.78,106,105.41,106,56.49,0,104.26-42.4,104.26-106C642.12,1255.06,594.35,1212.65,537.86,1212.65Zm0,157.63c-24.65,0-47-20.41-47-52,0-31.21,22.37-52,47-52,23.51,0,45.88,20.8,45.88,52C583.74,1349.87,561.37,1370.28,537.86,1370.28Z" style="fill:#fff;" /><path class="cls-1" d="M765,1267.86c19.33,0,34.88,11.2,40.19,35.61L862,1289.06c-10.62-47.2-50.81-77.21-97.06-77.21-56.88,0-103.89,43.21-103.89,106.42,0,63.61,47,106.41,103.89,106.41,47.39,0,87.58-30.8,97.06-78.41l-55.74-12.8c-6.44,24.4-22,35.21-41.32,35.21-27.3,0-45.5-20.81-45.5-50.41C719.47,1289.06,737.67,1267.86,765,1267.86Z" style="fill:#fff;" /><path class="cls-1" d="M976.53,1211.85c-45.5,0-78.86,24.41-87.21,63.21l57.26,12.4c3-17.6,13.64-25.2,31.84-25.2,15.93,0,26.92,11.2,26.92,28v4H956.81c-50.8,0-79.24,25.6-79.24,64.8,0,39.61,28.44,65.61,70.9,65.61,25.4,0,43.6-8.8,56.87-20.8v14.8h58.39V1291.46C1063.73,1240.26,1030,1211.85,976.53,1211.85Zm28.81,127.62c0,22.4-19,37.21-39.81,37.21-15.92,0-26.54-8-26.54-20.81,0-12.4,9.48-20.8,24.65-20.8h41.7Z" style="fill:#fff;" /><path class="cls-1" d="M1177.1,1367.88c-11,0-18.2-7.21-18.2-17.61V1110.64h-60.67v244.43c0,41.61,26.16,69.61,65.6,69.61,22,0,33.74-6.8,44.74-12.4l-9.48-50C1190.37,1365.48,1182.4,1367.88,1177.1,1367.88Z" style="fill:#fff;" /><path class="cls-1" d="M1639.38,1231.48l-93.16,82.58V828.87a45.28,45.28,0,1,0-90.56,0v485.19l-93.16-82.58a45.28,45.28,0,0,0-60.07,67.78l167.4,148.39,1.12,1a7.36,7.36,0,0,0,.7.57c.5.42,1,.86,1.73,1.39s1.1.85,1.64,1.22c.7.49,1.35.9,2,1.27l.23.15c.24.16.48.32.76.48s.64.37,1,.55c.83.47,1.6.83,2.27,1.16l.42.21c.45.22.9.44,1.36.64s.93.38,1.4.55l.26.1c.33.13.65.25,1,.36l.52.19c.37.14.74.28,1.08.39,1.27.4,2.6.76,4,1.07l.45.1,1,.18c.28,0,.57.1.92.14a45.35,45.35,0,0,0,6.43.63h1.85a47,47,0,0,0,6.48-.64l.9-.14c.32,0,.64-.1,1-.17l.37-.09c1.4-.3,2.76-.67,4.05-1.07.37-.12.74-.26,1.1-.4l.52-.19,1-.36.3-.11c.46-.17.91-.35,1.38-.55s.89-.41,1.33-.63l.47-.23c.66-.32,1.41-.68,2.26-1.15l.89-.51.1-.06.75-.48.16-.1c.57-.35,1.25-.78,1.94-1.27s1.12-.81,1.75-1.3,1.16-.91,1.65-1.32c.22-.17.46-.36.71-.58l1.46-1.28v0l167-148.08a45.28,45.28,0,0,0-60.07-67.78Z" style="fill:#fff;" /></svg>