<svg id="Layer_1" data-name="Layer 1" xmlns="http://www.w3.org/2000/svg" viewBox="0 0 2000 2000"><title>Locked</title><path d="M430.9,829.34v-6.85c.05-86-.6-172,.34-258,.91-83.43,19.55-163.17,56.6-238q107-216.07,335.42-294.13C889.94,9.65,958.84,1,1029.24,4.74c120.18,6.46,228.22,46.33,322.45,121.1,117.56,93.28,188,214.91,211.86,363.34a541.35,541.35,0,0,1,6.42,86q0,125.55.08,251.1c0,.88.12,1.75.26,3.51h6.18c38.5-.08,77-1.33,115.49.05,57.46,2,107.81,22.93,149.6,62.91,39.3,37.59,62.25,83.64,69,137.65a223.92,223.92,0,0,1,1.53,27.65q.12,357.2.06,714.41c0,111.1-78.79,205.24-188.15,224.45a190.48,190.48,0,0,1-32.76,2.94q-690,.23-1379.92.16c-48,0-91-15.13-129.26-43.36-50-36.85-80.18-86.37-90.42-147.73A217.46,217.46,0,0,1,89,1773.39q-.23-358-.11-716c0-110.45,79-205.11,187.17-224a286.34,286.34,0,0,1,44.35-3.94c33.89-.55,67.79-.15,101.68-.13Zm569.93,1004.18v.25H1003q340.72,0,681.44,0c34.67,0,61.37-27,61.37-62.17q0-356.4,0-712.81c0-35.53-26.78-62.29-62.36-62.29q-344.72.09-689.42.22-150.39,0-300.78,0-187.94,0-375.86,0c-35,0-61.75,26.67-61.76,61.72q-.09,356.94,0,713.88c0,34.63,27,61.2,61.68,61.21h683.55ZM1403.49,829.29V726.64c0-50.64.42-101.29-.21-151.93a441.31,441.31,0,0,0-4.61-60.45c-13.89-91.51-54.33-169.78-121.93-232.76-93.27-86.89-204-123.33-330.55-106.87C851,187,770.49,229.9,705.43,300.38c-71.71,77.69-107.53,170.13-107.85,276-.24,81.38.11,162.76.2,244.14v8.76Z"/><path d="M926.14,1409.25q0-73.82,0-147.63c0-41.75,33-75.08,74.4-75.33a74.7,74.7,0,0,1,75.36,74.88c.24,70.86.22,141.73.36,212.59,0,23.61.6,47.22.3,70.82-.21,16.31-1,32.59-9.16,47.57-16.79,31-51,46.27-85.27,37.68-32.81-8.22-56-38.32-56-72.95Q926.09,1483.07,926.14,1409.25Z"/></svg>