<svg id="Layer_1" data-name="Layer 1" xmlns="http://www.w3.org/2000/svg" viewBox="0 0 2000 2000"><defs><style>.cls-1{fill:#fff;}</style></defs><title>LogoutWhite</title><path class="cls-1" d="M1559.18,202.44C1514.87,173,1454.66,184.49,1424.73,228s-18.28,102.7,26,132.12c222.64,147.81,355.56,393.46,355.56,657.13,0,436.92-361.72,792.39-806.33,792.39S193.67,1454.2,193.67,1017.28c0-257.64,128.2-500.11,342.94-648.57,43.75-30.25,54.25-89.6,23.48-132.6s-91.21-53.29-134.92-23.06C158.94,397.12,0,697.76,0,1017.28,0,1559.16,448.59,2000,1000,2000s1000-440.84,1000-982.72C2000,690.31,1835.2,385.69,1559.18,202.44Z" style="fill:#fff;" /><path class="cls-1" d="M1000,1140.65c53.48,0,96.84-42.61,96.84-95.17V95.16C1096.84,42.61,1053.48,0,1000,0s-96.84,42.61-96.84,95.16v950.32C903.16,1098,946.52,1140.65,1000,1140.65Z" style="fill:#fff;" /></svg>