<svg id="Layer_1" data-name="Layer 1" xmlns="http://www.w3.org/2000/svg" viewBox="0 0 800 800"><title>Quizzes</title><path d="M800,238.61a73.51,73.51,0,0,0-1-12.12,77.29,77.29,0,0,0-76-64.34H318.53v-2.38q0-20.42,0-40.81a31.26,31.26,0,0,0-2.88-12.53c-4.15-9.54-11.37-16.65-19.49-22.73-7.09-5.31-15.3-7.64-24.3-7.63q-113.13.14-226.27.07a48.6,48.6,0,0,0-5.52.39,35.58,35.58,0,0,0-15.49,5.71A62.74,62.74,0,0,0,5.12,102.15,32.69,32.69,0,0,0,.05,119.27q0,194.55,0,389.11c0,4.73,1.37,9,3.14,13.2,2.85,6.79,7.86,11.91,13,17a45.51,45.51,0,0,0,14.93,10,41.18,41.18,0,0,0,6.23,2.2,22.27,22.27,0,0,0,5,.21c8.7,0,17.4,0,26.5,0v12.86c0,27.94,0,55.89,0,83.83a74.65,74.65,0,0,0,10,36.93,77.53,77.53,0,0,0,33.7,31.7,69.66,69.66,0,0,0,31.46,7.52l578.16,0a83.32,83.32,0,0,0,18.22-2c34.27-7.65,59.73-39.33,59.73-74.39Q800,443.08,800,238.61ZM757.51,647.16c0,17.22-13.78,32.58-31,33.94-8.22.66-16.51.31-24.78.41-2.3,0-4.6,0-6.9,0q-273.89,0-547.77,0c-18.12,0-31.28-12-34.73-27.1a35.63,35.63,0,0,1-.95-7.9q-.09-46.41,0-92.83v-2.45H242.89c-2.27-6-4.51-11.59-6.49-17.27-1.35-3.87-2.41-7.84-3.46-11.81-1.17-4.45-2.14-8.95-3.31-13.4-.14-.53-1-1-1.6-1.24a4.16,4.16,0,0,0-1.58,0q-84.52,0-169.06,0a31.79,31.79,0,0,1-7.32-1.2c-4-1-5.14-4.36-6-7.79a22.26,22.26,0,0,1-.44-5.1q0-180.26,0-360.52a21.17,21.17,0,0,1,1.41-7.05c1.61-4.43,5.64-5.54,9.69-5.56,22.74-.14,45.48,0,68.22-.08q69.07-.15,138.16-.34a30.77,30.77,0,0,1,7.33,1.21c4,1,5.14,4.35,6,7.78a22.26,22.26,0,0,1,.44,5.1q0,74,0,148.05v2.71c1.3-1.4,2.37-2.5,3.39-3.66,2.65-3,5.13-6.21,7.94-9.07,8.46-8.61,17-17.1,25.59-25.62,1.73-1.73,3.55-3.37,5.39-5a3.72,3.72,0,0,0,1.32-3.11c-.05-10.43,0-20.85,0-31.28v-2.35H721.88c17.41,0,31.46,11.35,35,28.33a29,29,0,0,1,.6,6Q757.54,443,757.51,647.16Z"/><path d="M700.68,500.83a32.15,32.15,0,0,1-1.75-15.93c2.07-12.84,3.71-25.71,3.66-38.74,0-1.73,0-3.46,0-5.19a205.74,205.74,0,0,0-5.44-45.73c-9.84-41.79-30-77.8-60.78-107.79a218.83,218.83,0,0,0-165.55-61.76,214.31,214.31,0,0,0-86.47,23.54A218.79,218.79,0,0,0,266.48,422.58a220.8,220.8,0,0,0,1,51.83,212.91,212.91,0,0,0,22.34,70.27c22.7,43.26,56,75.64,100.09,96.78C422.81,657.24,457.58,664,494,662.41A217.34,217.34,0,0,0,605.7,625.7c11.21-7.45,23.11-8.51,35.59-3.45q29.69,12.06,59.4,24.08a27.82,27.82,0,0,0,14.32,1.8c19.12-2.59,30.43-21.3,24-39.49Q719.84,554.73,700.68,500.83Zm-23.87,85.6c-8.86-3.47-17.53-7.62-26.63-10.28-24.81-7.26-48.33-3.67-69.91,10.58a174.71,174.71,0,0,1-67.57,27,171.38,171.38,0,0,1-46.19,1.48,168.34,168.34,0,0,1-76.68-27,171.46,171.46,0,0,1-75.59-115.77,175.53,175.53,0,0,1-1.81-40.84A166,166,0,0,1,330.54,366q27.43-53.2,81.75-78.6A162,162,0,0,1,469,272.51q72.24-5.42,127.48,41.52c24.48,20.82,41.5,46.81,51.45,77.39a171.91,171.91,0,0,1,8.05,44.9c.69,13.79-.81,27.39-2.92,41a79.5,79.5,0,0,0,3.9,39.37q12.45,35,24.85,70c.19.54.33,1.1.59,2C680.33,587.83,678.57,587.12,676.81,586.43Z"/><path d="M553.8,332.24c-14.35-18.11-33.66-27.32-56.19-30.35a122.66,122.66,0,0,0-36.84.6c-13.92,2.33-26.74,7.24-37.53,16.63-15.36,13.35-22,30.12-19.1,50.34,1.43,10,6.92,17,17,19.53a45.1,45.1,0,0,0,23.35-.31c10.42-2.86,15.71-9.91,15.38-20.73-.13-4.56-1.18-9.1-1.88-13.64s-1.72-9.29-.94-14.08c1.4-8.57,7.11-14.15,15.42-14.64,6.08-.36,12.71,2.52,14.09,9.78A93.76,93.76,0,0,1,488.22,350c.25,9.52.07,19.05.07,28.58.4,9.28.71,18.65-2,27.59A159.92,159.92,0,0,1,478.14,427a132.78,132.78,0,0,0-11.5,38.14c-1.47,11.05-2.27,22.14-1.26,33.29.39,4.23,1.81,6,5.91,6.09,6.66.19,13.34.22,20-.07,4.92-.22,6.44-1.85,6.91-6.8.67-7.22,1-14.48,1.67-21.71.81-8.94,3.12-17.34,9.75-23.92,3.64-3.62,7.3-7.22,11.08-10.69,8.9-8.14,18-16,26.75-24.35a57.86,57.86,0,0,0,13.12-18,68.34,68.34,0,0,0,6.07-31.27C566.08,354.5,562,342.58,553.8,332.24Z"/><path d="M483.65,526a33.35,33.35,0,1,0,33.09,33.8A33.37,33.37,0,0,0,483.65,526Z"/></svg>