<svg xmlns="http://www.w3.org/2000/svg" viewBox="0 0 391 391" width="391" height="391">
  <path d="M 178 0 L 177 1 L 169 1 L 168 2 L 162 2 L 161 3 L 157 3 L 156 4 L 152 4 L 151 5 L 148 5 L 147 6 L 144 6 L 143 7 L 140 7 L 139 8 L 137 8 L 136 9 L 134 9 L 133 10 L 131 10 L 130 11 L 128 11 L 127 12 L 126 12 L 125 13 L 123 13 L 122 14 L 120 14 L 119 15 L 118 15 L 117 16 L 116 16 L 115 17 L 114 17 L 113 18 L 111 18 L 110 19 L 109 19 L 107 21 L 106 21 L 105 22 L 104 22 L 103 23 L 102 23 L 101 24 L 100 24 L 99 25 L 98 25 L 96 27 L 95 27 L 94 28 L 93 28 L 91 30 L 90 30 L 89 31 L 88 31 L 86 33 L 85 33 L 82 36 L 81 36 L 79 38 L 78 38 L 74 42 L 73 42 L 68 47 L 67 47 L 47 67 L 47 68 L 42 73 L 42 74 L 38 78 L 38 79 L 35 82 L 35 83 L 33 85 L 33 86 L 31 88 L 31 89 L 30 90 L 30 91 L 28 93 L 28 94 L 27 95 L 27 96 L 25 98 L 25 99 L 24 100 L 24 101 L 23 102 L 23 103 L 22 104 L 22 105 L 21 106 L 21 107 L 19 109 L 19 110 L 18 111 L 18 113 L 17 114 L 17 115 L 16 116 L 16 117 L 15 118 L 15 119 L 14 120 L 14 122 L 13 123 L 13 125 L 12 126 L 12 127 L 11 128 L 11 130 L 10 131 L 10 133 L 9 134 L 9 136 L 8 137 L 8 139 L 7 140 L 7 143 L 6 144 L 6 147 L 5 148 L 5 151 L 4 152 L 4 156 L 3 157 L 3 161 L 2 162 L 2 168 L 1 169 L 1 177 L 0 178 L 0 212 L 1 213 L 1 221 L 2 222 L 2 228 L 3 229 L 3 233 L 4 234 L 4 238 L 5 239 L 5 242 L 6 243 L 6 246 L 7 247 L 7 250 L 8 251 L 8 253 L 9 254 L 9 256 L 10 257 L 10 259 L 11 260 L 11 262 L 12 263 L 12 265 L 13 266 L 13 268 L 14 269 L 14 270 L 15 271 L 15 272 L 16 273 L 16 274 L 17 275 L 17 277 L 18 278 L 18 279 L 19 280 L 19 281 L 20 282 L 20 283 L 21 284 L 21 285 L 22 286 L 22 287 L 24 289 L 24 290 L 25 291 L 25 292 L 26 293 L 26 294 L 28 296 L 28 297 L 29 298 L 29 299 L 31 301 L 31 302 L 33 304 L 33 305 L 35 307 L 35 308 L 38 311 L 38 312 L 41 315 L 41 316 L 46 321 L 46 322 L 53 329 L 53 330 L 60 337 L 61 337 L 69 345 L 70 345 L 74 349 L 75 349 L 79 353 L 80 353 L 82 355 L 83 355 L 86 358 L 87 358 L 88 359 L 89 359 L 91 361 L 92 361 L 94 363 L 95 363 L 96 364 L 97 364 L 98 365 L 99 365 L 101 367 L 102 367 L 103 368 L 104 368 L 105 369 L 106 369 L 107 370 L 108 370 L 109 371 L 110 371 L 111 372 L 112 372 L 113 373 L 114 373 L 115 374 L 117 374 L 118 375 L 119 375 L 120 376 L 121 376 L 122 377 L 124 377 L 125 378 L 127 378 L 128 379 L 130 379 L 131 380 L 133 380 L 134 381 L 135 381 L 136 382 L 139 382 L 140 383 L 142 383 L 143 384 L 146 384 L 147 385 L 150 385 L 151 386 L 155 386 L 156 387 L 160 387 L 161 388 L 167 388 L 168 389 L 175 389 L 176 390 L 201 390 L 202 389 L 203 389 L 204 388 L 205 388 L 210 383 L 210 382 L 211 381 L 211 379 L 212 378 L 212 371 L 211 370 L 211 368 L 210 367 L 210 366 L 205 361 L 204 361 L 203 360 L 202 360 L 201 359 L 197 359 L 196 358 L 178 358 L 177 357 L 170 357 L 169 356 L 164 356 L 163 355 L 160 355 L 159 354 L 156 354 L 155 353 L 152 353 L 151 352 L 148 352 L 147 351 L 145 351 L 144 350 L 143 350 L 142 349 L 140 349 L 139 348 L 137 348 L 136 347 L 134 347 L 133 346 L 132 346 L 131 345 L 130 345 L 129 344 L 128 344 L 127 343 L 125 343 L 124 342 L 123 342 L 122 341 L 121 341 L 120 340 L 119 340 L 118 339 L 117 339 L 115 337 L 114 337 L 113 336 L 112 336 L 110 334 L 109 334 L 108 333 L 107 333 L 105 331 L 104 331 L 101 328 L 100 328 L 98 326 L 97 326 L 93 322 L 92 322 L 87 317 L 86 317 L 73 304 L 73 303 L 68 298 L 68 297 L 64 293 L 64 292 L 62 290 L 62 289 L 59 286 L 59 285 L 57 283 L 57 282 L 56 281 L 56 280 L 54 278 L 54 277 L 53 276 L 53 275 L 52 274 L 52 273 L 50 271 L 50 270 L 49 269 L 49 268 L 48 267 L 48 266 L 47 265 L 47 263 L 46 262 L 46 261 L 45 260 L 45 259 L 44 258 L 44 256 L 43 255 L 43 254 L 42 253 L 42 251 L 41 250 L 41 248 L 40 247 L 40 246 L 39 245 L 39 243 L 38 242 L 38 238 L 37 237 L 37 234 L 36 233 L 36 230 L 35 229 L 35 226 L 34 225 L 34 220 L 33 219 L 33 212 L 32 211 L 32 180 L 33 179 L 33 171 L 34 170 L 34 165 L 35 164 L 35 161 L 36 160 L 36 157 L 37 156 L 37 153 L 38 152 L 38 149 L 39 148 L 39 145 L 40 144 L 40 143 L 41 142 L 41 140 L 42 139 L 42 138 L 43 137 L 43 135 L 44 134 L 44 133 L 45 132 L 45 130 L 46 129 L 46 128 L 47 127 L 47 126 L 48 125 L 48 123 L 49 122 L 49 121 L 50 120 L 50 119 L 52 117 L 52 116 L 53 115 L 53 114 L 55 112 L 55 111 L 56 110 L 56 109 L 58 107 L 58 106 L 59 105 L 59 104 L 62 101 L 62 100 L 65 97 L 65 96 L 68 93 L 68 92 L 74 86 L 74 85 L 84 75 L 85 75 L 92 68 L 93 68 L 96 65 L 97 65 L 100 62 L 101 62 L 103 60 L 104 60 L 106 58 L 107 58 L 109 56 L 110 56 L 111 55 L 112 55 L 114 53 L 115 53 L 116 52 L 117 52 L 119 50 L 120 50 L 121 49 L 122 49 L 123 48 L 125 48 L 126 47 L 127 47 L 128 46 L 129 46 L 130 45 L 132 45 L 133 44 L 134 44 L 135 43 L 137 43 L 138 42 L 139 42 L 140 41 L 142 41 L 143 40 L 145 40 L 146 39 L 148 39 L 149 38 L 152 38 L 153 37 L 156 37 L 157 36 L 160 36 L 161 35 L 165 35 L 166 34 L 170 34 L 171 33 L 179 33 L 180 32 L 211 32 L 212 33 L 219 33 L 220 34 L 225 34 L 226 35 L 229 35 L 230 36 L 233 36 L 234 37 L 237 37 L 238 38 L 242 38 L 243 39 L 245 39 L 246 40 L 247 40 L 248 41 L 250 41 L 251 42 L 253 42 L 254 43 L 255 43 L 256 44 L 258 44 L 259 45 L 260 45 L 261 46 L 262 46 L 263 47 L 264 47 L 265 48 L 267 48 L 268 49 L 269 49 L 270 50 L 271 50 L 273 52 L 274 52 L 275 53 L 276 53 L 277 54 L 278 54 L 280 56 L 281 56 L 283 58 L 284 58 L 285 59 L 286 59 L 289 62 L 290 62 L 292 64 L 293 64 L 297 68 L 298 68 L 303 73 L 304 73 L 317 86 L 317 87 L 323 93 L 323 94 L 326 97 L 326 98 L 329 101 L 329 102 L 331 104 L 331 105 L 333 107 L 333 108 L 335 110 L 335 111 L 336 112 L 336 113 L 337 114 L 337 115 L 339 117 L 339 118 L 340 119 L 340 120 L 341 121 L 341 122 L 342 123 L 342 124 L 343 125 L 343 127 L 344 128 L 344 129 L 345 130 L 345 131 L 346 132 L 346 133 L 347 134 L 347 136 L 348 137 L 348 139 L 349 140 L 349 141 L 350 142 L 350 144 L 351 145 L 351 147 L 352 148 L 352 151 L 353 152 L 353 155 L 354 156 L 354 159 L 355 160 L 355 163 L 356 164 L 356 169 L 357 170 L 357 177 L 358 178 L 358 213 L 357 214 L 357 220 L 356 221 L 356 226 L 355 227 L 355 231 L 354 232 L 354 234 L 353 235 L 353 238 L 352 239 L 352 242 L 351 243 L 351 245 L 350 246 L 350 248 L 349 249 L 349 251 L 348 252 L 348 253 L 347 254 L 347 256 L 346 257 L 346 258 L 345 259 L 345 260 L 344 261 L 344 263 L 343 264 L 343 265 L 342 266 L 342 267 L 341 268 L 341 269 L 340 270 L 340 271 L 339 272 L 339 273 L 337 275 L 337 276 L 336 277 L 336 278 L 335 279 L 335 280 L 333 282 L 333 283 L 331 285 L 331 286 L 329 288 L 329 289 L 326 292 L 326 293 L 323 296 L 323 297 L 318 302 L 318 303 L 303 318 L 302 318 L 297 323 L 296 323 L 295 322 L 295 256 L 294 255 L 294 253 L 293 252 L 293 251 L 292 250 L 292 249 L 288 245 L 287 245 L 286 244 L 284 244 L 283 243 L 275 243 L 274 244 L 272 244 L 270 246 L 269 246 L 266 249 L 266 250 L 265 251 L 265 252 L 264 253 L 264 255 L 263 256 L 263 354 L 264 355 L 264 358 L 265 359 L 265 360 L 266 361 L 266 362 L 271 367 L 272 367 L 273 368 L 274 368 L 275 369 L 277 369 L 278 370 L 379 370 L 380 369 L 381 369 L 382 368 L 383 368 L 385 366 L 386 366 L 386 365 L 389 362 L 389 360 L 390 359 L 390 350 L 389 349 L 389 347 L 386 344 L 386 343 L 385 343 L 382 340 L 380 340 L 379 339 L 373 339 L 372 338 L 331 338 L 330 337 L 340 327 L 340 326 L 346 320 L 346 319 L 351 314 L 351 313 L 353 311 L 353 310 L 356 307 L 356 306 L 358 304 L 358 303 L 360 301 L 360 300 L 361 299 L 361 298 L 363 296 L 363 295 L 364 294 L 364 293 L 366 291 L 366 290 L 367 289 L 367 288 L 368 287 L 368 286 L 369 285 L 369 284 L 370 283 L 370 282 L 371 281 L 371 280 L 372 279 L 372 278 L 373 277 L 373 276 L 374 275 L 374 274 L 375 273 L 375 272 L 376 271 L 376 269 L 377 268 L 377 266 L 378 265 L 378 263 L 379 262 L 379 261 L 380 260 L 380 258 L 381 257 L 381 255 L 382 254 L 382 252 L 383 251 L 383 248 L 384 247 L 384 244 L 385 243 L 385 241 L 386 240 L 386 235 L 387 234 L 387 230 L 388 229 L 388 224 L 389 223 L 389 217 L 390 216 L 390 174 L 389 173 L 389 168 L 388 167 L 388 161 L 387 160 L 387 156 L 386 155 L 386 151 L 385 150 L 385 147 L 384 146 L 384 144 L 383 143 L 383 140 L 382 139 L 382 137 L 381 136 L 381 134 L 380 133 L 380 131 L 379 130 L 379 128 L 378 127 L 378 125 L 377 124 L 377 123 L 376 122 L 376 120 L 375 119 L 375 118 L 374 117 L 374 116 L 373 115 L 373 114 L 372 113 L 372 111 L 371 110 L 371 109 L 370 108 L 370 107 L 368 105 L 368 104 L 367 103 L 367 102 L 366 101 L 366 100 L 365 99 L 365 98 L 363 96 L 363 95 L 362 94 L 362 93 L 360 91 L 360 90 L 358 88 L 358 87 L 356 85 L 356 84 L 354 82 L 354 81 L 351 78 L 351 77 L 347 73 L 347 72 L 342 67 L 342 66 L 324 48 L 323 48 L 318 43 L 317 43 L 313 39 L 312 39 L 309 36 L 308 36 L 306 34 L 305 34 L 303 32 L 302 32 L 300 30 L 299 30 L 298 29 L 297 29 L 295 27 L 294 27 L 293 26 L 292 26 L 290 24 L 289 24 L 288 23 L 287 23 L 286 22 L 285 22 L 284 21 L 283 21 L 282 20 L 281 20 L 280 19 L 279 19 L 278 18 L 277 18 L 276 17 L 275 17 L 274 16 L 273 16 L 272 15 L 270 15 L 269 14 L 268 14 L 267 13 L 265 13 L 264 12 L 262 12 L 261 11 L 259 11 L 258 10 L 257 10 L 256 9 L 254 9 L 253 8 L 251 8 L 250 7 L 247 7 L 246 6 L 243 6 L 242 5 L 239 5 L 238 4 L 234 4 L 233 3 L 229 3 L 228 2 L 222 2 L 221 1 L 213 1 L 212 0 Z " fill="gray"/>
</svg>
