<svg id="Layer_1" data-name="Layer 1" xmlns="http://www.w3.org/2000/svg" viewBox="0 0 2000 2000"><defs><style>.cls-1{fill:#fff;}</style></defs><title>ResetWhite</title><path class="cls-1" d="M184,0A83.41,83.41,0,0,0,100.6,83.41v479h0a90.56,90.56,0,0,0,90.56,90.55h479a83.4,83.4,0,0,0,83.4-83.41h0a83.4,83.4,0,0,0-83.4-83.4H339.26C492.41,289.49,731.39,163,999.93,163c462.58,0,836.36,373.08,837.09,835.66.73,462.9-374.29,838.38-837,838.38-462.27,0-837-374.75-837-837,0-1.79,0-3.59,0-5.38a81.43,81.43,0,0,0-81.49-81.84h0A81.54,81.54,0,0,0,0,993.91q0,3,0,6.09c0,552.28,447.71,1000,1000,1000,551.85,0,1000-448.15,1000-1000C2000,447.71,1552.28,0,1000,0,710.65,0,450,122.89,267.42,319.32V83.41A83.41,83.41,0,0,0,184,0Z" style="fill:#fff;" /></svg>