<svg id="Layer_1" data-name="Layer 1" xmlns="http://www.w3.org/2000/svg" viewBox="0 0 2000 2000"><defs><style>.cls-1{fill:#7f7f7f;}</style></defs><title>RotateLarge1</title><path class="cls-1" d="M2000,184a83.41,83.41,0,0,0-83.41-83.41h-479a90.56,90.56,0,0,0-90.55,90.56v479a83.4,83.4,0,0,0,83.41,83.4h0a83.4,83.4,0,0,0,83.4-83.4V339.26C1710.51,492.41,1837,731.39,1837,999.93c0,462.58-373.08,836.36-835.66,837.09-462.9.73-838.38-374.29-838.38-837,0-462.27,374.75-837,837-837l5.38,0a81.43,81.43,0,0,0,81.84-81.49h0A81.55,81.55,0,0,0,1006.08,0L1000,0C447.72,0,0,447.71,0,1000c0,551.85,448.15,1000,1000,1000,552.29,0,1000-447.72,1000-1000,0-289.35-122.89-550-319.32-732.58h235.91A83.41,83.41,0,0,0,2000,184Z" style="fill:#7f7f7f;" /></svg>