<svg id="Layer_1" data-name="Layer 1" xmlns="http://www.w3.org/2000/svg" viewBox="0 0 2000 2000"><defs><style>.cls-1{fill:#7f7f7f;}</style></defs><title>ds</title><path class="cls-1" d="M2000,1816a83.41,83.41,0,0,1-83.41,83.41h-479a90.56,90.56,0,0,1-90.55-90.56v-479a83.4,83.4,0,0,1,83.41-83.4h0a83.4,83.4,0,0,1,83.4,83.4v330.88C1710.51,1507.59,1837,1268.61,1837,1000.07c0-462.58-373.08-836.36-835.66-837.09C538.46,162.25,163,537.27,163,1000c0,462.27,374.75,837,837,837l5.38,0a81.43,81.43,0,0,1,81.84,81.48h0a81.55,81.55,0,0,1-81.14,81.5l-6.08,0C447.72,2000,0,1552.29,0,1000,0,448.15,448.15,0,1000,0c552.29,0,1000,447.72,1000,1000,0,289.35-122.89,550-319.32,732.58h235.91A83.41,83.41,0,0,1,2000,1816Z" style="fill:#7f7f7f;" /></svg>