<?xml version="1.0" encoding="UTF-8"?>
<svg version="1.1" xmlns="http://www.w3.org/2000/svg" width="993" height="993">
<path d="M0 0 C7.09597759 6.91432056 9.88832544 13.16463633 12.59375 22.64453125 C13.40562461 25.19473416 14.23481391 27.1784476 15.625 29.4375 C17.59926816 32.74917562 18.64439706 35.78207154 19.78125 39.43359375 C20.54783961 41.64520478 21.47582978 43.61706394 22.5625 45.6875 C24.00231348 48.43672876 25.07970732 51.09884562 26 54.0625 C27.05822685 57.42122 28.37782822 60.43685194 30 63.5625 C32.28825759 67.98096736 34.01696016 72.45530934 35.65625 77.1484375 C36.42779654 79.31009806 37.26275991 81.40083999 38.1875 83.5 C39.5625 86.6875 39.5625 86.6875 40.4375 89.5 C41.4460893 92.35766969 42.62328305 94.87071015 44 97.5625 C45.86932372 101.21915955 47.44451214 104.83851724 48.8203125 108.703125 C49.62349853 110.8505908 50.54631269 112.91519517 51.5 115 C53.01631386 118.34972758 54.33040734 121.72314536 55.5625 125.1875 C57.32734006 130.14289405 59.37742475 134.90593366 61.5625 139.6875 C63.66909423 144.51511177 65.64549554 149.38456833 67.59375 154.27734375 C69.15307542 158.1567945 70.78887449 161.99987339 72.53125 165.80078125 C74.57497588 170.28304369 76.27812169 174.74058071 77.78125 179.4296875 C79.11873264 183.29501234 80.86218331 186.9714853 82.5625 190.6875 C83.5625 193.02083333 84.5625 195.35416667 85.5625 197.6875 C85.89378906 198.409375 86.22507812 199.13125 86.56640625 199.875 C88.12816269 203.28665982 89.51012095 206.49544347 90.5 210.125 C91.67638149 214.06933793 93.38187677 217.42470564 95.265625 221.0703125 C96.932309 224.4338013 98.30073344 227.87689275 99.65625 231.375 C100.45071765 233.40226228 101.30012484 235.38727964 102.1875 237.375 C103.5625 240.6875 103.5625 240.6875 104.4375 244.0625 C105.39467733 247.14673808 106.40013998 249.31169591 108 252.0625 C110.16578448 255.79246215 111.55539428 259.39314973 112.81640625 263.50390625 C113.56490231 265.69453086 114.48780127 267.6394892 115.5625 269.6875 C117.39622888 273.18825513 118.59603087 276.70696754 119.78125 280.46875 C120.55330188 282.66137733 121.48482875 284.63012762 122.5625 286.6875 C124.39622888 290.18825513 125.59603087 293.70696754 126.78125 297.46875 C127.55330188 299.66137733 128.48482875 301.63012762 129.5625 303.6875 C131.00231348 306.43672876 132.07970732 309.09884562 133 312.0625 C134.05822685 315.42122 135.37782822 318.43685194 137 321.5625 C139.69789735 326.78005523 141.63842053 332.14747809 143.5625 337.6875 C145.7877921 343.74523961 147.99946307 349.71685016 151 355.4375 C153.01219021 359.40304444 154.50040055 363.30107804 155.81640625 367.5390625 C156.8093502 370.39832519 158.19195178 372.98008977 159.59375 375.65625 C160.61573723 377.79912644 161.34938721 379.92414201 162.0625 382.1875 C163.24337972 385.92909172 164.78910215 389.26449243 166.59765625 392.73828125 C167.83467313 395.23735584 168.76906841 397.79770593 169.71484375 400.41796875 C171.51354245 405.23383947 173.56231279 409.95263062 175.5625 414.6875 C175.84222656 415.35007812 176.12195313 416.01265625 176.41015625 416.6953125 C177.42239204 419.07379004 178.45046196 421.44301212 179.52734375 423.79296875 C181.57288477 428.27772095 183.27720652 432.73772578 184.78125 437.4296875 C186.11873264 441.29501234 187.86218331 444.9714853 189.5625 448.6875 C190.5625 451.02083333 191.5625 453.35416667 192.5625 455.6875 C193.24951347 457.20855318 193.93703804 458.72937558 194.625 460.25 C195.71327101 462.68429041 196.67212067 465.02367007 197.5 467.5625 C198.82122302 471.44845006 200.54546337 475.08885601 202.265625 478.8125 C203.84081113 482.30447888 205.25908857 485.84401438 206.65625 489.41015625 C207.45669663 491.42162342 208.306793 493.3978128 209.1875 495.375 C210.5625 498.6875 210.5625 498.6875 211.5 502.1875 C212.47302436 505.39275672 213.76572016 507.83030731 215.4921875 510.67578125 C217.24161296 513.96393494 218.33717549 517.47730249 219.55859375 520.98828125 C220.44672862 523.37622365 221.44273409 525.56035088 222.625 527.8125 C224.43717678 531.26762304 225.61106939 534.75469849 226.78125 538.46875 C227.55330188 540.66137733 228.48482875 542.63012762 229.5625 544.6875 C231.39622888 548.18825513 232.59603087 551.70696754 233.78125 555.46875 C234.55330188 557.66137733 235.48482875 559.63012762 236.5625 561.6875 C238.00231348 564.43672876 239.07970732 567.09884562 240 570.0625 C241.07024411 573.46622717 242.41987263 576.51992603 244.0625 579.6875 C246.04968695 583.53137207 247.52941438 587.29817005 248.828125 591.41796875 C250.48889162 596.55044431 252.37930705 601.61778034 255.06005859 606.30712891 C259.64475578 614.37298258 260.51425194 621.06417405 260.375 630.25 C260.40658203 631.48685547 260.43816406 632.72371094 260.47070312 633.99804688 C260.43407375 643.89321006 257.51647547 650.3773341 250.78662109 657.59106445 C243.50171513 664.56693484 233.55415409 668.30707752 223.625 668.9375 C212.70868983 668.55521676 203.20652119 664.397757 195.1875 656.9375 C189.56038587 650.8961198 186.7830537 643.75226224 184.37890625 635.9765625 C183.13781033 632.49674333 181.3855524 629.30606534 179.6875 626.03125 C178.23944796 623.01447491 177.45671297 619.9066667 176.5625 616.6875 C175.9426675 615.38315682 175.29489692 614.09185202 174.625 612.8125 C173.16454419 610.02045213 172.05747521 607.32185182 171.125 604.3125 C170.05475589 600.90877283 168.70512737 597.85507397 167.0625 594.6875 C165.05040803 590.80746594 163.6041283 587.00458476 162.30859375 582.83984375 C161.31005407 579.95923974 159.93685435 577.34393051 158.53125 574.64453125 C157.27160244 572.09984001 156.30814821 569.4920377 155.34375 566.82421875 C152.9783128 560.35474801 150.28836257 554.01150116 147.5625 547.6875 C146.72722248 545.68831119 145.89407043 543.68823363 145.0625 541.6875 C142.78207846 536.20492964 140.47422084 530.73887189 138.0625 525.3125 C136.94735869 522.61757516 136.00373295 520.01919627 135.125 517.25 C133.91251356 513.50462303 132.35200607 510.13522942 130.53125 506.65234375 C129.25530015 504.06442933 128.31680649 501.39651754 127.34375 498.68359375 C126.53745582 496.62351211 125.58705708 494.7098535 124.5625 492.75 C122.78029416 489.2931932 121.58156636 485.83347586 120.421875 482.12890625 C119.07895416 478.31379022 117.30812337 474.70941034 115.55078125 471.0703125 C114.5625 468.6875 114.5625 468.6875 114.5625 465.6875 C113.88324463 465.85121094 113.20398926 466.01492188 112.50415039 466.18359375 C109.1108893 466.76486115 105.93920904 466.7822645 102.49609375 466.75 C101.82135513 466.74621338 101.14661652 466.74242676 100.45143127 466.73852539 C97.58920499 466.72235474 94.72712684 466.69448441 91.86499023 466.66699219 C81.8771817 466.55933115 81.8771817 466.55933115 71.9140625 467.1875 C62.48023171 468.09655351 52.96638525 467.75302751 43.5 467.6875 C39.61328339 467.66064435 35.72661943 467.64078139 31.83984375 467.625 C30.53780251 467.61255249 30.53780251 467.61255249 29.2094574 467.59985352 C24.7941303 467.58251851 20.4734463 467.75065233 16.07836914 468.1875 C10.71108662 468.71960421 5.42102608 468.80008317 0.03125 468.75 C-0.92591919 468.74621338 -1.88308838 468.74242676 -2.8692627 468.73852539 C-6.908178 468.72238751 -10.94698617 468.69416372 -14.98583984 468.66699219 C-17.959305 468.6487589 -20.93275329 468.63676334 -23.90625 468.625 C-25.2458075 468.61255249 -25.2458075 468.61255249 -26.61242676 468.59985352 C-32.05001864 468.57907904 -37.35672909 468.92518648 -42.76608276 469.46264648 C-46.85535399 469.80684094 -50.91878895 469.79238044 -55.01953125 469.75 C-56.83723907 469.74142684 -58.65494743 469.73296808 -60.47265625 469.72460938 C-61.41383301 469.71840576 -62.35500977 469.71220215 -63.32470703 469.70581055 C-80.40917651 469.59887221 -97.46487281 469.72547984 -114.53857422 470.35620117 C-122.64555354 470.63917942 -130.67066542 470.66010522 -138.77734375 470.33203125 C-141.32268011 470.25064485 -143.86810815 470.17291345 -146.41357422 470.09570312 C-148.03488074 470.03266482 -149.65550683 469.94774384 -151.27441406 469.83935547 C-156.21995523 469.50833834 -160.63102325 469.35895283 -165.4375 470.6875 C-169.01725144 474.23088749 -170.73671338 477.99187419 -172.4375 482.6875 C-172.71456787 483.39430908 -172.99163574 484.10111816 -173.27709961 484.8293457 C-173.99427485 486.77226793 -173.99427485 486.77226793 -174.6875 489.6875 C-175.75743232 493.80573006 -176.88906479 496.33118455 -179.4375 499.6875 C-180.1693227 501.64351142 -180.83253912 503.62610844 -181.4375 505.625 C-182.39045474 508.76577999 -183.28017906 511.42636321 -184.9765625 514.2421875 C-186.51562185 516.8182601 -187.14962545 518.96093462 -187.8125 521.875 C-189.04322527 526.66970054 -190.8086733 530.72014812 -193.109375 535.0859375 C-196.2675532 541.27225126 -198.88076541 547.74260867 -200.9375 554.375 C-201.94493808 557.55758849 -203.24699108 560.24710981 -204.9375 563.125 C-207.25765814 567.0935093 -208.49133557 570.94644453 -209.6953125 575.36328125 C-210.5531764 578.04974979 -211.91340438 580.26109598 -213.40234375 582.64453125 C-214.79807171 585.39911889 -215.5759162 588.2243275 -216.4375 591.1875 C-218.45474138 598.10600754 -218.45474138 598.10600754 -220.4375 601.3125 C-223.14353244 605.87892974 -224.71515343 610.6825635 -226.4375 615.6875 C-228.66945776 622.1665029 -231.13124521 628.26813285 -234.28515625 634.35546875 C-235.31762077 636.44489695 -236.15936555 638.49377632 -236.9375 640.6875 C-241.30938964 652.66792686 -247.71279274 661.93659796 -259.4375 667.6875 C-268.07276188 671.24172373 -280.21839126 671.34722809 -289 668.125 C-298.95221248 663.26900667 -307.73524405 655.30401477 -311.4375 644.6875 C-313.92054596 634.2459734 -314.60173594 623.73968086 -309.0625 614.1875 C-308.62292969 613.47851562 -308.18335938 612.76953125 -307.73046875 612.0390625 C-305.71557162 608.37450639 -304.65183091 604.44657291 -303.40625 600.46875 C-302.57710107 598.08829018 -301.6982459 596.1877131 -300.375 594.0625 C-298.30562901 590.45778925 -297.32236281 587.13134544 -296.21484375 583.15625 C-295.27529898 580.17236911 -293.9377901 577.57545156 -292.4765625 574.8203125 C-290.81610951 571.41201425 -289.62920972 567.84427555 -288.3671875 564.2734375 C-287.19490707 561.0127247 -285.8291649 557.86049596 -284.4375 554.6875 C-283.60259918 552.66731376 -282.7694109 550.64641932 -281.9375 548.625 C-280.24786101 544.55473534 -278.40820704 540.62891407 -276.4375 536.6875 C-273.38401679 529.6871564 -271.03766312 522.49072954 -268.78125 515.203125 C-267.40254694 511.59605303 -265.5879796 508.87702321 -263.4375 505.6875 C-262.24405473 502.67954394 -262.24405473 502.67954394 -261.375 499.625 C-260.14938986 495.5378795 -258.62665789 492.33230574 -256.4375 488.6875 C-255.72043018 486.70501285 -255.05459587 484.70334651 -254.4375 482.6875 C-253.1838508 478.59224593 -251.63281513 475.34635856 -249.4375 471.6875 C-248.72043018 469.70501285 -248.05459587 467.70334651 -247.4375 465.6875 C-246.49212239 462.59926649 -245.60337145 459.96352045 -243.9375 457.19140625 C-241.73974971 453.52276579 -240.73294043 449.60118442 -239.5 445.52734375 C-238.4375 442.6875 -238.4375 442.6875 -236.93359375 440.73828125 C-234.91079045 437.9655091 -234.34352247 435.25366558 -233.5 431.9375 C-232.20413403 427.16792488 -230.81209192 422.9441088 -228.44140625 418.62109375 C-227.23898242 416.30514124 -226.31491568 413.93377406 -225.375 411.5 C-224.34650353 408.85242509 -223.38400599 406.60190959 -221.875 404.1875 C-220.45285056 401.71419663 -219.77167127 399.60903961 -219 396.875 C-217.87212944 392.89220709 -216.41590575 389.46994515 -214.4765625 385.828125 C-212.82826936 382.43239328 -211.6695707 378.87359807 -210.46484375 375.30078125 C-209.4375 372.6875 -209.4375 372.6875 -207.90234375 370.1484375 C-206.45988353 367.72510432 -205.75421287 365.71744342 -205.0625 363 C-203.76220436 358.40471437 -201.90086577 354.41618836 -199.69921875 350.19140625 C-196.96565251 344.76658904 -194.85879282 339.1086774 -193.0625 333.3125 C-191.87608156 329.62358146 -190.28418051 326.31368373 -188.5 322.875 C-185.89273663 317.82826744 -184.01498082 312.81740139 -182.39453125 307.37890625 C-181.4375 304.6875 -181.4375 304.6875 -179.94921875 302.21484375 C-178.28298434 299.42917537 -177.38631104 296.78694941 -176.4375 293.6875 C-175.1838508 289.59224593 -173.63281513 286.34635856 -171.4375 282.6875 C-170.72043018 280.70501285 -170.05459587 278.70334651 -169.4375 276.6875 C-168.18399088 272.59270355 -166.63351126 269.34560754 -164.4375 265.6875 C-163.74193765 263.74627277 -163.09723558 261.78619699 -162.5 259.8125 C-161.3999268 256.37424841 -160.35938837 253.24744775 -158.4375 250.1875 C-155.97615891 246.24935425 -154.77452178 241.94047491 -153.37109375 237.5390625 C-152.26250918 234.1530092 -150.88410214 230.94235481 -149.4375 227.6875 C-148.44870124 225.16765801 -147.46901584 222.64470381 -146.5 220.1171875 C-145.4375 217.6875 -145.4375 217.6875 -143.9375 215.25390625 C-142.31037093 212.4699901 -141.38796383 209.82712666 -140.4375 206.75 C-139.06903586 202.4891003 -137.47370131 198.6750609 -135.4375 194.6875 C-134.41901364 191.92773051 -133.44799706 189.15583512 -132.5 186.37109375 C-131.4375 183.6875 -131.4375 183.6875 -129.9375 181.22265625 C-128.28729048 178.43363026 -127.38483583 175.78213038 -126.4375 172.6875 C-125.49212239 169.59926649 -124.60337145 166.96352045 -122.9375 164.19140625 C-120.73974971 160.52276579 -119.73294043 156.60118442 -118.5 152.52734375 C-117.4375 149.6875 -117.4375 149.6875 -115.90234375 147.6484375 C-114.12543116 145.26974384 -113.65684741 143.2594169 -113 140.375 C-111.97461023 136.32684664 -110.72539846 133.18361355 -108.47265625 129.62890625 C-107.10935602 127.07207524 -106.31002993 124.4488006 -105.4375 121.6875 C-104.34554246 118.23605774 -103.29102909 115.13688888 -101.375 112.0625 C-99.30562901 108.45778925 -98.32236281 105.13134544 -97.21484375 101.15625 C-96.27557728 98.17325297 -94.93969141 95.57735826 -93.4765625 92.82421875 C-91.81000251 89.39711983 -90.63521681 85.80163724 -89.37109375 82.2109375 C-88.27458993 79.24716567 -86.85016071 76.51282142 -85.4375 73.6875 C-84.42036843 70.92730021 -83.44797833 68.15578009 -82.5 65.37109375 C-81.39948689 62.59148894 -79.97900158 60.24325327 -78.4375 57.6875 C-77.74516924 55.99747586 -77.09988921 54.28750331 -76.5 52.5625 C-76.15839844 51.59957031 -75.81679688 50.63664062 -75.46484375 49.64453125 C-74.80591565 47.7479207 -74.15183074 45.84961652 -73.50390625 43.94921875 C-71.78717091 39.02696098 -69.85524674 34.43537755 -67.4375 29.8125 C-65.2272357 25.54746738 -63.64461164 21.42768995 -62.3125 16.8125 C-59.3303537 6.58799839 -53.28137364 -0.3096475 -44.125 -5.625 C-29.0853321 -13.29871868 -12.83305276 -11.02423968 0 0 Z M-26.4375 129.6875 C-29.47216354 136.11750431 -32.19881688 142.52791666 -34.4453125 149.27734375 C-35.4375 151.6875 -35.4375 151.6875 -36.96484375 153.70703125 C-38.62623065 155.94131018 -39.18646454 157.75178406 -39.875 160.4375 C-40.78557314 163.69090194 -41.7803677 166.5850225 -43.375 169.5625 C-45.6612618 173.83833313 -47.01250011 178.32226432 -48.41015625 182.953125 C-49.4375 185.6875 -49.4375 185.6875 -50.9375 187.65625 C-52.87784224 190.28379679 -53.5077951 192.79620844 -54.375 195.9375 C-55.71013952 200.49118879 -57.19116246 204.55827846 -59.43359375 208.7265625 C-61.02276052 211.8306937 -62.23621621 215.07463138 -63.50390625 218.3203125 C-64.27365771 220.27206726 -65.09839175 222.2020436 -65.9375 224.125 C-67.20123527 227.12637127 -68.33726528 230.12434652 -69.4375 233.1875 C-70.96049806 237.42766504 -72.63506441 241.55691844 -74.4375 245.6875 C-75.42385088 248.24087608 -76.40725487 250.79497643 -77.375 253.35546875 C-78.4375 255.6875 -78.4375 255.6875 -79.97265625 257.66015625 C-81.70682098 260.06024023 -82.21341488 262.06104296 -82.875 264.9375 C-83.95375728 269.18510678 -85.32408538 272.74210461 -87.3984375 276.58203125 C-89.0645668 279.95813537 -90.20873109 283.51119391 -91.41015625 287.07421875 C-92.4375 289.6875 -92.4375 289.6875 -93.96875 292.2109375 C-95.44846784 294.70599365 -96.16329495 296.8268056 -96.875 299.625 C-97.77057553 302.80149446 -98.50606353 304.78923943 -100.375 307.5625 C-103.45602987 312.23072707 -104.76373776 317.38173985 -106.4375 322.6875 C-108.78894729 329.77264687 -111.67427333 336.47775028 -114.86816406 343.21240234 C-117.89280327 349.60118108 -120.48949609 356.07643786 -122.90625 362.71484375 C-123.30058228 363.78907593 -123.30058228 363.78907593 -123.70288086 364.88500977 C-124.22318467 366.30632361 -124.73731276 367.72991782 -125.24438477 369.15600586 C-126.25748988 371.92769573 -127.20667772 374.38051219 -128.98828125 376.75 C-130.98206471 379.41554338 -131.64873495 382.12511484 -132.5625 385.3125 C-134.37332888 391.55915775 -134.37332888 391.55915775 -135.4375 393.6875 C-132.37373956 394.70875348 -130.2701803 394.81655014 -127.0625 394.8203125 C-125.45955078 394.82224609 -125.45955078 394.82224609 -123.82421875 394.82421875 C-122.70660156 394.82035156 -121.58898437 394.81648438 -120.4375 394.8125 C-118.80748047 394.81830078 -118.80748047 394.81830078 -117.14453125 394.82421875 C-116.06558594 394.82292969 -114.98664063 394.82164062 -113.875 394.8203125 C-112.90433594 394.81918457 -111.93367188 394.81805664 -110.93359375 394.81689453 C-107.99185003 394.70801715 -105.12244267 394.47457664 -102.19555664 394.18310547 C-96.73606467 393.66522797 -91.35129609 393.57425482 -85.87109375 393.625 C-84.43178246 393.63067993 -84.43178246 393.63067993 -82.96339417 393.63647461 C-79.93388058 393.64855316 -76.90446871 393.66716962 -73.875 393.6875 C-69.87370007 393.7143051 -65.87245063 393.73419375 -61.87109375 393.75 C-60.97289413 393.75829834 -60.07469452 393.76659668 -59.14927673 393.77514648 C-54.86957879 393.79149576 -50.69310598 393.65694047 -46.4375 393.1875 C-41.27716004 392.61825735 -36.19095355 392.5770776 -31.00390625 392.625 C-30.04532211 392.62878662 -29.08673798 392.63257324 -28.09910583 392.63647461 C-24.04737865 392.65263411 -19.99575753 392.6808176 -15.9440918 392.70800781 C-12.96403483 392.72624473 -9.98399474 392.73823972 -7.00390625 392.75 C-6.10773087 392.75829834 -5.21155548 392.76659668 -4.28822327 392.77514648 C0.20038698 392.79223157 4.59447225 392.63172346 9.0625 392.1875 C14.43604287 391.65324777 19.73269886 391.57503259 25.12890625 391.625 C26.56821754 391.63067993 26.56821754 391.63067993 28.03660583 391.63647461 C31.06611942 391.64855316 34.09553129 391.66716962 37.125 391.6875 C41.12629993 391.7143051 45.12754937 391.73419375 49.12890625 391.75 C50.02710587 391.75829834 50.92530548 391.76659668 51.85072327 391.77514648 C57.07749074 391.79511375 62.17538113 391.5128308 67.36872864 390.91358948 C70.48001097 390.59294157 73.56220309 390.59175216 76.6875 390.625 C77.80382812 390.63402344 78.92015625 390.64304687 80.0703125 390.65234375 C80.89273438 390.66394531 81.71515625 390.67554688 82.5625 390.6875 C79.1727517 379.82389858 79.1727517 379.82389858 74.45703125 369.49609375 C73.46686616 367.49414425 72.79502563 365.50485799 72.125 363.375 C70.40418713 357.93046093 67.96917056 352.85592366 65.5625 347.6875 C62.51280292 340.73419065 59.64389365 333.70342047 57.0625 326.5625 C56.06985607 323.87967857 54.9325816 321.35643307 53.625 318.8125 C50.13762481 311.99626668 47.61511185 304.85410595 45.125 297.625 C43.3928573 292.70486459 41.39754251 288.3627203 38.75 283.88671875 C36.49105922 279.70321988 35.09030768 275.17738381 33.5625 270.6875 C31.10896551 263.56500325 28.27491362 256.76593684 25.07421875 249.9453125 C21.84665387 242.98978509 18.93607061 236.00113497 16.625 228.6875 C14.90188241 223.34374261 12.57649472 218.5220448 10 213.54296875 C7.89563104 209.3628228 6.23733771 205.05316152 4.5625 200.6875 C3.56766256 198.14363577 2.56934505 195.60159546 1.5625 193.0625 C1.30428467 192.41095947 1.04606934 191.75941895 0.7800293 191.08813477 C-0.81624261 187.10683886 -2.5830356 183.29780666 -4.57421875 179.50390625 C-5.8825432 176.75109688 -6.73882691 173.87841163 -7.65625 170.9765625 C-8.72376119 167.84875471 -10.08726216 164.88806572 -11.46484375 161.88671875 C-12.40487217 159.76127296 -13.21622552 157.6246822 -14 155.4375 C-14.83309532 153.14085885 -15.62023604 151.39816793 -16.9375 149.3125 C-18.39451649 146.76272115 -19.09115536 144.62586671 -19.875 141.8125 C-21.15549415 137.26265909 -22.92198995 133.6776194 -25.4375 129.6875 C-25.7675 129.6875 -26.0975 129.6875 -26.4375 129.6875 Z " fill="#000000" transform="translate(609.4375,204.3125)"/>
<path d="M0 0 C1.03299225 0.00936584 1.03299225 0.00936584 2.08685303 0.0189209 C6.28842229 0.05885953 10.48724315 0.13889889 14.6875 0.25 C15.6259375 0.26401855 16.564375 0.27803711 17.53125 0.29248047 C30.03173464 0.76335705 39.26717354 6.87488763 47.75 15.6875 C55.68763405 25.40138782 57.19035597 35.74207457 56.25244141 47.88476562 C55.37756394 55.21546034 52.74182628 62.30980847 48 68 C47.34 68 46.68 68 46 68 C46 68.66 46 69.32 46 70 C45.34 70 44.68 70 44 70 C44 70.66 44 71.32 44 72 C41.796875 73.83984375 41.796875 73.83984375 38.75 75.9375 C37.77546875 76.62714844 36.8009375 77.31679687 35.796875 78.02734375 C26.99872694 83.15501087 16.67271362 83.43446197 6.76757812 83.36889648 C4.82862621 83.37467743 2.88967429 83.3804611 0.95072269 83.38634789 C-1.10688655 83.38980459 -3.16436706 83.38601199 -5.2219696 83.38012505 C-9.52555853 83.36843795 -13.82888309 83.38078705 -18.13244629 83.39674377 C-28.80886309 83.43274653 -39.48527107 83.43916112 -50.16174316 83.43664551 C-58.48705764 83.43493435 -66.81215293 83.44201612 -75.13740587 83.47662407 C-79.41493427 83.49340601 -83.69192667 83.49163708 -87.96945286 83.47580135 C-91.24726683 83.46865207 -94.52495538 83.48722904 -97.80273438 83.50170898 C-98.98509674 83.49196548 -100.16745911 83.48222198 -101.38565063 83.47218323 C-102.4676474 83.48176056 -103.54964417 83.49133789 -104.66442871 83.50120544 C-106.07351627 83.50089152 -106.07351627 83.50089152 -107.51107025 83.50057125 C-110.80896637 84.16232723 -111.86659892 85.43823782 -114 88 C-116.88641226 98.57013093 -115.13874581 111.85164573 -115.12698364 122.76759338 C-115.12813678 125.09625855 -115.1297256 127.42492353 -115.13171089 129.75358814 C-115.13587968 136.13758974 -115.13382435 142.52157637 -115.13072467 148.90557802 C-115.12820266 155.09160383 -115.13136144 161.27762817 -115.13387203 167.46365357 C-115.13913575 180.90986418 -115.13868102 194.35607003 -115.13579312 207.8022811 C-115.1332703 219.60911846 -115.13262414 231.41595409 -115.13381577 243.22279167 C-115.13389215 244.00823184 -115.13396854 244.79367201 -115.13404724 245.60291339 C-115.13435865 248.79254942 -115.13467705 251.98218545 -115.135007 255.17182148 C-115.1380677 285.12006537 -115.13529326 315.06830627 -115.1299101 345.0165497 C-115.12519354 371.45594036 -115.12556421 397.89532619 -115.13037109 424.3347168 C-115.13577117 454.13563118 -115.13782157 483.93654289 -115.13475883 513.73745769 C-115.13443823 516.94057683 -115.13412538 520.14369597 -115.13381577 523.34681511 C-115.13369715 524.5295603 -115.13369715 524.5295603 -115.13357614 525.73619934 C-115.13252777 536.70488242 -115.13342186 547.67356373 -115.13580263 558.64224658 C-115.21403251 638.38966019 -115.21403251 638.38966019 -114.58563146 718.13352065 C-114.55464849 720.50828906 -114.52498015 722.88307151 -114.49537492 725.25785744 C-114.44184266 729.46130509 -114.37828759 733.66452054 -114.31173706 737.86778259 C-114.29544148 739.06566859 -114.2791459 740.26355458 -114.26235652 741.49774015 C-114.2428397 742.57649935 -114.22332288 743.65525855 -114.20321465 744.76670742 C-114.18807095 745.68999102 -114.17292726 746.61327462 -114.15732467 747.56453651 C-114.01051972 749.83714949 -113.63533553 751.81886516 -113 754 C-109.78904367 754.95451735 -106.91856324 755.11690551 -103.57504272 755.10006714 C-101.92246964 755.09562592 -101.92246964 755.09562592 -100.23651123 755.09109497 C-99.0323053 755.08278656 -97.82809937 755.07447815 -96.58740234 755.06591797 C-94.63477004 755.05874469 -92.68213771 755.05157555 -90.72950482 755.04456162 C-88.63194767 755.03616273 -86.5344138 755.02536871 -84.43687057 755.01403427 C-80.05677342 754.99092918 -75.67668081 754.9776537 -71.29653931 754.96633911 C-58.84135092 754.93294409 -46.38622957 754.89144221 -33.93115234 754.82861328 C-27.05096202 754.79398911 -20.17082194 754.77024495 -13.29055369 754.75840485 C-9.6539045 754.75165983 -6.01746841 754.73930841 -2.38090134 754.71337509 C1.68313861 754.68439541 5.74689347 754.67899493 9.81103516 754.67529297 C11.0030957 754.6629361 12.19515625 754.65057922 13.42333984 754.6378479 C26.21853641 754.66848901 36.4860807 758.17945555 46.07421875 766.8828125 C54.82498765 776.25999219 58.51638283 787.34047965 58.24609375 799.98046875 C57.27725522 811.86796368 51.15651784 820.8566521 42.26171875 828.4921875 C31.16421082 837.43246443 19.77451196 838.14849193 6.05078125 838.16113281 C4.75712143 838.16609772 3.46346161 838.17106262 2.13059998 838.17617798 C-1.4050034 838.18923633 -4.94058785 838.19573464 -8.47621155 838.20018864 C-10.69235482 838.20313145 -12.90849307 838.20723857 -15.12463379 838.21169281 C-22.07915661 838.22535364 -29.03366775 838.23502586 -35.98820305 838.2388947 C-43.97694909 838.24336495 -51.96552315 838.26087057 -59.95421696 838.2898953 C-66.15412008 838.31162723 -72.35397524 838.32160516 -78.55391598 838.32293582 C-82.24486364 838.32397613 -85.93564934 838.32971588 -89.6265564 838.34775543 C-93.75634914 838.36754833 -97.88578974 838.36290173 -102.015625 838.35644531 C-103.81175987 838.37026749 -103.81175987 838.37026749 -105.6441803 838.3843689 C-125.75970365 838.28664996 -146.47676224 832.14443118 -162 819 C-162.79019531 818.33097656 -163.58039063 817.66195312 -164.39453125 816.97265625 C-184.42274314 799.46719916 -195.66252311 779.00611399 -197.79119098 752.48198414 C-198.17879456 746.01852035 -198.15422678 739.55191405 -198.15821838 733.07946777 C-198.1627945 731.49324659 -198.16779603 729.90702658 -198.17318195 728.32080793 C-198.18667606 723.98585487 -198.19415754 719.65090958 -198.20060861 715.3159411 C-198.20866153 710.62190876 -198.22235159 705.92789231 -198.23532104 701.23387146 C-198.2599283 692.00697121 -198.27935342 682.7800669 -198.29707379 673.55315113 C-198.31821865 662.65274132 -198.34464552 651.75234607 -198.37124526 640.85194844 C-198.4190097 621.20811022 -198.4621634 601.56426454 -198.50268555 581.92041016 C-198.54124361 563.2312745 -198.58265071 544.54214854 -198.62768555 525.85302734 C-198.63040925 524.72135875 -198.63313296 523.58969016 -198.6359392 522.42372859 C-198.64143393 520.14076771 -198.64692916 517.85780684 -198.65242489 515.57484597 C-198.65514052 514.44659349 -198.65785615 513.318341 -198.66065407 512.15589905 C-198.66336708 511.02910353 -198.66608009 509.902308 -198.66887531 508.74136716 C-198.90768145 409.36723239 -199.06064013 309.99357602 -199 184 C-198.34 184 -197.68 184 -197 184 C-197.0702388 183.05455322 -197.1404776 182.10910645 -197.21284485 181.13500977 C-197.94715956 170.72670508 -198.16318118 160.36909356 -198.16796875 149.9375 C-198.17119564 148.24991836 -198.17456068 146.56233697 -198.17805481 144.87475586 C-198.18398655 141.36539055 -198.18590074 137.85604965 -198.18530273 134.34667969 C-198.18520101 129.89602713 -198.1988906 125.44553371 -198.21607494 120.99491882 C-198.22729953 117.5183442 -198.22921883 114.04180694 -198.22869301 110.56521606 C-198.229856 108.92611133 -198.23418041 107.28700507 -198.24202538 105.6479187 C-198.35707048 79.15176571 -194.08799132 55.23931124 -177 34 C-176.34644531 33.16984375 -175.69289063 32.3396875 -175.01953125 31.484375 C-160.74760264 14.45445644 -139.81130758 4.16451302 -118 1 C-115.77893901 0.889842 -113.55537427 0.82479146 -111.33178711 0.79467773 C-110.01440048 0.77474258 -108.69701385 0.75480743 -107.33970642 0.73426819 C-105.90225387 0.7172353 -104.46479958 0.70034807 -103.02734375 0.68359375 C-101.52132207 0.66284478 -100.01530505 0.64175491 -98.5092926 0.62034607 C-94.48426421 0.56456716 -90.45918325 0.51504221 -86.43405151 0.46736908 C-83.93599943 0.43748205 -81.43796983 0.40612816 -78.93994141 0.37432861 C-52.6277764 0.04079562 -26.31407625 -0.27896098 0 0 Z " fill="#000000" transform="translate(227,131)"/>
<path d="M0 0 C7.58224907 6.07771635 12.3481175 12.21164606 15.78125 21.31640625 C17.40346461 25.38754099 19.51330906 29.10108708 21.66015625 32.9140625 C22.76569939 34.94465194 23.70485729 36.92081595 24.5625 39.0625 C25.72838262 41.74909909 26.91446663 43.88479905 28.5 46.3125 C30.55284441 49.49836833 31.88715414 52.53962868 33.125 56.10546875 C35.53116137 62.34644979 38.77614889 68.34062081 42.125 74.125 C45.15572367 79.37825436 47.74315217 84.73710025 50.08984375 90.328125 C52.82426158 96.47763119 55.85126049 102.53955673 59.3125 108.3125 C61.47566077 112.23823622 62.39008502 114.76085508 61.3203125 119.1875 C58.24119786 127.39847237 54.86885116 135.44685832 51.37182617 143.48779297 C48.80757537 149.40594973 46.44697472 155.35909381 44.23852539 161.41748047 C42.31793605 166.6405868 40.18557043 171.75771699 38 176.875 C34.87272526 184.19950452 31.96971129 191.57841782 29.2265625 199.0546875 C28.19454405 201.84836803 27.12223203 204.6166166 26 207.375 C25.01 207.375 24.02 207.375 23 207.375 C19.95833333 201.29166667 16.91666667 195.20833333 13.875 189.125 C13.57078125 188.51785156 13.2665625 187.91070312 12.953125 187.28515625 C12.2511462 185.87832168 11.55392879 184.46910882 10.859375 183.05859375 C8.647107 178.58505181 6.35774801 174.1774813 3.9375 169.8125 C1.76550654 165.86643554 -0.15590757 161.90116273 -1.93359375 157.765625 C-4.11115168 152.88406655 -6.58693489 148.14321666 -9 143.375 C-10.00104808 141.37552438 -11.00103533 139.37551733 -12 137.375 C-12.50660156 136.36179687 -13.01320313 135.34859375 -13.53515625 134.3046875 C-15.69010417 129.99479167 -17.84505208 125.68489583 -20 121.375 C-23.14874656 126.91842437 -26.14514685 132.31962784 -28.22265625 138.35546875 C-29.14683703 140.75648112 -30.30588135 142.97160744 -31.5 145.25 C-33.22874558 148.60973471 -34.50572325 151.79370167 -35.5 155.4375 C-36.44241798 158.86641062 -37.60792464 161.64006141 -39.4375 164.6875 C-42.21952389 169.36597862 -43.59470646 174.22353674 -45.0078125 179.45703125 C-45.98874284 182.34189332 -47.16450356 183.99275993 -49 186.375 C-49.81232944 188.64418074 -49.81232944 188.64418074 -50.375 191.0625 C-51.61553599 195.50504773 -53.40725427 199.06448547 -55.73828125 203.01953125 C-57.59336631 206.48273959 -58.81687516 210.11136797 -60.1015625 213.81640625 C-61.24562351 217.07449303 -62.61923162 220.21073913 -64 223.375 C-64.64989568 224.99837959 -65.29540272 226.62352013 -65.9375 228.25 C-67.53161474 232.2565013 -69.21903576 236.2064651 -70.9921875 240.13671875 C-71.69488599 241.69736308 -72.38677923 243.26289832 -73.0703125 244.83203125 C-73.59238281 246.02892578 -73.59238281 246.02892578 -74.125 247.25 C-74.59292969 248.32894531 -74.59292969 248.32894531 -75.0703125 249.4296875 C-76 251.375 -76 251.375 -78 254.375 C-78.66158043 256.42084079 -78.66158043 256.42084079 -79.125 258.5625 C-79.41375 259.820625 -79.7025 261.07875 -80 262.375 C-79.33438553 262.21234146 -78.66877106 262.04968292 -77.98298645 261.88209534 C-74.39544177 261.27222761 -70.89794865 261.24315039 -67.2722168 261.26147461 C-66.12995384 261.26125557 -66.12995384 261.26125557 -64.96461487 261.2610321 C-62.45945338 261.26172613 -59.95436718 261.2694946 -57.44921875 261.27734375 C-55.70758607 261.27920974 -53.96595286 261.28063279 -52.22431946 261.28163147 C-47.64914491 261.28544238 -43.0740023 261.29526047 -38.49884033 261.30633545 C-33.82670524 261.31658025 -29.15456497 261.32113566 -24.48242188 261.32617188 C-15.32160058 261.33688404 -6.16080295 261.35394332 3 261.375 C2.17574906 265.92770237 0.62432052 269.94929794 -1.1875 274.1875 C-3.55119824 279.81618884 -5.82649633 285.45919222 -7.9375 291.1875 C-10.17044443 297.22013022 -12.48988806 303.21334023 -14.875 309.1875 C-15.16624756 309.92009033 -15.45749512 310.65268066 -15.75756836 311.4074707 C-19.3824129 320.44702875 -23.20818671 329.40458246 -27 338.375 C-27.65653061 338.37277939 -28.31306122 338.37055878 -28.98948669 338.36827087 C-35.85195367 338.34606584 -42.71441035 338.33103011 -49.5769043 338.32006836 C-52.13452571 338.31505437 -54.69214427 338.30824152 -57.24975586 338.29956055 C-60.93604232 338.28736618 -64.62229072 338.28174221 -68.30859375 338.27734375 C-69.44332626 338.27218246 -70.57805878 338.26702118 -71.74717712 338.26170349 C-77.25505928 338.26131845 -82.59716333 338.46664549 -88.06040955 339.1625824 C-90.77069168 339.45940363 -93.40881963 339.387681 -96.12890625 339.25390625 C-97.18271484 339.20556641 -98.23652344 339.15722656 -99.32226562 339.10742188 C-100.39154297 339.05134766 -101.46082031 338.99527344 -102.5625 338.9375 C-103.66658203 338.88529297 -104.77066406 338.83308594 -105.90820312 338.77929688 C-108.60584136 338.65083791 -111.3029899 338.51593867 -114 338.375 C-114.11029541 338.95580322 -114.22059082 339.53660645 -114.33422852 340.13500977 C-115.3152512 344.9546873 -116.5439451 348.96999455 -118.9375 353.3125 C-121.3428251 357.88378532 -123.03389353 362.20721848 -124.26171875 367.21875 C-125 369.375 -125 369.375 -126.4609375 371.2890625 C-128.342704 373.83947699 -129.0385534 376.21750203 -129.9375 379.25 C-131.41504242 383.91948521 -133.26179732 387.31186054 -136 391.375 C-136.83374591 393.87623773 -137.52390054 396.3994463 -138.22265625 398.94140625 C-139.09974993 401.68728245 -140.44641895 403.96612346 -141.97265625 406.40234375 C-143.30125787 408.95346092 -144.04482611 411.56018076 -144.875 414.3125 C-148.1398741 424.43487029 -155.16682948 432.45775571 -164.42578125 437.765625 C-173.98763206 441.88636192 -186.02278672 441.98926281 -195.9375 438.9375 C-205.23112073 434.9262716 -212.22284937 427.15367533 -217 418.375 C-218.69164786 413.30005641 -218.2689236 408.00091619 -218.3125 402.6875 C-218.35600586 400.94823242 -218.35600586 400.94823242 -218.40039062 399.17382812 C-218.45281652 392.08020115 -217.71129591 387.3919702 -214 381.375 C-213.14303229 379.42689317 -212.30731779 377.46920082 -211.5 375.5 C-211.07847656 374.47390625 -210.65695313 373.4478125 -210.22265625 372.390625 C-208.10787297 367.17461001 -205.99802616 361.95701465 -203.96875 356.70703125 C-203.6284375 355.83433594 -203.288125 354.96164062 -202.9375 354.0625 C-202.63714844 353.28261719 -202.33679688 352.50273438 -202.02734375 351.69921875 C-201 349.375 -201 349.375 -199.484375 346.87109375 C-198.07284164 344.49748898 -197.1841274 342.36063035 -196.3125 339.75 C-194.37426839 334.25083124 -192.18990458 328.87604642 -189.9375 323.5 C-189.5969458 322.67935059 -189.2563916 321.85870117 -188.90551758 321.01318359 C-187.18108788 316.92138764 -185.31163735 313.17315768 -183 309.375 C-182.28821615 307.60077407 -181.6215927 305.80779877 -181 304 C-179.48773591 299.70952347 -177.82014887 295.54617449 -176 291.375 C-175.34884181 289.77298739 -174.70345279 288.16862294 -174.0625 286.5625 C-173.72089844 285.70785156 -173.37929687 284.85320312 -173.02734375 283.97265625 C-172.36447697 282.29658626 -171.7101757 280.61709126 -171.06640625 278.93359375 C-169.27681086 274.30737827 -167.28324091 269.90585181 -165 265.5 C-162.43600253 260.48796474 -160.61638557 255.48758969 -158.93359375 250.125 C-157.86653527 246.98186541 -156.48660438 244.15911097 -154.93359375 241.234375 C-153.96984869 239.3149497 -153.22456258 237.39594213 -152.5 235.375 C-151.5363994 232.69660479 -150.44613045 230.2082169 -149.125 227.6875 C-145.92994547 221.48101476 -143.58802892 214.86181187 -141.26171875 208.2890625 C-139.41100531 203.08889836 -137.05014216 198.14471205 -134.69677734 193.15820312 C-131.26517501 185.86309928 -127.92608339 178.53171742 -125.5625 170.8125 C-124.44579945 167.28474145 -122.89786216 164.27438378 -121.0625 161.0625 C-118.30063127 156.19504818 -116.52561503 151.35507643 -114.8671875 146.0234375 C-113.86602248 142.96582541 -112.46249845 140.23641002 -111 137.375 C-110.50449508 135.88031757 -110.02664157 134.37971702 -109.5625 132.875 C-108.633465 129.95724946 -107.82977085 128.12789317 -106.0625 125.5625 C-103.53534714 121.65690013 -102.39209371 117.74367222 -101 113.328125 C-99.92526958 110.15431172 -98.57132865 107.32544216 -97.00390625 104.375 C-95.42647093 101.23240512 -94.21152784 97.95433718 -92.9375 94.6796875 C-92 92.375 -92 92.375 -90.4375 89.375 C-89.15423372 86.69687906 -88.35851002 84.28344979 -87.5625 81.4375 C-86.48881861 77.67961514 -85.1168246 74.63166282 -83.0390625 71.29296875 C-81.27490582 68.03657427 -80.19735213 64.52844113 -79.02734375 61.0234375 C-78 58.375 -78 58.375 -76.46484375 55.8359375 C-75.01115799 53.39374542 -74.31469446 51.36586368 -73.625 48.625 C-72.37852182 44.20685481 -70.57834301 40.64966271 -68.24609375 36.71875 C-66.89516712 34.17782216 -66.01942489 31.67067822 -65.125 28.9375 C-63.05407479 22.95853851 -59.80861506 18.37536988 -56 13.375 C-55.50371094 12.6634375 -55.00742187 11.951875 -54.49609375 11.21875 C-47.93887012 1.92786094 -40.35685587 -3.83100105 -29.125 -6.2421875 C-18.66079884 -7.52405214 -8.65818627 -6.03398696 0 0 Z " fill="#000000" transform="translate(373,317.625)"/>
</svg>
