<svg id="Layer_1" data-name="Layer 1" xmlns="http://www.w3.org/2000/svg" viewBox="0 0 800 800"><defs><style>.cls-1{fill:#010101;}.cls-2{fill:#4bb749;}</style></defs><title>Server2</title><path class="cls-1" d="M660.18,126.2H139.82C62.72,126.2,0,188.92,0,266V534C0,611.08,62.72,673.8,139.82,673.8H660.18C737.28,673.8,800,611.08,800,534V266C800,188.92,737.28,126.2,660.18,126.2ZM743.85,534a83.76,83.76,0,0,1-83.67,83.67H139.82A83.76,83.76,0,0,1,56.15,534V266a83.76,83.76,0,0,1,83.67-83.67H660.18A83.76,83.76,0,0,1,743.85,266Z" style="fill:#010101;" /><path class="cls-1" d="M242.22,357.24A40.82,40.82,0,1,0,283,398.06,40.81,40.81,0,0,0,242.22,357.24Z" style="fill:#010101;" /><path class="cls-1" d="M399.22,357.24A40.82,40.82,0,1,0,440,398.06,40.81,40.81,0,0,0,399.22,357.24Z" style="fill:#010101;" /><path class="cls-2" d="M556.22,357.24A40.82,40.82,0,1,0,597,398.06,40.81,40.81,0,0,0,556.22,357.24Z" style="fill:#4bb749;" /></svg>