<svg id="Layer_1" data-name="Layer 1" xmlns="http://www.w3.org/2000/svg" viewBox="0 0 2000 2000"><title>Settings</title><path d="M1125.21,1139c-97.13,0-196.12,15.27-288.6,43.5l8.18-113.55c4.65-2.56,9.42-5.31,14.34-8.3L977.22,1118c54.87,26.69,121.85,6.12,152.47-46.84l46.76-81.07c249.71-25.72,445.13-237.32,445.13-493.72C1621.58,222.66,1398.91,0,1125.21,0,966.3,0,824.69,75.15,733.78,191.69a116.85,116.85,0,0,0-15.12-1.08H621.29c-61.07,0-112.33,47.7-116.69,108.59l-9.43,130.9c-4.95,2.71-9.78,5.49-14.45,8.34l-118-57.35c-54.93-26.64-121.88-6.13-152.44,46.75l-48.66,84.35c-30.6,52.92-15,121.2,35.64,155.48L306,741.26q-.11,4.15-.11,8.29c0,2.74,0,5.48.11,8.19l-108.8,73.71c-50.54,34.24-66.18,102.48-35.64,155.3l48.72,84.47c30.58,52.89,97.54,73.39,152.45,46.78l118-57.35c4.82,2.94,9.64,5.71,14.39,8.31l9.44,130.93c3.54,49.45,38,90.2,83.52,103.78C472.52,1388.46,396.4,1502,396.4,1635.36,396.4,1904.5,789,2000,1125.21,2000s728.8-95.5,728.8-364.64C1854,1338.45,1477.18,1139,1125.21,1139Zm0-992.19c192.75,0,349.57,156.82,349.57,349.57S1318,845.93,1125.21,845.93,775.64,689.11,775.64,496.37,932.46,146.8,1125.21,146.8Zm-569,829.79a239.25,239.25,0,0,1-25.91-14.89,85.88,85.88,0,0,0-85.47-6L314.65,1019a7.06,7.06,0,0,1-9-2.81l-48.71-84.47a6.77,6.77,0,0,1,2-9.09l119.85-81.19a86.76,86.76,0,0,0,37.7-76.53c-.3-5-.51-10.19-.51-15.33s.21-10.33.52-15.6a87.19,87.19,0,0,0-37.69-76.35L259,576.5a7,7,0,0,1-2-9.24l48.67-84.37a7,7,0,0,1,9-2.76l130.12,63.25a86.42,86.42,0,0,0,85.32-5.85,242.37,242.37,0,0,1,26.56-15.34A86.85,86.85,0,0,0,604,451.47l10.4-144.38a6.82,6.82,0,0,1,6.87-6.38H669.1a493.52,493.52,0,0,0-40.26,195.66c0,248.49,183.55,454.88,422.19,490.8l-16.68,28.92a7,7,0,0,1-9,2.88L895,955.65c-27.48-13.24-60.17-10.95-84.56,5.55a252.55,252.55,0,0,1-27.05,15.58,86.93,86.93,0,0,0-47.46,70.87L725.54,1192a6.83,6.83,0,0,1-6.88,6.38H621.29a6.83,6.83,0,0,1-6.87-6.41L604,1047.29A86.93,86.93,0,0,0,556.18,976.59Zm569,876.61c-225,0-582-59.14-582-217.84,0-182.95,277.4-349.56,582-349.56s582,166.61,582,349.56C1707.21,1794.06,1350.23,1853.2,1125.21,1853.2Z"/></svg>