<?xml version="1.0" encoding="UTF-8"?>
<svg version="1.1" xmlns="http://www.w3.org/2000/svg" width="424" height="443">
<path d="M0 0 C1.20210114 -0.01929062 2.40420227 -0.03858124 3.64273071 -0.05845642 C9.12865455 -0.11666211 14.61443767 -0.16575129 20.10058594 -0.19628906 C22.9851569 -0.214052 25.868741 -0.2488043 28.75292969 -0.29882812 C32.26131946 -0.35957254 35.76880046 -0.38983646 39.27769089 -0.39946175 C41.23846581 -0.41199575 43.19898395 -0.4539124 45.15933228 -0.49668884 C55.27726498 -0.4736979 63.06756626 2.15118819 70.81787109 8.77124023 C71.47787109 9.57561523 72.13787109 10.37999023 72.81787109 11.20874023 C73.53974609 12.03374023 74.26162109 12.85874023 75.00537109 13.70874023 C78.38074901 18.36443391 79.33928184 23.23585483 80.19287109 28.83374023 C80.31807129 29.61918213 80.44327148 30.40462402 80.57226562 31.21386719 C81.46805075 37.11483811 82.12697176 43.02587019 82.72412109 48.96264648 C82.88623186 50.52890668 83.04850542 52.09515004 83.2109375 53.66137695 C83.53358631 56.77978047 83.82804487 59.899273 84.10839844 63.02172852 C84.86222767 70.75003177 85.54078717 77.1361556 90.81787109 83.20874023 C92.90422631 83.92774602 92.90422631 83.92774602 94.81787109 84.20874023 C94.81787109 84.86874023 94.81787109 85.52874023 94.81787109 86.20874023 C95.53974609 86.29124023 96.26162109 86.37374023 97.00537109 86.45874023 C99.81787109 87.20874023 99.81787109 87.20874023 102.13037109 89.14624023 C106.1372719 92.22130364 110.33381506 93.39050043 115.38037109 93.02124023 C117.95229637 92.16393181 120.40237311 91.10160245 122.8894043 90.02685547 C125.94410131 88.73095856 129.03985654 87.54122744 132.13037109 86.33374023 C136.4913211 84.61533672 140.7249444 82.82715127 144.88037109 80.64624023 C155.70256292 75.06407806 170.45167899 68.56176155 182.81787109 72.20874023 C187.56427936 74.5196737 192.36414679 77.13111735 195.81787109 81.20874023 C195.81787109 81.86874023 195.81787109 82.52874023 195.81787109 83.20874023 C196.47787109 83.20874023 197.13787109 83.20874023 197.81787109 83.20874023 C199.12562812 85.07266979 200.33760782 87.00405593 201.50537109 88.95874023 C202.0284082 89.83369141 202.0284082 89.83369141 202.56201172 90.72631836 C203.28877733 91.94460357 204.0125227 93.16469505 204.73339844 94.38647461 C205.76859202 96.12593541 206.8335648 97.8475706 207.89990234 99.56811523 C208.84929687 101.12272461 208.84929687 101.12272461 209.81787109 102.70874023 C210.39537109 103.64717773 210.97287109 104.58561523 211.56787109 105.55249023 C212.89475987 108.37212889 213.08512243 110.13534989 212.81787109 113.20874023 C213.80787109 113.20874023 214.79787109 113.20874023 215.81787109 113.20874023 C217.95525532 116.88919189 220.07550107 120.57924376 222.19287109 124.27124023 C222.79615234 125.30958008 223.39943359 126.34791992 224.02099609 127.41772461 C229.72323523 137.3966431 232.535816 145.69512718 230.20068359 157.26733398 C226.28992169 170.85117512 216.12346865 177.52295035 205.23193359 185.44018555 C200.65899181 188.79034638 196.14590351 192.21932615 191.63037109 195.64624023 C190.73358643 196.32050049 189.83680176 196.99476074 188.9128418 197.68945312 C187.24280076 198.95579669 185.58405685 200.23723381 183.93920898 201.53613281 C182.23804079 202.8774498 180.49502677 204.16562001 178.73974609 205.43530273 C175.58001321 209.99507986 176.13560284 214.74372104 176.25537109 220.14624023 C176.24441406 221.2180957 176.23345703 222.28995117 176.22216797 223.39428711 C176.28038512 229.66233321 176.71158074 233.40620026 180.81787109 238.20874023 C181.14787109 238.86874023 181.47787109 239.52874023 181.81787109 240.20874023 C183.47484488 240.89914598 185.1434472 241.56180373 186.81787109 242.20874023 C190.86381264 244.33285955 193.60208218 246.99295132 196.81787109 250.20874023 C198.47048948 251.23178971 200.13578475 252.23490077 201.81787109 253.20874023 C202.45982422 253.8680957 202.45982422 253.8680957 203.11474609 254.54077148 C206.20726657 257.56945553 209.888694 259.88069811 213.41943359 262.36889648 C215.81787109 264.20874023 215.81787109 264.20874023 216.81787109 266.20874023 C217.47787109 266.20874023 218.13787109 266.20874023 218.81787109 266.20874023 C218.81787109 266.86874023 218.81787109 267.52874023 218.81787109 268.20874023 C219.43662109 268.45624023 220.05537109 268.70374023 220.69287109 268.95874023 C223.20497405 270.43644786 223.57894453 271.648292 224.81787109 274.20874023 C225.80787109 274.53874023 226.79787109 274.86874023 227.81787109 275.20874023 C231.30026702 282.7181043 232.91295127 293.13381044 230.18066406 301.05639648 C228.41730348 305.22764895 226.25131036 309.16739698 224.01513672 313.10083008 C222.83333214 315.18151945 221.68877021 317.27881122 220.55224609 319.38452148 C215.6875482 328.3395243 210.56554863 337.14960008 205.44287109 345.95874023 C204.84780762 346.98290039 204.25274414 348.00706055 203.63964844 349.06225586 C202.04723694 351.78693838 200.43908765 354.50111913 198.81787109 357.20874023 C198.44484863 357.84199219 198.07182617 358.47524414 197.6875 359.12768555 C193.99487228 365.09114119 188.09157368 367.64305639 181.94287109 370.58374023 C165.93845162 373.78462413 152.24301663 365.77476486 137.94287109 359.58374023 C135.57201325 358.56048726 133.20077919 357.53811319 130.82931519 356.51626587 C129.36527886 355.88508892 127.90165206 355.2529609 126.43850708 354.61972046 C124.56707261 353.81115713 122.69259224 353.0096536 120.81787109 352.20874023 C119.45577515 351.62455322 119.45577515 351.62455322 118.06616211 351.02856445 C113.67090348 349.42586291 109.79894785 349.36182886 105.53808594 351.18334961 C103.12450709 352.51867132 100.8166517 353.95363124 98.50537109 355.45874023 C97.70808594 355.94987305 96.91080078 356.44100586 96.08935547 356.94702148 C90.72739208 360.32925239 87.398472 362.64635489 85.93896484 369.08764648 C85.69785721 370.64685407 85.47081595 372.20827999 85.25537109 373.77124023 C85.06986694 375.02674683 85.06986694 375.02674683 84.88061523 376.30761719 C84.04035486 382.15663851 83.36195903 388.01886229 82.75537109 393.89624023 C82.67448242 394.67999023 82.59359375 395.46374023 82.51025391 396.27124023 C82.19960587 399.32446669 81.891567 402.37728987 81.62060547 405.43432617 C80.51050763 417.90891045 77.78663814 427.23997318 68.75537109 436.27124023 C59.42581263 442.4247788 49.72809613 442.79626934 38.89599609 442.70483398 C37.38148937 442.70498935 35.86698225 442.70648449 34.35247803 442.70924377 C31.19899637 442.71061891 28.04597446 442.69821429 24.89257812 442.67529297 C20.86558731 442.64681239 16.83935316 442.64968385 12.81230545 442.66238308 C9.69288747 442.66935784 6.57364241 442.6615322 3.45424652 442.64912605 C1.96959853 442.64463587 0.48493184 442.6442533 -0.99971771 442.64819145 C-3.07620484 442.65112414 -5.15166996 442.63450482 -7.22802734 442.61279297 C-8.4050824 442.60738998 -9.58213745 442.601987 -10.79486084 442.59642029 C-14.81126846 442.13673387 -17.55450575 440.95398718 -21.18212891 439.20874023 C-21.18212891 438.54874023 -21.18212891 437.88874023 -21.18212891 437.20874023 C-22.50212891 436.87874023 -23.82212891 436.54874023 -25.18212891 436.20874023 C-25.18212891 435.54874023 -25.18212891 434.88874023 -25.18212891 434.20874023 C-25.90400391 434.06436523 -26.62587891 433.91999023 -27.36962891 433.77124023 C-31.8954442 431.2568984 -33.42518808 428.00818834 -35.18212891 423.20874023 C-37.2790728 414.15774519 -38.11148641 404.87440289 -39.18212891 395.65795898 C-39.26986069 394.90462784 -39.35759247 394.15129669 -39.44798279 393.37513733 C-39.88980139 389.56837978 -40.32232074 385.76097895 -40.73706055 381.95117188 C-40.89710926 380.52140007 -41.05718309 379.09163107 -41.21728516 377.66186523 C-41.35529541 376.39503906 -41.49330566 375.12821289 -41.63549805 373.82299805 C-42.3483163 369.10992909 -43.67789338 364.72144681 -45.18212891 360.20874023 C-45.86533203 360.12624023 -46.54853516 360.04374023 -47.25244141 359.95874023 C-51.58032034 358.85080323 -55.08936824 356.44561837 -58.83447266 354.09155273 C-59.42099609 353.73834961 -60.00751953 353.38514648 -60.61181641 353.02124023 C-61.38887939 352.5359082 -61.38887939 352.5359082 -62.18164062 352.04077148 C-66.89076389 350.0821808 -70.73066393 349.7978418 -75.47412109 351.59228516 C-77.06649415 352.27420505 -78.65119357 352.9742396 -80.22900391 353.68920898 C-81.08085266 354.05847 -81.93270142 354.42773102 -82.81036377 354.80818176 C-85.52484062 355.98843565 -88.22851539 357.19133753 -90.93212891 358.39624023 C-94.4869597 359.95787229 -98.04531135 361.51140021 -101.60400391 363.06420898 C-102.45365219 363.43577621 -103.30330048 363.80734344 -104.17869568 364.19017029 C-127.20207392 374.21725418 -127.20207392 374.21725418 -140.61962891 369.02124023 C-152.42964246 363.50785289 -157.76898626 351.41586202 -163.86962891 340.45874023 C-164.99798718 338.44280842 -166.12687497 336.42717288 -167.25634766 334.41186523 C-167.74707764 333.53175781 -168.23780762 332.65165039 -168.7434082 331.74487305 C-169.746072 329.977408 -170.79018799 328.23309342 -171.86499023 326.50854492 C-173.18212891 324.20874023 -173.18212891 324.20874023 -173.18212891 322.20874023 C-173.84212891 322.20874023 -174.50212891 322.20874023 -175.18212891 322.20874023 C-175.58044922 321.3644043 -175.97876953 320.52006836 -176.38916016 319.65014648 C-177.66501702 317.20127961 -178.90442622 315.05858566 -180.44384766 312.79858398 C-185.95177836 304.60816148 -188.95088499 298.37908771 -187.18212891 288.20874023 C-186.38973386 285.04356223 -185.41627883 282.24269214 -184.18212891 279.20874023 C-183.52212891 279.20874023 -182.86212891 279.20874023 -182.18212891 279.20874023 C-181.68712891 277.22874023 -181.68712891 277.22874023 -181.18212891 275.20874023 C-180.52212891 275.20874023 -179.86212891 275.20874023 -179.18212891 275.20874023 C-178.94494141 274.62608398 -178.70775391 274.04342773 -178.46337891 273.44311523 C-176.9094483 270.73321186 -175.16283459 269.34343222 -172.68212891 267.45874023 C-171.88806641 266.84514648 -171.09400391 266.23155273 -170.27587891 265.59936523 C-168.18212891 264.20874023 -168.18212891 264.20874023 -166.18212891 264.20874023 C-165.85212891 263.21874023 -165.52212891 262.22874023 -165.18212891 261.20874023 C-163.8667948 260.50722871 -162.53095299 259.84348098 -161.18212891 259.20874023 C-160.70775391 258.71374023 -160.23337891 258.21874023 -159.74462891 257.70874023 C-157.7664694 255.80970711 -155.74654109 255.10974992 -153.18212891 254.20874023 C-153.18212891 253.54874023 -153.18212891 252.88874023 -153.18212891 252.20874023 C-151.53141495 251.18262075 -149.86242885 250.1856588 -148.18212891 249.20874023 C-147.66650391 248.69311523 -147.15087891 248.17749023 -146.61962891 247.64624023 C-145.18212891 246.20874023 -145.18212891 246.20874023 -143.24462891 245.27124023 C-140.72914078 243.97538271 -139.13994108 242.23181281 -137.18212891 240.20874023 C-136.52212891 239.87874023 -135.86212891 239.54874023 -135.18212891 239.20874023 C-132.92646619 233.27956966 -132.74982355 227.5043417 -132.68212891 221.20874023 C-132.64087891 220.24967773 -132.59962891 219.29061523 -132.55712891 218.30249023 C-132.49106107 212.29031693 -133.29299327 208.92888412 -137.49658203 204.54858398 C-139.29660719 203.11774127 -141.09270321 202.1570355 -143.18212891 201.20874023 C-143.18212891 200.54874023 -143.18212891 199.88874023 -143.18212891 199.20874023 C-144.54337891 198.83749023 -144.54337891 198.83749023 -145.93212891 198.45874023 C-149.31706756 197.15684075 -150.79006305 195.85709887 -153.18212891 193.20874023 C-153.84212891 192.87874023 -154.50212891 192.54874023 -155.18212891 192.20874023 C-155.18212891 191.54874023 -155.18212891 190.88874023 -155.18212891 190.20874023 C-155.90400391 189.96124023 -156.62587891 189.71374023 -157.36962891 189.45874023 C-160.44485468 188.09197323 -162.61649606 186.36927316 -165.18212891 184.20874023 C-166.66712891 183.21874023 -166.66712891 183.21874023 -168.18212891 182.20874023 C-168.18212891 181.54874023 -168.18212891 180.88874023 -168.18212891 180.20874023 C-170.16212891 179.54874023 -172.14212891 178.88874023 -174.18212891 178.20874023 C-174.18212891 177.54874023 -174.18212891 176.88874023 -174.18212891 176.20874023 C-175.50212891 175.54874023 -176.82212891 174.88874023 -178.18212891 174.20874023 C-178.18212891 173.54874023 -178.18212891 172.88874023 -178.18212891 172.20874023 C-179.17212891 171.87874023 -180.16212891 171.54874023 -181.18212891 171.20874023 C-186.48750903 164.17449246 -188.53313913 156.9463875 -188.18212891 148.20874023 C-187.20371133 143.23511758 -185.2499312 138.81429989 -183.18212891 134.20874023 C-182.52212891 134.20874023 -181.86212891 134.20874023 -181.18212891 134.20874023 C-181.00580933 133.10671265 -181.00580933 133.10671265 -180.82592773 131.98242188 C-180.18057556 129.20204796 -179.30630818 127.28746152 -177.88134766 124.82983398 C-177.16579712 123.58556641 -177.16579712 123.58556641 -176.43579102 122.31616211 C-175.91895752 121.43508789 -175.40212402 120.55401367 -174.86962891 119.64624023 C-174.33926025 118.73036133 -173.8088916 117.81448242 -173.26245117 116.87084961 C-168.05483109 107.91064594 -162.74298036 99.00995119 -157.35351562 90.15795898 C-156.36051536 88.50558005 -155.40914849 86.8282923 -154.46728516 85.14624023 C-154.04318359 84.50686523 -153.61908203 83.86749023 -153.18212891 83.20874023 C-152.52212891 83.20874023 -151.86212891 83.20874023 -151.18212891 83.20874023 C-150.68712891 81.72374023 -150.68712891 81.72374023 -150.18212891 80.20874023 C-149.52212891 80.20874023 -148.86212891 80.20874023 -148.18212891 80.20874023 C-147.68712891 78.72374023 -147.68712891 78.72374023 -147.18212891 77.20874023 C-138.24325904 72.24270142 -129.10124565 71.60297651 -119.18212891 73.20874023 C-115.75341161 74.27094949 -112.55753061 75.69372249 -109.30712891 77.20874023 C-107.48435083 78.02285268 -105.6614297 78.83664491 -103.83837891 79.65014648 C-102.91154297 80.07054199 -101.98470703 80.4909375 -101.02978516 80.92407227 C-96.31223875 83.05230694 -91.56048528 85.09957429 -86.80712891 87.14624023 C-85.94619629 87.52329102 -85.08526367 87.9003418 -84.19824219 88.28881836 C-74.04900888 92.78753944 -74.04900888 92.78753944 -63.18212891 92.20874023 C-59.77430544 90.78525568 -56.58716344 89.079094 -53.36962891 87.27124023 C-52.51175781 86.83489258 -51.65388672 86.39854492 -50.77001953 85.94897461 C-46.12958548 83.35067539 -46.12958548 83.35067539 -43.21777344 79.05810547 C-42.65540743 76.43009517 -42.38697192 73.88836464 -42.18212891 71.20874023 C-41.92308986 69.11351737 -41.66260137 67.01847334 -41.40087891 64.92358398 C-41.15743298 62.66488238 -40.91797464 60.40574807 -40.68212891 58.14624023 C-40.55249756 56.95901367 -40.42286621 55.77178711 -40.28930664 54.54858398 C-39.72581697 49.38706065 -39.17805789 44.22523569 -38.68603516 39.05639648 C-37.76788349 29.78125254 -36.44019452 21.09583866 -31.18212891 13.20874023 C-30.52212891 13.20874023 -29.86212891 13.20874023 -29.18212891 13.20874023 C-29.18212891 12.54874023 -29.18212891 11.88874023 -29.18212891 11.20874023 C-28.52212891 11.20874023 -27.86212891 11.20874023 -27.18212891 11.20874023 C-26.85212891 10.21874023 -26.52212891 9.22874023 -26.18212891 8.20874023 C-25.52212891 8.20874023 -24.86212891 8.20874023 -24.18212891 8.20874023 C-23.85212891 7.21874023 -23.52212891 6.22874023 -23.18212891 5.20874023 C-20.88916016 4.07592773 -20.88916016 4.07592773 -17.99462891 3.08374023 C-17.05232422 2.75116211 -16.11001953 2.41858398 -15.13916016 2.07592773 C-10.09756261 0.59741432 -5.24159709 0.07911248 0 0 Z M1.81787109 45.20874023 C0.83920019 48.63156468 0.49717959 52.0548406 0.15771484 55.59155273 C0.04110001 56.6016037 -0.07551483 57.61165466 -0.19566345 58.65231323 C-0.5659044 61.87754611 -0.90752713 65.1048883 -1.24462891 68.33374023 C-1.58809291 71.5406934 -1.93816937 74.74644994 -2.30430603 77.95089722 C-2.53086299 79.94068068 -2.74446713 81.93200064 -2.94239807 83.92483521 C-3.92885025 92.71585785 -6.19416968 102.45309393 -12.18212891 109.20874023 C-16.36674466 112.26623038 -20.66474451 115.2304602 -25.51416016 117.11499023 C-29.371222 118.69621617 -32.85444267 120.83059651 -36.43212891 122.95874023 C-37.19211182 123.40540039 -37.95209473 123.85206055 -38.73510742 124.31225586 C-42.65382814 126.63284377 -46.43030772 129.03282325 -50.11962891 131.70874023 C-54.57116977 134.73921229 -58.872172 135.67445664 -64.18212891 136.20874023 C-64.97361328 136.3028418 -65.76509766 136.39694336 -66.58056641 136.49389648 C-74.15609813 136.97196402 -80.3466198 134.20948574 -87.18212891 131.20874023 C-88.01099609 130.85166992 -88.83986328 130.49459961 -89.69384766 130.12670898 C-91.8667087 129.17489726 -94.02506109 128.19573806 -96.18212891 127.20874023 C-98.46743741 126.18616152 -100.75507344 125.16922459 -103.04541016 124.15795898 C-104.42256668 123.54616916 -105.7953916 122.92448632 -107.16259766 122.29077148 C-110.50005298 120.77504017 -112.42822196 120.20874023 -116.18212891 120.20874023 C-116.18212891 119.54874023 -116.18212891 118.88874023 -116.18212891 118.20874023 C-117.39900391 117.79624023 -118.61587891 117.38374023 -119.86962891 116.95874023 C-120.55412109 116.72670898 -121.23861328 116.49467773 -121.94384766 116.25561523 C-124.29981331 116.02043984 -124.29981331 116.02043984 -126.52587891 117.48999023 C-130.46260563 121.51934582 -133.14180313 126.12452041 -135.99462891 130.95874023 C-136.59210938 131.92295898 -137.18958984 132.88717773 -137.80517578 133.88061523 C-142.44136308 141.58171878 -142.44136308 141.58171878 -142.18212891 150.20874023 C-139.86134811 153.03178525 -137.13115429 155.07359917 -134.18212891 157.20874023 C-133.45622559 157.76368164 -132.73032227 158.31862305 -131.98242188 158.89038086 C-129.71602365 160.61058062 -127.42228668 162.28745253 -125.11962891 163.95874023 C-123.88660034 164.8660791 -123.88660034 164.8660791 -122.62866211 165.79174805 C-118.73074419 168.65497061 -114.81508967 171.47849771 -110.82275391 174.20874023 C-100.66697872 181.21995201 -94.54508795 187.60387717 -92.18212891 200.20874023 C-91.89277203 203.5503377 -91.85460786 206.87534473 -91.84619141 210.22827148 C-91.83953461 211.16748947 -91.83287781 212.10670746 -91.82601929 213.0743866 C-91.81594427 215.05184995 -91.81120066 217.02934695 -91.81152344 219.00683594 C-91.8071563 222.00245276 -91.77079803 224.99658704 -91.73291016 227.99194336 C-91.62432652 246.60690439 -91.62432652 246.60690439 -96.18212891 255.20874023 C-97.01744141 256.78655273 -97.01744141 256.78655273 -97.86962891 258.39624023 C-102.10125024 263.54280673 -107.1187874 268.00244445 -112.74462891 271.58374023 C-113.95119141 272.38811523 -113.95119141 272.38811523 -115.18212891 273.20874023 C-115.18212891 273.86874023 -115.18212891 274.52874023 -115.18212891 275.20874023 C-116.63619141 275.61092773 -116.63619141 275.61092773 -118.11962891 276.02124023 C-119.63556641 276.60905273 -119.63556641 276.60905273 -121.18212891 277.20874023 C-121.51212891 278.19874023 -121.84212891 279.18874023 -122.18212891 280.20874023 C-123.83910269 280.89914598 -125.50770501 281.56180373 -127.18212891 282.20874023 C-128.87987828 283.50226357 -130.54952176 284.83391317 -132.18212891 286.20874023 C-133.66712891 287.19874023 -133.66712891 287.19874023 -135.18212891 288.20874023 C-135.18212891 288.86874023 -135.18212891 289.52874023 -135.18212891 290.20874023 C-136.35775391 290.61092773 -136.35775391 290.61092773 -137.55712891 291.02124023 C-140.46327813 292.05688456 -140.46327813 292.05688456 -142.18212891 295.20874023 C-142.89956613 302.25305429 -139.45260368 306.97999452 -136.05712891 312.89624023 C-135.48736328 313.94102539 -134.91759766 314.98581055 -134.33056641 316.06225586 C-130.33010334 323.36485105 -130.33010334 323.36485105 -123.18212891 327.20874023 C-118.2563659 327.0756115 -113.59583438 324.24407592 -109.18212891 322.20874023 C-105.62285752 320.64765629 -102.0816155 319.17188532 -98.43212891 317.83374023 C-95.08996092 316.60070739 -91.8597412 315.18917458 -88.61962891 313.70874023 C-87.21003906 313.06678711 -87.21003906 313.06678711 -85.77197266 312.41186523 C-83.72594147 311.46137111 -81.69998573 310.46766864 -79.68212891 309.45874023 C-74.85335562 307.73417835 -70.28539738 307.35330875 -65.18212891 307.20874023 C-64.41642578 307.18295898 -63.65072266 307.15717773 -62.86181641 307.13061523 C-56.6306653 307.35395398 -52.49562117 310.19776181 -47.46728516 313.71264648 C-45.35847213 315.39132363 -45.35847213 315.39132363 -43.18212891 315.20874023 C-42.85212891 315.86874023 -42.52212891 316.52874023 -42.18212891 317.20874023 C-40.59471922 318.30684084 -38.96226673 319.34065754 -37.30712891 320.33374023 C-35.98068359 321.14198242 -35.98068359 321.14198242 -34.62744141 321.96655273 C-32.19347073 323.43519093 -32.19347073 323.43519093 -29.18212891 323.20874023 C-28.85212891 323.86874023 -28.52212891 324.52874023 -28.18212891 325.20874023 C-26.47139509 325.96541096 -24.75800157 326.71724708 -23.02587891 327.42358398 C-19.08375107 329.1023291 -16.18033681 331.21053233 -13.18212891 334.20874023 C-12.52212891 334.20874023 -11.86212891 334.20874023 -11.18212891 334.20874023 C-10.90216064 334.93456299 -10.62219238 335.66038574 -10.33374023 336.40820312 C-9.25272483 339.15459691 -9.25272483 339.15459691 -8.00512695 341.47607422 C-2.79862612 352.07127796 -2.26878123 363.69223927 -0.99462891 375.27124023 C-0.6272645 378.5130447 -0.25481279 381.75408698 0.12678528 384.99424744 C0.36182004 386.99871007 0.58814755 389.00421753 0.80473328 391.01075745 C0.96048576 392.36378212 0.96048576 392.36378212 1.11938477 393.74414062 C1.20645187 394.53623428 1.29351898 395.32832794 1.38322449 396.14442444 C1.74665215 398.50422661 1.74665215 398.50422661 3.81787109 401.20874023 C9.33285097 403.87268043 15.14092992 403.54042486 21.13037109 403.52124023 C22.12488281 403.53735352 23.11939453 403.5534668 24.14404297 403.57006836 C30.57870589 403.57429335 35.86600979 402.67399167 41.81787109 400.20874023 C43.20253427 390.95801177 44.56612938 381.71185533 45.57958984 372.41186523 C45.70358154 371.27604004 45.82757324 370.14021484 45.95532227 368.9699707 C46.19121708 366.76669727 46.41964438 364.56260723 46.6394043 362.35766602 C47.58054566 353.56956122 49.43315233 345.38725884 52.81787109 337.20874023 C53.47787109 337.20874023 54.13787109 337.20874023 54.81787109 337.20874023 C55.18912109 336.03311523 55.18912109 336.03311523 55.56787109 334.83374023 C57.03943799 331.74344975 57.7089201 331.41777673 60.81787109 330.20874023 C72.17049541 324.71185173 83.69031638 318.23995532 94.00537109 310.95874023 C97.24860595 308.94072743 100.09937774 308.05681767 103.81787109 307.20874023 C104.86974609 306.96124023 105.92162109 306.71374023 107.00537109 306.45874023 C112.398968 306.10506175 117.58695404 306.8514006 122.81787109 308.20874023 C123.47787109 308.86874023 124.13787109 309.52874023 124.81787109 310.20874023 C126.72145231 310.94345579 128.62762714 311.67239601 130.54833984 312.36108398 C132.81005949 313.20582265 134.99394521 314.15027913 137.19287109 315.14624023 C141.1321366 316.92396005 145.11116756 318.55465007 149.13818359 320.12280273 C151.06881531 320.90518701 152.97846903 321.74006257 154.87255859 322.60717773 C159.2294826 324.57376937 162.91220546 326.12109517 167.69287109 326.58374023 C172.54574681 324.44847492 174.30885553 320.73055937 176.81787109 316.20874023 C177.465625 315.09692383 177.465625 315.09692383 178.12646484 313.96264648 C178.96353139 312.49973579 179.77875288 311.02411111 180.57177734 309.53686523 C181.45828948 307.88056042 182.38768634 306.24690375 183.34521484 304.63061523 C184.07417969 303.33897461 184.07417969 303.33897461 184.81787109 302.02124023 C185.49849609 300.8552832 185.49849609 300.8552832 186.19287109 299.66577148 C187.06438232 297.12478158 187.06438232 297.12478158 185.94287109 294.31420898 C183.13274104 290.20749319 179.78845369 287.65306568 175.81787109 284.70874023 C174.63584106 283.80841064 174.63584106 283.80841064 173.42993164 282.88989258 C169.21092053 279.69161668 164.94218193 276.56558348 160.64990234 273.46655273 C159.81007813 272.8574707 158.97025391 272.24838867 158.10498047 271.62084961 C156.50275134 270.46375438 154.89374506 269.31596243 153.27685547 268.17944336 C143.41377355 261.08794734 138.33232943 254.22058034 135.81787109 242.20874023 C135.36353673 238.56757482 135.74166188 235.09326684 136.05615234 231.44311523 C136.18570313 229.93491211 136.18570313 229.93491211 136.31787109 228.39624023 C136.40810547 227.37014648 136.49833984 226.34405273 136.59130859 225.28686523 C137.07986234 218.64927293 136.96482608 212.19130736 136.19287109 205.58374023 C135.65984256 200.40151834 136.42216019 196.18345265 137.81787109 191.20874023 C138.15773776 189.54339356 138.49489596 187.87744511 138.81787109 186.20874023 C139.47787109 186.20874023 140.13787109 186.20874023 140.81787109 186.20874023 C141.14787109 184.88874023 141.47787109 183.56874023 141.81787109 182.20874023 C142.47787109 182.20874023 143.13787109 182.20874023 143.81787109 182.20874023 C145.48453776 180.8754069 145.48453776 180.8754069 146.81787109 179.20874023 C146.81787109 178.54874023 146.81787109 177.88874023 146.81787109 177.20874023 C148.46787109 176.54874023 150.11787109 175.88874023 151.81787109 175.20874023 C151.81787109 174.54874023 151.81787109 173.88874023 151.81787109 173.20874023 C152.90068359 172.83749023 152.90068359 172.83749023 154.00537109 172.45874023 C157.08059686 171.09197323 159.25223825 169.36927316 161.81787109 167.20874023 C163.30287109 166.21874023 163.30287109 166.21874023 164.81787109 165.20874023 C164.81787109 164.54874023 164.81787109 163.88874023 164.81787109 163.20874023 C165.90068359 162.83749023 165.90068359 162.83749023 167.00537109 162.45874023 C170.08059686 161.09197323 172.25223825 159.36927316 174.81787109 157.20874023 C176.30287109 156.21874023 176.30287109 156.21874023 177.81787109 155.20874023 C177.81787109 154.54874023 177.81787109 153.88874023 177.81787109 153.20874023 C178.58099609 152.98186523 179.34412109 152.75499023 180.13037109 152.52124023 C183.45410088 150.89802336 184.39877546 149.59880202 185.81787109 146.20874023 C184.80798079 138.19519507 179.84137192 131.04479455 175.81787109 124.20874023 C175.17849609 123.11561523 174.53912109 122.02249023 173.88037109 120.89624023 C171.60538566 117.93186527 170.40626095 117.08395727 166.81787109 116.20874023 C162.81629629 115.77866444 160.44963445 116.62221024 156.94287109 118.52124023 C151.7128157 121.26779299 146.43396104 123.62969398 140.88037109 125.64624023 C138.11312717 126.66071929 135.54714771 127.83062202 132.94287109 129.20874023 C129.1414467 131.16546556 125.29955838 132.4066246 121.18505859 133.54467773 C119.22341001 134.09497519 117.2950817 134.76248183 115.38037109 135.45874023 C107.38397082 137.14219292 100.71628915 135.78048656 93.79052734 131.56030273 C92.39063292 130.60116715 91.02594385 129.58972921 89.68896484 128.54467773 C87.9297666 127.01504775 87.9297666 127.01504775 85.81787109 127.20874023 C85.48787109 126.54874023 85.15787109 125.88874023 84.81787109 125.20874023 C82.00277116 122.93139014 82.00277116 122.93139014 78.81787109 123.20874023 C78.48787109 122.54874023 78.15787109 121.88874023 77.81787109 121.20874023 C76.82787109 120.87874023 75.83787109 120.54874023 74.81787109 120.20874023 C74.15787109 119.54874023 73.49787109 118.88874023 72.81787109 118.20874023 C71.41977067 117.54324443 69.99975153 116.92305157 68.56787109 116.33374023 C65.63802418 115.07876555 62.99663673 113.78043631 60.38037109 111.95874023 C58.05977875 110.02075302 58.05977875 110.02075302 55.81787109 110.20874023 C55.48787109 108.88874023 55.15787109 107.56874023 54.81787109 106.20874023 C54.15787109 106.20874023 53.49787109 106.20874023 52.81787109 106.20874023 C46.17752834 94.15352571 46.56009742 77.64388517 45.14550781 64.27416992 C44.73731172 60.45501185 44.30519195 56.64370332 43.81787109 52.83374023 C43.69412109 51.83600586 43.57037109 50.83827148 43.44287109 49.81030273 C42.7037951 46.73389889 41.75027471 44.71913957 39.81787109 42.20874023 C33.82922066 39.17267995 27.37671119 39.80117409 20.81787109 39.77124023 C19.54685547 39.73836914 18.27583984 39.70549805 16.96630859 39.67163086 C15.12939453 39.66099609 15.12939453 39.66099609 13.25537109 39.65014648 C12.14033203 39.63669189 11.02529297 39.6232373 9.87646484 39.609375 C5.62288036 40.44291187 4.3203078 41.66891765 1.81787109 45.20874023 Z " fill="#FBF8F8" transform="translate(189.18212890625,0.791259765625)"/>
<path d="M0 0 C7.27800301 7.27800301 11.75198613 16.98719205 12.1875 27.3125 C11.77395912 37.116865 7.75706683 46.94242758 0.73828125 53.85546875 C-8.77180026 61.63946217 -18.30385082 64.55456312 -30.6328125 63.62890625 C-39.60062837 62.06998485 -48.05732421 57.19886452 -53.6875 50.06640625 C-60.38412217 40.00403387 -62.40389835 30.14571314 -60.25 18.25 C-57.67028049 8.51476892 -51.9811362 1.10867773 -43.35546875 -4.04296875 C-27.69305826 -12.31159266 -14.15987604 -9.71756199 0 0 Z " fill="#FFFFFF" transform="translate(235.1875,195.1875)"/>
</svg>
