<svg id="Layer_1" data-name="Layer 1" xmlns="http://www.w3.org/2000/svg" viewBox="0 0 2000 2000"><title>ShowSolutionOn</title><path d="M1000,0C631.2,0,331.17,300,331.17,668.82c0,223.85,113.2,433.15,298.19,556.61v173.23c0,100.08,81.42,181.51,181.5,181.51h434.7c100.08,0,181.51-81.43,181.51-181.51V1183.43c152.07-126.51,241.76-316,241.76-514.61C1668.83,300,1368.79,0,1000,0Zm304.45,1083.86L1273,1107v291.7a27.83,27.83,0,0,1-27.46,27.46H810.86a27.83,27.83,0,0,1-27.45-27.46V1137.94l-38.74-22.19c-160-91.67-259.45-262.93-259.45-446.93C485.22,385,716.15,154.05,1000,154.05S1514.78,385,1514.78,668.82C1514.78,831.91,1436.15,987.07,1304.44,1083.86Z"/><path d="M1328.31,1820.15H728.12a21.73,21.73,0,0,0-21.74,21.73v34.39A123.74,123.74,0,0,0,830.12,2000h396.19A123.74,123.74,0,0,0,1350,1876.27v-34.39A21.73,21.73,0,0,0,1328.31,1820.15Z"/><path d="M1000,520.32c-79.19,0-143.4,64.88-143.4,144.9v3.35c0,80,64.21,144.91,143.4,144.91s143.4-64.89,143.4-144.91v-3.35C1143.4,585.2,1079.19,520.32,1000,520.32Z"/></svg>