<svg id="Layer_1" data-name="Layer 1" xmlns="http://www.w3.org/2000/svg" viewBox="0 0 2000 2000"><title>Signup</title><path d="M1417.72,1326.45a78,78,0,0,0-78,78c0,215.75-175.53,391.28-391.28,391.28H547.18c-215.75,0-391.29-175.53-391.29-391.28V595.6c0-215.76,175.54-391.28,391.29-391.28H948.49c215.75,0,391.28,175.52,391.28,391.28a78,78,0,0,0,155.9,0c0-301.71-245.47-547.18-547.18-547.18H547.18C245.46,48.42,0,293.89,0,595.6v808.8c0,301.71,245.46,547.18,547.18,547.18H948.49c301.71,0,547.18-245.47,547.18-547.18A78,78,0,0,0,1417.72,1326.45Z"/><path d="M1986.94,1043.16c.21-.32.39-.65.59-1a76.94,76.94,0,0,0,6.59-12.52c.15-.36.26-.73.41-1.1a78,78,0,0,0,4-13.44c0-.28.07-.56.12-.83A78.07,78.07,0,0,0,2000,1000V1000a78.23,78.23,0,0,0-1.37-14.29c-.05-.26-.07-.52-.12-.78a77,77,0,0,0-4-13.53c-.09-.23-.12-.47-.21-.7s-.11-.19-.16-.3a78.27,78.27,0,0,0-6.66-12.66c-.18-.27-.32-.55-.5-.82a78.46,78.46,0,0,0-9.83-12L1687.37,655.09a77.94,77.94,0,0,0-110.22,110.24l156.73,156.72H720.05a77.95,77.95,0,1,0,0,155.89H1733.87l-156.73,156.73a78,78,0,0,0,110.25,110.24l289.79-289.79a.44.44,0,0,1,.08-.1A78.82,78.82,0,0,0,1986.94,1043.16Z"/></svg>