<svg id="Layer_1" data-name="Layer 1" xmlns="http://www.w3.org/2000/svg" viewBox="0 0 2000 2000"><title>Submit Answers</title><path d="M454.79,0C204,0,0,205.4,0,457.88S204,915.76,454.79,915.76s454.77-205.4,454.77-457.88S705.55,0,454.79,0Zm0,770.56c-171.25,0-310.57-140.27-310.57-312.68S283.54,145.2,454.79,145.2,765.35,285.47,765.35,457.88,626,770.56,454.79,770.56Z"/><path d="M1545.21,915.76C1796,915.76,2000,710.36,2000,457.88S1796,0,1545.21,0s-454.79,205.4-454.79,457.88S1294.44,915.76,1545.21,915.76Zm0-770.56c171.25,0,310.57,140.27,310.57,312.68s-139.32,312.68-310.57,312.68-310.57-140.27-310.57-312.68S1374,145.2,1545.21,145.2Z"/><path d="M454.79,1084.24C204,1084.24,0,1289.64,0,1542.12S204,2000,454.79,2000s454.77-205.4,454.77-457.88S705.55,1084.24,454.79,1084.24Zm0,770.56c-171.25,0-310.57-140.27-310.57-312.68s139.32-312.68,310.57-312.68,310.56,140.27,310.56,312.68S626,1854.8,454.79,1854.8Z"/><path d="M1545.21,1084.24c-250.77,0-454.79,205.4-454.79,457.88s204,457.88,454.79,457.88S2000,1794.6,2000,1542.12,1796,1084.24,1545.21,1084.24Zm0,770.56c-171.25,0-310.57-140.27-310.57-312.68s139.32-312.68,310.57-312.68,310.57,140.27,310.57,312.68S1716.46,1854.8,1545.21,1854.8Z"/></svg>