<svg id="Layer_1" data-name="Layer 1" xmlns="http://www.w3.org/2000/svg" viewBox="0 0 800 800"><defs><style>.cls-1{fill:#010101;}</style></defs><title>Support</title><path class="cls-1" d="M400,775.64c41.1,0,81.19-9.51,116-27.49l14.78-7.65v23.83c0,.36,0,.71,0,1.06v.36A192.14,192.14,0,0,1,527.51,800H720.19l-130-55.32V687.22l2.09-2.73A225.1,225.1,0,0,0,635.05,587l1.48-8.36h46.91A85.74,85.74,0,0,0,769.09,493V372.75c0-38.75-27.32-73.69-65-83.09l-7.27-1.81-.39-7.49c-4.5-86.53-31.33-153.53-79.73-199.14C566.59,34,493.67,10,400,10S233.41,34,183.26,81.22C134.85,126.83,108,193.83,103.53,280.36l-.39,7.49-7.27,1.81c-37.64,9.4-65,44.34-65,83.09V493a85.74,85.74,0,0,0,85.65,85.65h46.91L165,587a225.1,225.1,0,0,0,42.79,97.47l2.09,2.73v57.46L79.82,800H272.48a192.63,192.63,0,0,1-3.25-34.26v-.34c0-.36,0-.71,0-1.07V740.5l14.78,7.65C318.81,766.13,358.9,775.64,400,775.64ZM709.65,372.75V493a26.24,26.24,0,0,1-26.21,26.21H638.59V346.54h44.85A26.24,26.24,0,0,1,709.65,372.75ZM161.41,519.22H116.56A26.24,26.24,0,0,1,90.35,493V372.75a26.24,26.24,0,0,1,26.21-26.21h44.85Zm29.8-294.56-39.07,71.81,20.37-79.17c8.22-32,21.51-58.87,39.49-80h0c38.38-45,101.63-67.88,188-67.88s149.62,22.84,188,67.88c19,22.36,32.8,51.18,40.89,85.68l18.53,79L610,230c-13.87-26.72-30.77-45-51.66-55.9a92.62,92.62,0,0,0-43.86-10.57c-27.38,0-54,10.59-75.45,19.11-17.62,7-30.72,11.94-39.08,11.94s-21.79-5-39.78-11.93c-35.53-13.81-79.72-31-122.39-7.82C219.23,184.89,204,201.2,191.21,224.66Zm29.63,321.8V319.94l.23-1.06c7.61-34.87,21.61-79.1,45.11-91.84,18.44-10,45.91.64,72.46,11l.14.05C359.87,246.24,379.83,254,400,254c20.36,0,40.11-7.84,61-16.14,26.59-10.57,51.7-20.55,69.87-11.07,10.83,5.65,31.48,25.16,48,92.36l.29,1.19V533l-52.41,35a100.49,100.49,0,0,1-55.91,16.92h-47.3a29.72,29.72,0,0,0,0,59.44h47.3a158.9,158.9,0,0,0,63.85-13.26l34.53-15-22.33,30.33C514.2,690.76,460.67,716.21,400,716.21,297.86,716.21,220.84,643.23,220.84,546.46Z"/></svg>