<svg id="Layer_1" data-name="Layer 1" xmlns="http://www.w3.org/2000/svg" viewBox="0 0 2000 2000"><title>TextBlack</title><path d="M1993,1821.65,1302.61,133.4l0-.1a108.3,108.3,0,0,0-100.26-66.89H1202a108.6,108.6,0,0,0-100.36,67.81L420.93,1822.07A93.48,93.48,0,1,0,594.32,1892l211.2-523.67h800.14L1820,1892.43a93.48,93.48,0,0,0,173-70.78Zm-463.83-640.27H880.92l321.89-798.12Z"/><path d="M630.1,1148.65H356L545.23,701l132.84,323.66,98-253.48L642.27,445a103.6,103.6,0,0,0-95.91-64h-.28c-42.19.11-79.65,25.09-95.49,63.62L7.43,1493.16a93.43,93.43,0,0,0,121.24,123,92.81,92.81,0,0,0,51-50.23L277,1335.6H557.77Z"/></svg>