<svg id="Layer_1" data-name="Layer 1" xmlns="http://www.w3.org/2000/svg" viewBox="0 0 800 800"><defs><style>.cls-1{fill:#fff;}</style></defs><title>ThemeLight</title><path class="cls-1" d="M786.56,385.72A44.32,44.32,0,0,0,752,373.58c-8.34.74-17.06,1.11-25.92,1.11-168.38,0-305.35-137-305.35-305.45q0-11.17.78-22a44.32,44.32,0,0,0-12.7-34.27A43.54,43.54,0,0,0,375.16.08C164.79,13,0,188.5,0,399.6,0,620.38,179.55,800,400.26,800,614.19,800,789.75,632.76,800,419.25A43.55,43.55,0,0,0,786.56,385.72ZM400.26,733C216.46,733,66.93,583.46,66.93,399.6,66.93,232.43,191,92.08,353.8,69.45c.11,206.86,169.86,374.32,377.1,372.17C710.36,607,569.77,733,400.26,733Z" style="fill:#fff;" /></svg>