<svg id="Layer_1" data-name="Layer 1" xmlns="http://www.w3.org/2000/svg" viewBox="0 0 800 800"><title>Train</title><path d="M387.83,358.19H608.92a32.61,32.61,0,0,0,32.61-32.62h0A32.61,32.61,0,0,0,608.92,293H387.83a32.61,32.61,0,0,0-32.61,32.61h0A32.61,32.61,0,0,0,387.83,358.19Z"/><path d="M61.78,714.8,218.11,558.47a32.6,32.6,0,0,0,0-46.12h0a32.6,32.6,0,0,0-46.12,0L15.65,668.68a32.62,32.62,0,0,0,0,46.12h0A32.62,32.62,0,0,0,61.78,714.8Z"/><rect x="292.25" y="440.52" width="349.29" height="65.23" rx="32.61"/><path d="M767.39,158.94H32.61a32.62,32.62,0,0,0,0,65.23h19V569.91l65.23-65.23V224.17H683.12V559.22a14.61,14.61,0,0,1-14.62,14.61h-403l-65.22,65.23H683.12a65.23,65.23,0,0,0,65.23-65.23h0V224.17h19a32.62,32.62,0,0,0,0-65.23Z"/></svg>