<svg id="Layer_1" data-name="Layer 1" xmlns="http://www.w3.org/2000/svg" viewBox="0 0 800 800"><defs><style>.cls-1{fill:#010101;}</style></defs><title>TrainOff</title><path class="cls-1" d="M387.83,358.19H608.92a32.61,32.61,0,0,0,32.61-32.62h0A32.61,32.61,0,0,0,608.92,293H387.83a32.61,32.61,0,0,0-32.61,32.61h0A32.61,32.61,0,0,0,387.83,358.19Z"/><rect class="cls-1" x="292.25" y="440.52" width="349.29" height="65.23" rx="32.61"/><path class="cls-1" d="M767.39,158.94H32.61a32.62,32.62,0,0,0,0,65.23h19V573.83h0a65.23,65.23,0,0,0,65.23,65.23H683.12a65.23,65.23,0,0,0,65.23-65.23h0V224.17h19a32.62,32.62,0,0,0,0-65.23ZM683.12,559.22a14.61,14.61,0,0,1-14.62,14.61h-537a14.61,14.61,0,0,1-14.62-14.61V224.17H683.12Z"/></svg>