<?xml version="1.0" encoding="UTF-8"?>
<!DOCTYPE svg PUBLIC "-//W3C//DTD SVG 1.1//EN" "http://www.w3.org/Graphics/SVG/1.1/DTD/svg11.dtd">
<svg xmlns="http://www.w3.org/2000/svg" version="1.1" width="512px" height="512px" style="shape-rendering:geometricPrecision; text-rendering:geometricPrecision; image-rendering:optimizeQuality; fill-rule:evenodd; clip-rule:evenodd" xmlns:xlink="http://www.w3.org/1999/xlink">
<g><path style="opacity:0.997" fill="#4db2f1" d="M 102.5,-0.5 C 168.833,-0.5 235.167,-0.5 301.5,-0.5C 301.172,48.5422 301.505,97.5422 302.5,146.5C 361.332,147.831 419.999,147.831 478.5,146.5C 479.5,258.001 480,369.668 480,481.5C 477.732,496.926 469.232,506.926 454.5,511.5C 337.167,511.5 219.833,511.5 102.5,511.5C 90.2862,507.788 82.1196,499.788 78,487.5C 76.5581,466.545 76.0581,445.545 76.5,424.5C 179.501,424.667 282.501,424.5 385.5,424C 391,422.5 394.5,419 396,413.5C 396.667,361.167 396.667,308.833 396,256.5C 394.141,251.974 390.974,248.808 386.5,247C 282.999,246.833 179.666,246.333 76.5,245.5C 76.3333,173.166 76.5,100.833 77,28.5C 79.7259,13.6154 88.2259,3.94875 102.5,-0.5 Z"/></g>
<g><path style="opacity:1" fill="#0077cc" d="M 301.5,-0.5 C 302.167,-0.5 302.833,-0.5 303.5,-0.5C 361.516,48.8465 419.849,97.8465 478.5,146.5C 419.999,147.831 361.332,147.831 302.5,146.5C 301.505,97.5422 301.172,48.5422 301.5,-0.5 Z"/></g>
<g><path style="opacity:0.999" fill="#0077cc" d="M 76.5,245.5 C 179.666,246.333 282.999,246.833 386.5,247C 390.974,248.808 394.141,251.974 396,256.5C 396.667,308.833 396.667,361.167 396,413.5C 394.5,419 391,422.5 385.5,424C 282.501,424.5 179.501,424.667 76.5,424.5C 64.4954,424.667 52.4954,424.5 40.5,424C 34.6625,421.833 31.4958,417.666 31,411.5C 30.3333,360.5 30.3333,309.5 31,258.5C 31.6361,251.868 35.1361,247.702 41.5,246C 53.1619,245.5 64.8286,245.333 76.5,245.5 Z"/></g>
<g><path style="opacity:1" fill="#fbfdfe" d="M 170.5,316.5 C 162.5,316.5 154.5,316.5 146.5,316.5C 146.5,335.5 146.5,354.5 146.5,373.5C 138.833,373.5 131.167,373.5 123.5,373.5C 123.5,354.833 123.5,336.167 123.5,317.5C 115.833,317.5 108.167,317.5 100.5,317.5C 100.5,311.167 100.5,304.833 100.5,298.5C 123.833,298.5 147.167,298.5 170.5,298.5C 170.5,304.5 170.5,310.5 170.5,316.5 Z"/></g>
<g><path style="opacity:1" fill="#fcfdfe" d="M 176.5,298.5 C 184.84,298.334 193.173,298.5 201.5,299C 205.456,306.416 209.79,313.583 214.5,320.5C 219.196,313.618 223.529,306.452 227.5,299C 235.833,298.333 244.167,298.333 252.5,299C 244.709,310.748 237.042,322.582 229.5,334.5C 237.958,347.248 246.291,360.081 254.5,373C 245.814,373.832 237.147,373.665 228.5,372.5C 223.667,364.833 218.833,357.167 214,349.5C 209.543,357.584 204.709,365.418 199.5,373C 190.833,373.667 182.167,373.667 173.5,373C 182.46,360.547 190.793,347.714 198.5,334.5C 191.16,322.482 183.826,310.482 176.5,298.5 Z"/></g>
<g><path style="opacity:1" fill="#fdfdfe" d="M 257.5,298.5 C 280.833,298.5 304.167,298.5 327.5,298.5C 327.5,304.5 327.5,310.5 327.5,316.5C 319.5,316.5 311.5,316.5 303.5,316.5C 303.5,335.5 303.5,354.5 303.5,373.5C 295.833,373.5 288.167,373.5 280.5,373.5C 280.5,354.833 280.5,336.167 280.5,317.5C 273.018,316.508 265.352,316.175 257.5,316.5C 257.5,310.5 257.5,304.5 257.5,298.5 Z"/></g>
<g><path style="opacity:1" fill="#8abfe7" d="M 257.5,298.5 C 257.5,304.5 257.5,310.5 257.5,316.5C 265.352,316.175 273.018,316.508 280.5,317.5C 272.5,317.5 264.5,317.5 256.5,317.5C 256.177,310.978 256.51,304.645 257.5,298.5 Z"/></g>
<g><path style="opacity:1" fill="#73b3e2" d="M 170.5,316.5 C 163.018,317.492 155.352,317.825 147.5,317.5C 147.83,336.341 147.497,355.007 146.5,373.5C 146.5,354.5 146.5,335.5 146.5,316.5C 154.5,316.5 162.5,316.5 170.5,316.5 Z"/></g>
<g><path style="opacity:1" fill="#62a9de" d="M 327.5,316.5 C 320.018,317.492 312.352,317.825 304.5,317.5C 304.83,336.341 304.497,355.007 303.5,373.5C 303.5,354.5 303.5,335.5 303.5,316.5C 311.5,316.5 319.5,316.5 327.5,316.5 Z"/></g>
</svg>
