<svg id="Layer_1" data-name="Layer 1" xmlns="http://www.w3.org/2000/svg" viewBox="0 0 800 800"><defs><style>.cls-1{fill:#fff;}</style></defs><title>UnlockWhite</title><path class="cls-1" d="M651.8,331H237.89V228.8c0-89.39,72.72-162.12,162.11-162.12S562.11,139.41,562.11,228.8a33.35,33.35,0,0,0,66.69,0,228.8,228.8,0,1,0-457.6,0V331h-23a91.23,91.23,0,0,0-91.13,91.14V708.86A91.23,91.23,0,0,0,148.2,800H651.8a91.23,91.23,0,0,0,91.13-91.14V422.13A91.23,91.23,0,0,0,651.8,331Zm24.45,377.87a24.48,24.48,0,0,1-24.45,24.46H148.2a24.48,24.48,0,0,1-24.45-24.46V422.13a24.48,24.48,0,0,1,24.45-24.46H651.8a24.48,24.48,0,0,1,24.45,24.46Z" style="fill:#fff;" /></svg>