<svg id="Layer_1" data-name="Layer 1" xmlns="http://www.w3.org/2000/svg" viewBox="0 0 2000 2000"><title>Updates</title><path d="M60.2,744.47h0a63.68,63.68,0,0,0,102.39,41L359.05,630.87A63.67,63.67,0,0,0,343.33,521.7l-42.85-17.14C462.22,279.84,722.47,146,999,146c420.94,0,777.42,300.7,847.62,715a71.89,71.89,0,1,0,141.76-24C1949.2,606,1829,394.68,1649.82,241.89A1004.77,1004.77,0,0,0,163.53,449.78l-52.31-20.93a63.67,63.67,0,0,0-86.67,68.21Z"/><path d="M1151.76,1315.42a71.9,71.9,0,0,0,31.74,136.43,71.17,71.17,0,0,0,31.65-7.38c168.64-82.83,273.4-250.94,273.4-438.73a488.3,488.3,0,0,0-150.86-352.82l9.46-16.11a40.93,40.93,0,0,0-35-61.65L1142.22,574h-.3a40.92,40.92,0,0,0-35.58,61.13l83.89,147.77a40.92,40.92,0,0,0,70.89.52l.93-1.58a343.82,343.82,0,0,1,82.71,224C1344.76,1138.28,1270.81,1256.94,1151.76,1315.42Z"/><path d="M1939.8,1255.54h0a63.67,63.67,0,0,0-102.39-41L1641,1369.13a63.67,63.67,0,0,0,15.72,109.17l42.85,17.14c-161.74,224.73-422,358.56-698.47,358.56-420.95,0-777.42-300.7-847.62-715a71.9,71.9,0,0,0-129.5-29.62A71.42,71.42,0,0,0,11.67,1163C50.8,1394,171,1605.32,350.18,1758.12a1004.78,1004.78,0,0,0,1486.29-207.9l52.31,20.93a63.68,63.68,0,0,0,86.68-68.21Z"/><path d="M652.52,1402.62a40.25,40.25,0,0,0,35.09,20.59l168.61,1.21h.3a40.68,40.68,0,0,0,35.36-60.77L808.64,1217a40.24,40.24,0,0,0-35.08-20.59h-.31a40.29,40.29,0,0,0-35.07,20.09l-.67,1.15a343.84,343.84,0,0,1-82.27-223.4c0-132.54,74-251.2,193-309.68a71.89,71.89,0,0,0-63.4-129.05c-168.64,82.83-273.4,250.94-273.4,438.73a488.29,488.29,0,0,0,150.36,352.35l-9,15.33A40.26,40.26,0,0,0,652.52,1402.62Z"/></svg>