<svg width="11" height="11" viewBox="0 0 11 11" fill="none" xmlns="http://www.w3.org/2000/svg">
<g clip-path="url(#clip0_1_4355)">
<path d="M7.92143 2.18291C8.01448 2.40795 8.19309 2.58683 8.418 2.68022L9.20662 3.00687C9.43168 3.1001 9.61049 3.27891 9.70371 3.50397C9.79693 3.72903 9.79693 3.9819 9.70371 4.20696L9.37729 4.99502C9.28402 5.22018 9.28389 5.47331 9.37758 5.69836L9.70344 6.48618C9.74965 6.59765 9.77345 6.71714 9.77347 6.83781C9.77349 6.95848 9.74973 7.07797 9.70355 7.18945C9.65737 7.30094 9.58968 7.40223 9.50434 7.48754C9.419 7.57285 9.31769 7.64051 9.20619 7.68666L8.41813 8.01308C8.19309 8.10613 8.01421 8.28474 7.92082 8.50964L7.59416 9.29827C7.50094 9.52333 7.32213 9.70214 7.09707 9.79536C6.87201 9.88858 6.61913 9.88858 6.39407 9.79536L5.60602 9.46894C5.38095 9.37594 5.12817 9.37613 4.90324 9.46946L4.11462 9.79565C3.88968 9.88866 3.63703 9.88858 3.41215 9.79543C3.18727 9.70229 3.00856 9.52369 2.91528 9.29887L2.58852 8.51001C2.49547 8.28497 2.31686 8.10609 2.09196 8.0127L1.30334 7.68604C1.07837 7.59286 0.899617 7.41416 0.80636 7.18923C0.713102 6.9643 0.712976 6.71155 0.806008 6.48652L1.13243 5.69847C1.22543 5.4734 1.22524 5.22061 1.1319 4.99569L0.805949 4.2065C0.759735 4.09503 0.735938 3.97555 0.735919 3.85488C0.7359 3.73421 0.759658 3.61472 0.805836 3.50323C0.852014 3.39175 0.919707 3.29046 1.00505 3.20514C1.09039 3.11983 1.1917 3.05217 1.3032 3.00603L2.09126 2.6796C2.3161 2.58663 2.49488 2.40825 2.58833 2.18361L2.91499 1.39498C3.00822 1.16992 3.18703 0.991113 3.41209 0.897891C3.63715 0.804668 3.89002 0.804668 4.11508 0.897891L4.90314 1.22431C5.1282 1.31731 5.38099 1.31712 5.60591 1.22379L6.39487 0.898397C6.6199 0.805226 6.87272 0.805245 7.09773 0.89845C7.32275 0.991654 7.50153 1.17041 7.59477 1.39541L7.92153 2.18427L7.92143 2.18291Z" fill="#0788F5"/>
<path fill-rule="evenodd" clip-rule="evenodd" d="M7.17289 4.06223C7.23834 3.95943 7.26027 3.83484 7.23386 3.71587C7.20744 3.5969 7.13485 3.49329 7.03205 3.42785C6.92925 3.3624 6.80466 3.34047 6.68569 3.36688C6.56672 3.39329 6.46312 3.46588 6.39767 3.56868L4.59923 6.39462L3.77625 5.3659C3.70017 5.27073 3.58939 5.20968 3.4683 5.19619C3.3472 5.1827 3.22571 5.21786 3.13054 5.29395C3.03537 5.37003 2.97433 5.48081 2.96084 5.6019C2.94734 5.72299 2.98251 5.84449 3.05859 5.93966L4.28327 7.4705C4.32891 7.52762 4.38753 7.57302 4.45425 7.60293C4.52098 7.63283 4.59388 7.64636 4.66689 7.64241C4.7399 7.63846 4.81091 7.61713 4.87402 7.5802C4.93712 7.54327 4.9905 7.4918 5.02971 7.43009L7.17289 4.06223Z" fill="white"/>
</g>
<defs>
<clipPath id="clip0_1_4355">
<rect width="9.79741" height="9.79741" fill="white" transform="translate(0.355469 0.447571)"/>
</clipPath>
</defs>
</svg>
