<?xml version="1.0" encoding="UTF-8"?>
<!DOCTYPE svg PUBLIC "-//W3C//DTD SVG 1.1//EN" "http://www.w3.org/Graphics/SVG/1.1/DTD/svg11.dtd">
<svg xmlns="http://www.w3.org/2000/svg" version="1.1" width="512px" height="512px" style="shape-rendering:geometricPrecision; text-rendering:geometricPrecision; image-rendering:optimizeQuality; fill-rule:evenodd; clip-rule:evenodd" xmlns:xlink="http://www.w3.org/1999/xlink">
<g><path style="opacity:0.998" fill="#00723a" d="M 156.5,-0.5 C 218.167,-0.5 279.833,-0.5 341.5,-0.5C 341.333,46.5012 341.5,93.5012 342,140.5C 343.859,146.36 347.693,150.193 353.5,152C 400.499,152.5 447.499,152.667 494.5,152.5C 495.167,201.666 495.5,250.999 495.5,300.5C 495.644,353.186 495.144,405.853 494,458.5C 486.989,486.677 469.489,504.344 441.5,511.5C 346.5,511.5 251.5,511.5 156.5,511.5C 126.161,503.895 108.328,484.562 103,453.5C 102.5,427.502 102.333,401.502 102.5,375.5C 197.501,375.667 292.501,375.5 387.5,375C 392.428,373.073 395.594,369.573 397,364.5C 397.667,318.833 397.667,273.167 397,227.5C 395.167,223 392,219.833 387.5,218C 292.501,217.5 197.501,217.333 102.5,217.5C 102.029,161.805 102.529,106.138 104,50.5C 111.269,22.813 128.769,5.81305 156.5,-0.5 Z"/></g>
<g><path style="opacity:1" fill="#005c2f" d="M 341.5,-0.5 C 341.833,-0.5 342.167,-0.5 342.5,-0.5C 393.167,50.5 443.833,101.5 494.5,152.5C 447.499,152.667 400.499,152.5 353.5,152C 347.693,150.193 343.859,146.36 342,140.5C 341.5,93.5012 341.333,46.5012 341.5,-0.5 Z"/></g>
<g><path style="opacity:1" fill="#025c30" d="M 102.5,217.5 C 197.501,217.333 292.501,217.5 387.5,218C 392,219.833 395.167,223 397,227.5C 397.667,273.167 397.667,318.833 397,364.5C 395.594,369.573 392.428,373.073 387.5,375C 292.501,375.5 197.501,375.667 102.5,375.5C 76.8312,375.667 51.1645,375.5 25.5,375C 19.5129,372.538 16.3463,368.038 16,361.5C 15.3333,317.833 15.3333,274.167 16,230.5C 16.6413,224.373 19.8079,220.206 25.5,218C 51.1645,217.5 76.8312,217.333 102.5,217.5 Z"/></g>
<g><path style="opacity:1" fill="#fbfcfc" d="M 111.5,243.5 C 119.217,243.944 122.384,247.944 121,255.5C 112.833,269.167 104.667,282.833 96.5,296.5C 104.667,310.167 112.833,323.833 121,337.5C 122,346.164 118.166,349.664 109.5,348C 101.605,336.434 94.105,324.601 87,312.5C 79.895,324.601 72.395,336.434 64.5,348C 55.8338,349.664 52.0004,346.164 53,337.5C 60.6633,323.502 68.83,309.836 77.5,296.5C 69.3333,282.833 61.1667,269.167 53,255.5C 51.3782,246.21 55.2115,242.71 64.5,245C 65.6667,246.167 66.8333,247.333 68,248.5C 74.0824,259 80.4158,269.334 87,279.5C 93.5842,269.334 99.9176,259 106,248.5C 107.73,246.598 109.563,244.931 111.5,243.5 Z"/></g>
<g><path style="opacity:1" fill="#fefefe" d="M 141.5,244.5 C 146.223,243.553 150.056,244.886 153,248.5C 153.5,276.498 153.667,304.498 153.5,332.5C 169.503,332.333 185.503,332.5 201.5,333C 206.224,335.435 207.724,339.269 206,344.5C 204.833,345.667 203.667,346.833 202.5,348C 182.167,348.667 161.833,348.667 141.5,348C 140.333,346.833 139.167,345.667 138,344.5C 137.333,312.5 137.333,280.5 138,248.5C 139.376,247.295 140.542,245.962 141.5,244.5 Z"/></g>
<g><path style="opacity:1" fill="#fbfcfc" d="M 240.5,243.5 C 251.113,242.616 261.446,243.782 271.5,247C 281.738,252.976 285.905,261.809 284,273.5C 279.748,279.653 275.081,279.986 270,274.5C 269,271.167 268,267.833 267,264.5C 265.681,262.513 263.848,261.346 261.5,261C 254.833,260.333 248.167,260.333 241.5,261C 230.298,267.102 228.631,275.102 236.5,285C 239.363,286.399 242.363,287.399 245.5,288C 262.737,285.699 275.237,292.199 283,307.5C 288.002,327.671 280.835,341.171 261.5,348C 252.167,348.667 242.833,348.667 233.5,348C 218.348,341.712 213.348,331.045 218.5,316C 222.714,313.731 226.547,314.231 230,317.5C 230.144,323.959 232.977,328.793 238.5,332C 245.167,332.667 251.833,332.667 258.5,332C 266.248,328.672 269.414,322.839 268,314.5C 266.167,310 263,306.833 258.5,305C 247.601,305.755 237.268,303.755 227.5,299C 214.854,288.09 212.02,274.923 219,259.5C 221.797,255.701 224.964,252.201 228.5,249C 232.49,246.858 236.49,245.025 240.5,243.5 Z"/></g>
<g><path style="opacity:1" fill="#fbfcfc" d="M 351.5,243.5 C 359.217,243.944 362.384,247.944 361,255.5C 352.833,269.167 344.667,282.833 336.5,296.5C 345.17,309.836 353.337,323.502 361,337.5C 362,346.164 358.166,349.664 349.5,348C 341.605,336.434 334.105,324.601 327,312.5C 319.895,324.601 312.395,336.434 304.5,348C 295.834,349.664 292,346.164 293,337.5C 300.663,323.502 308.83,309.836 317.5,296.5C 309.333,282.833 301.167,269.167 293,255.5C 291.671,246.499 295.504,242.999 304.5,245C 305.667,246.167 306.833,247.333 308,248.5C 314.082,259 320.416,269.334 327,279.5C 333.584,269.334 339.918,259 346,248.5C 347.73,246.598 349.563,244.931 351.5,243.5 Z"/></g>
</svg>
