<?xml version="1.0" encoding="UTF-8"?>
<!DOCTYPE svg PUBLIC "-//W3C//DTD SVG 1.1//EN" "http://www.w3.org/Graphics/SVG/1.1/DTD/svg11.dtd">
<svg xmlns="http://www.w3.org/2000/svg" version="1.1" width="512px" height="512px" style="shape-rendering:geometricPrecision; text-rendering:geometricPrecision; image-rendering:optimizeQuality; fill-rule:evenodd; clip-rule:evenodd" xmlns:xlink="http://www.w3.org/1999/xlink">
<g><path style="opacity:0.998" fill="#008af4" d="M 156.5,-0.5 C 218.167,-0.5 279.833,-0.5 341.5,-0.5C 341.333,46.1679 341.5,92.8345 342,139.5C 343.427,145.925 347.26,150.092 353.5,152C 400.499,152.5 447.499,152.667 494.5,152.5C 495.167,201.666 495.5,250.999 495.5,300.5C 495.644,353.186 495.144,405.853 494,458.5C 486.989,486.677 469.489,504.344 441.5,511.5C 346.5,511.5 251.5,511.5 156.5,511.5C 126.162,503.9 108.329,484.566 103,453.5C 102.5,427.502 102.333,401.502 102.5,375.5C 197.167,375.667 291.834,375.5 386.5,375C 391.573,373.594 395.073,370.428 397,365.5C 397.667,319.5 397.667,273.5 397,227.5C 395.073,222.572 391.573,219.406 386.5,218C 291.834,217.5 197.167,217.333 102.5,217.5C 102.029,161.805 102.529,106.138 104,50.5C 111.269,22.813 128.769,5.81305 156.5,-0.5 Z"/></g>
<g><path style="opacity:1" fill="#006fc4" d="M 341.5,-0.5 C 341.833,-0.5 342.167,-0.5 342.5,-0.5C 393.167,50.5 443.833,101.5 494.5,152.5C 447.499,152.667 400.499,152.5 353.5,152C 347.26,150.092 343.427,145.925 342,139.5C 341.5,92.8345 341.333,46.1679 341.5,-0.5 Z"/></g>
<g><path style="opacity:1" fill="#026fc4" d="M 102.5,217.5 C 197.167,217.333 291.834,217.5 386.5,218C 391.573,219.406 395.073,222.572 397,227.5C 397.667,273.5 397.667,319.5 397,365.5C 395.073,370.428 391.573,373.594 386.5,375C 291.834,375.5 197.167,375.667 102.5,375.5C 76.8312,375.667 51.1645,375.5 25.5,375C 19.5129,372.538 16.3463,368.038 16,361.5C 15.3333,317.833 15.3333,274.167 16,230.5C 16.6413,224.373 19.8079,220.206 25.5,218C 51.1645,217.5 76.8312,217.333 102.5,217.5 Z"/></g>
<g><path style="opacity:1" fill="#fbfcfe" d="M 115.5,243.5 C 134.836,243.333 154.17,243.5 173.5,244C 180.098,247.797 181.264,252.963 177,259.5C 162.249,283.334 147.749,307.334 133.5,331.5C 147.889,332.05 162.222,332.883 176.5,334C 180.779,339.033 180.446,343.7 175.5,348C 155.167,348.667 134.833,348.667 114.5,348C 110.723,345.089 109.556,341.256 111,336.5C 126.292,311.416 141.459,286.25 156.5,261C 142.833,260.667 129.167,260.333 115.5,260C 110.391,256.634 109.224,252.134 112,246.5C 113.518,245.837 114.685,244.837 115.5,243.5 Z"/></g>
<g><path style="opacity:1" fill="#fefefe" d="M 204.5,244.5 C 209.223,243.553 213.056,244.886 216,248.5C 216.667,280.167 216.667,311.833 216,343.5C 213.565,348.224 209.731,349.724 204.5,348C 203.333,346.833 202.167,345.667 201,344.5C 200.333,312.5 200.333,280.5 201,248.5C 202.376,247.295 203.542,245.962 204.5,244.5 Z"/></g>
<g><path style="opacity:1" fill="#fcfdfe" d="M 272.5,314.5 C 265.167,314.5 257.833,314.5 250.5,314.5C 250.5,323.833 250.5,333.167 250.5,342.5C 248.412,348.127 244.412,349.961 238.5,348C 236.951,346.786 235.785,345.286 235,343.5C 234.333,311.833 234.333,280.167 235,248.5C 236.543,246.622 238.376,245.122 240.5,244C 251.5,243.333 262.5,243.333 273.5,244C 299.21,251.249 308.376,267.749 301,293.5C 295.404,305.722 285.904,312.722 272.5,314.5 Z"/></g>
<g><path style="opacity:1" fill="#4c99d5" d="M 251.5,260.5 C 251.5,272.833 251.5,285.167 251.5,297.5C 258.833,297.5 266.167,297.5 273.5,297.5C 266.018,298.492 258.352,298.825 250.5,298.5C 250.171,285.656 250.505,272.989 251.5,260.5 Z"/></g>
<g><path style="opacity:1" fill="#036fc4" d="M 251.5,260.5 C 258.841,260.334 266.174,260.5 273.5,261C 286.846,266.538 290.679,276.038 285,289.5C 282.095,293.582 278.262,296.249 273.5,297.5C 266.167,297.5 258.833,297.5 251.5,297.5C 251.5,285.167 251.5,272.833 251.5,260.5 Z"/></g>
<g><path style="opacity:1" fill="#4897d4" d="M 272.5,314.5 C 265.687,315.491 258.687,315.825 251.5,315.5C 251.827,324.682 251.493,333.682 250.5,342.5C 250.5,333.167 250.5,323.833 250.5,314.5C 257.833,314.5 265.167,314.5 272.5,314.5 Z"/></g>
</svg>
